%TF.GenerationSoftware,KiCad,Pcbnew,9.0.6*%
%TF.CreationDate,2025-12-11T07:51:36+01:00*%
%TF.ProjectId,ch32-baseboard-kicad,63683332-2d62-4617-9365-626f6172642d,rev?*%
%TF.SameCoordinates,PX5b8d800PY8954400*%
%TF.FileFunction,Paste,Top*%
%TF.FilePolarity,Positive*%
%FSLAX46Y46*%
G04 Gerber Fmt 4.6, Leading zero omitted, Abs format (unit mm)*
G04 Created by KiCad (PCBNEW 9.0.6) date 2025-12-11 07:51:36*
%MOMM*%
%LPD*%
G01*
G04 APERTURE LIST*
G04 Aperture macros list*
%AMRoundRect*
0 Rectangle with rounded corners*
0 $1 Rounding radius*
0 $2 $3 $4 $5 $6 $7 $8 $9 X,Y pos of 4 corners*
0 Add a 4 corners polygon primitive as box body*
4,1,4,$2,$3,$4,$5,$6,$7,$8,$9,$2,$3,0*
0 Add four circle primitives for the rounded corners*
1,1,$1+$1,$2,$3*
1,1,$1+$1,$4,$5*
1,1,$1+$1,$6,$7*
1,1,$1+$1,$8,$9*
0 Add four rect primitives between the rounded corners*
20,1,$1+$1,$2,$3,$4,$5,0*
20,1,$1+$1,$4,$5,$6,$7,0*
20,1,$1+$1,$6,$7,$8,$9,0*
20,1,$1+$1,$8,$9,$2,$3,0*%
G04 Aperture macros list end*
%ADD10RoundRect,0.250000X-0.350000X-0.450000X0.350000X-0.450000X0.350000X0.450000X-0.350000X0.450000X0*%
%ADD11RoundRect,0.200000X0.200000X0.275000X-0.200000X0.275000X-0.200000X-0.275000X0.200000X-0.275000X0*%
%ADD12RoundRect,0.135000X-0.135000X-0.185000X0.135000X-0.185000X0.135000X0.185000X-0.135000X0.185000X0*%
%ADD13RoundRect,0.140000X-0.140000X-0.170000X0.140000X-0.170000X0.140000X0.170000X-0.140000X0.170000X0*%
%ADD14RoundRect,0.140000X0.170000X-0.140000X0.170000X0.140000X-0.170000X0.140000X-0.170000X-0.140000X0*%
%ADD15RoundRect,0.250000X0.475000X-0.250000X0.475000X0.250000X-0.475000X0.250000X-0.475000X-0.250000X0*%
%ADD16RoundRect,0.150000X0.512500X0.150000X-0.512500X0.150000X-0.512500X-0.150000X0.512500X-0.150000X0*%
%ADD17RoundRect,0.140000X-0.170000X0.140000X-0.170000X-0.140000X0.170000X-0.140000X0.170000X0.140000X0*%
%ADD18RoundRect,0.135000X0.185000X-0.135000X0.185000X0.135000X-0.185000X0.135000X-0.185000X-0.135000X0*%
%ADD19RoundRect,0.140000X0.140000X0.170000X-0.140000X0.170000X-0.140000X-0.170000X0.140000X-0.170000X0*%
%ADD20RoundRect,0.150000X-0.350000X0.150000X-0.350000X-0.150000X0.350000X-0.150000X0.350000X0.150000X0*%
%ADD21RoundRect,0.075000X-0.500000X0.075000X-0.500000X-0.075000X0.500000X-0.075000X0.500000X0.075000X0*%
%ADD22O,2.100000X1.000000*%
%ADD23O,1.800000X1.000000*%
%ADD24RoundRect,0.150000X-0.512500X-0.150000X0.512500X-0.150000X0.512500X0.150000X-0.512500X0.150000X0*%
%ADD25RoundRect,0.250000X-0.970000X-0.310000X0.970000X-0.310000X0.970000X0.310000X-0.970000X0.310000X0*%
%ADD26RoundRect,0.250000X0.750000X-0.275000X0.750000X0.275000X-0.750000X0.275000X-0.750000X-0.275000X0*%
%ADD27RoundRect,0.250000X-0.625000X0.312500X-0.625000X-0.312500X0.625000X-0.312500X0.625000X0.312500X0*%
%ADD28RoundRect,0.075000X0.075000X-0.700000X0.075000X0.700000X-0.075000X0.700000X-0.075000X-0.700000X0*%
%ADD29RoundRect,0.075000X0.700000X-0.075000X0.700000X0.075000X-0.700000X0.075000X-0.700000X-0.075000X0*%
%ADD30RoundRect,0.250000X-0.450000X-0.350000X0.450000X-0.350000X0.450000X0.350000X-0.450000X0.350000X0*%
%ADD31RoundRect,0.045000X-0.450000X-0.105000X0.450000X-0.105000X0.450000X0.105000X-0.450000X0.105000X0*%
%ADD32RoundRect,0.150000X-0.150000X0.512500X-0.150000X-0.512500X0.150000X-0.512500X0.150000X0.512500X0*%
%ADD33RoundRect,0.218750X-0.218750X-0.256250X0.218750X-0.256250X0.218750X0.256250X-0.218750X0.256250X0*%
G04 APERTURE END LIST*
D10*
%TO.C,R3*%
X13000000Y15750000D03*
X11000000Y15750000D03*
%TD*%
D11*
%TO.C,R5*%
X9575000Y11250000D03*
X7925000Y11250000D03*
%TD*%
D12*
%TO.C,R2*%
X4490000Y25000000D03*
X5510000Y25000000D03*
%TD*%
D13*
%TO.C,C6*%
X22590000Y8900000D03*
X23550000Y8900000D03*
%TD*%
D14*
%TO.C,C12*%
X26250000Y15250000D03*
X26250000Y16210000D03*
%TD*%
D15*
%TO.C,C7*%
X25600000Y10550000D03*
X25600000Y12450000D03*
%TD*%
D16*
%TO.C,D4*%
X45887500Y18050000D03*
X45887500Y19000000D03*
X45887500Y19950000D03*
X43612500Y19950000D03*
X43612500Y19000000D03*
X43612500Y18050000D03*
%TD*%
D17*
%TO.C,C2*%
X13000000Y14230000D03*
X13000000Y13270000D03*
%TD*%
D18*
%TO.C,R8*%
X32750000Y10490000D03*
X32750000Y11510000D03*
%TD*%
D19*
%TO.C,C4*%
X17387500Y9250000D03*
X16427500Y9250000D03*
%TD*%
D20*
%TO.C,J1*%
X7255000Y22200000D03*
X7255000Y21400000D03*
D21*
X7180000Y20250000D03*
X7180000Y19250000D03*
X7180000Y18750000D03*
X7180000Y17750000D03*
D20*
X7255000Y16600000D03*
X7255000Y15800000D03*
X7255000Y15800000D03*
X7255000Y16600000D03*
D21*
X7180000Y17250000D03*
X7180000Y18250000D03*
X7180000Y19750000D03*
X7180000Y20750000D03*
D20*
X7255000Y21400000D03*
X7255000Y22200000D03*
D22*
X6605000Y23320000D03*
D23*
X2425000Y23320000D03*
D22*
X6605000Y14680000D03*
D23*
X2425000Y14680000D03*
%TD*%
D24*
%TO.C,D1*%
X10862500Y19450000D03*
X10862500Y18500000D03*
X10862500Y17550000D03*
X13137500Y17550000D03*
X13137500Y18500000D03*
X13137500Y19450000D03*
%TD*%
D25*
%TO.C,SW1*%
X29445000Y33770000D03*
X29445000Y31230000D03*
X38055000Y31230000D03*
X38055000Y33770000D03*
%TD*%
D13*
%TO.C,C14*%
X32770000Y9400000D03*
X33730000Y9400000D03*
%TD*%
%TO.C,C11*%
X36020000Y11500000D03*
X36980000Y11500000D03*
%TD*%
D12*
%TO.C,R1*%
X4490000Y13000000D03*
X5510000Y13000000D03*
%TD*%
D26*
%TO.C,SW2*%
X21000000Y16800000D03*
X21000000Y21250000D03*
%TD*%
D27*
%TO.C,R4*%
X19700000Y12962500D03*
X19700000Y10037500D03*
%TD*%
D28*
%TO.C,U1*%
X30000000Y13325000D03*
X30500000Y13325000D03*
X31000000Y13325000D03*
X31500000Y13325000D03*
X32000000Y13325000D03*
X32500000Y13325000D03*
X33000000Y13325000D03*
X33500000Y13325000D03*
X34000000Y13325000D03*
X34500000Y13325000D03*
X35000000Y13325000D03*
X35500000Y13325000D03*
X36000000Y13325000D03*
X36500000Y13325000D03*
X37000000Y13325000D03*
X37500000Y13325000D03*
D29*
X39425000Y15250000D03*
X39425000Y15750000D03*
X39425000Y16250000D03*
X39425000Y16750000D03*
X39425000Y17250000D03*
X39425000Y17750000D03*
X39425000Y18250000D03*
X39425000Y18750000D03*
X39425000Y19250000D03*
X39425000Y19750000D03*
X39425000Y20250000D03*
X39425000Y20750000D03*
X39425000Y21250000D03*
X39425000Y21750000D03*
X39425000Y22250000D03*
X39425000Y22750000D03*
D28*
X37500000Y24675000D03*
X37000000Y24675000D03*
X36500000Y24675000D03*
X36000000Y24675000D03*
X35500000Y24675000D03*
X35000000Y24675000D03*
X34500000Y24675000D03*
X34000000Y24675000D03*
X33500000Y24675000D03*
X33000000Y24675000D03*
X32500000Y24675000D03*
X32000000Y24675000D03*
X31500000Y24675000D03*
X31000000Y24675000D03*
X30500000Y24675000D03*
X30000000Y24675000D03*
D29*
X28075000Y22750000D03*
X28075000Y22250000D03*
X28075000Y21750000D03*
X28075000Y21250000D03*
X28075000Y20750000D03*
X28075000Y20250000D03*
X28075000Y19750000D03*
X28075000Y19250000D03*
X28075000Y18750000D03*
X28075000Y18250000D03*
X28075000Y17750000D03*
X28075000Y17250000D03*
X28075000Y16750000D03*
X28075000Y16250000D03*
X28075000Y15750000D03*
X28075000Y15250000D03*
%TD*%
D11*
%TO.C,R6*%
X42075000Y33750000D03*
X40425000Y33750000D03*
%TD*%
D13*
%TO.C,C8*%
X29540000Y26500000D03*
X30500000Y26500000D03*
%TD*%
D17*
%TO.C,C1*%
X11000000Y14210000D03*
X11000000Y13250000D03*
%TD*%
D19*
%TO.C,C13*%
X31730000Y9400000D03*
X30770000Y9400000D03*
%TD*%
D30*
%TO.C,X1*%
X31150000Y6150000D03*
X33350000Y6150000D03*
X33350000Y7850000D03*
X31150000Y7850000D03*
%TD*%
D31*
%TO.C,D3*%
X23195000Y26500000D03*
X23195000Y26000000D03*
X23195000Y25500000D03*
X24805000Y25500000D03*
X24805000Y26000000D03*
X24805000Y26500000D03*
%TD*%
D32*
%TO.C,U3*%
X23550000Y12637500D03*
X22600000Y12637500D03*
X21650000Y12637500D03*
X21650000Y10362500D03*
X23550000Y10362500D03*
%TD*%
D15*
%TO.C,C3*%
X15000000Y14050000D03*
X15000000Y15950000D03*
%TD*%
D24*
%TO.C,U2*%
X15112500Y12450000D03*
X15112500Y11500000D03*
X15112500Y10550000D03*
X17387500Y10550000D03*
X17387500Y12450000D03*
%TD*%
D19*
%TO.C,C15*%
X21000000Y22700000D03*
X20040000Y22700000D03*
%TD*%
D15*
%TO.C,C5*%
X17500000Y14050000D03*
X17500000Y15950000D03*
%TD*%
D33*
%TO.C,D2*%
X4712500Y11250000D03*
X6287500Y11250000D03*
%TD*%
D17*
%TO.C,C10*%
X41250000Y16250000D03*
X41250000Y15290000D03*
%TD*%
%TO.C,C9*%
X41250000Y23210000D03*
X41250000Y22250000D03*
%TD*%
D11*
%TO.C,R7*%
X42075000Y31250000D03*
X40425000Y31250000D03*
%TD*%
M02*
