%TF.GenerationSoftware,KiCad,Pcbnew,9.0.6*%
%TF.CreationDate,2025-12-11T07:51:36+01:00*%
%TF.ProjectId,ch32-baseboard-kicad,63683332-2d62-4617-9365-626f6172642d,rev?*%
%TF.SameCoordinates,PX5b8d800PY8954400*%
%TF.FileFunction,Legend,Top*%
%TF.FilePolarity,Positive*%
%FSLAX46Y46*%
G04 Gerber Fmt 4.6, Leading zero omitted, Abs format (unit mm)*
G04 Created by KiCad (PCBNEW 9.0.6) date 2025-12-11 07:51:36*
%MOMM*%
%LPD*%
G01*
G04 APERTURE LIST*
%ADD10C,0.100000*%
%ADD11C,0.150000*%
%ADD12C,0.120000*%
%ADD13C,0.000000*%
G04 APERTURE END LIST*
D10*
G36*
X38850476Y4722324D02*
G01*
X38916904Y4707274D01*
X38976060Y4683012D01*
X39029847Y4649013D01*
X39074310Y4607509D01*
X39110369Y4557936D01*
X39136464Y4502440D01*
X39152597Y4439728D01*
X39158217Y4368305D01*
X39151012Y4288524D01*
X39130187Y4218050D01*
X39096081Y4155081D01*
X39049900Y4100488D01*
X38994914Y4058236D01*
X38929898Y4027440D01*
X39175069Y3502000D01*
X38976939Y3502000D01*
X38748621Y4005678D01*
X38572327Y4005678D01*
X38572327Y3502000D01*
X38392735Y3502000D01*
X38392735Y4166805D01*
X38572327Y4166805D01*
X38775439Y4166805D01*
X38833705Y4173217D01*
X38881035Y4191273D01*
X38919860Y4220514D01*
X38949107Y4259382D01*
X38967161Y4306717D01*
X38973569Y4364935D01*
X38967048Y4424238D01*
X38948692Y4472355D01*
X38918981Y4511774D01*
X38879633Y4541640D01*
X38832528Y4559921D01*
X38775439Y4566362D01*
X38572327Y4566362D01*
X38572327Y4166805D01*
X38392735Y4166805D01*
X38392735Y4727562D01*
X38775439Y4727562D01*
X38850476Y4722324D01*
G37*
G36*
X39835768Y4436883D02*
G01*
X39901285Y4421796D01*
X39958796Y4397615D01*
X40010890Y4363700D01*
X40053987Y4322217D01*
X40088928Y4272538D01*
X40114122Y4217162D01*
X40129681Y4154950D01*
X40135090Y4084520D01*
X40135090Y3918337D01*
X39560924Y3918337D01*
X39560924Y3842793D01*
X39567493Y3780023D01*
X39585695Y3730668D01*
X39614633Y3691704D01*
X39653494Y3662541D01*
X39701339Y3644447D01*
X39760739Y3637995D01*
X39832184Y3645414D01*
X39886622Y3665692D01*
X39916506Y3687239D01*
X39936147Y3712446D01*
X39947072Y3742042D01*
X40126664Y3742042D01*
X40112235Y3686005D01*
X40088031Y3636820D01*
X40053764Y3593336D01*
X40008328Y3554904D01*
X39938677Y3517100D01*
X39857067Y3493533D01*
X39760739Y3485221D01*
X39676840Y3491953D01*
X39604840Y3511102D01*
X39542645Y3541812D01*
X39488677Y3584213D01*
X39444881Y3636763D01*
X39413153Y3698094D01*
X39393316Y3769925D01*
X39386315Y3854589D01*
X39386315Y4072796D01*
X39387285Y4084520D01*
X39560924Y4084520D01*
X39560924Y4045905D01*
X39960481Y4045905D01*
X39960481Y4086205D01*
X39954016Y4152578D01*
X39936270Y4204074D01*
X39908457Y4244035D01*
X39870422Y4273968D01*
X39822195Y4292687D01*
X39760739Y4299429D01*
X39699353Y4292599D01*
X39651097Y4273606D01*
X39612948Y4243155D01*
X39585104Y4202701D01*
X39567370Y4150904D01*
X39560924Y4084520D01*
X39387285Y4084520D01*
X39393315Y4157421D01*
X39413150Y4229228D01*
X39444878Y4290549D01*
X39488677Y4343100D01*
X39542649Y4385535D01*
X39604846Y4416267D01*
X39676845Y4435429D01*
X39760739Y4442164D01*
X39835768Y4436883D01*
G37*
G36*
X40651957Y3502000D02*
G01*
X40339668Y4425385D01*
X40531057Y4425385D01*
X40720760Y3834439D01*
X40750949Y3731125D01*
X40771099Y3646348D01*
X40788757Y3731125D01*
X40816454Y3834439D01*
X41004473Y4425385D01*
X41195861Y4425385D01*
X40885258Y3502000D01*
X40651957Y3502000D01*
G37*
G36*
X42412557Y3502000D02*
G01*
X42412557Y3666498D01*
X42837320Y4111411D01*
X42900507Y4187690D01*
X42939682Y4252388D01*
X42963957Y4318321D01*
X42971629Y4380029D01*
X42965383Y4439538D01*
X42947821Y4487977D01*
X42919532Y4527747D01*
X42881609Y4557919D01*
X42834915Y4576523D01*
X42776870Y4583141D01*
X42717753Y4576371D01*
X42669609Y4557240D01*
X42629958Y4526062D01*
X42600305Y4485002D01*
X42581912Y4434919D01*
X42575369Y4373288D01*
X42394092Y4373288D01*
X42401636Y4446981D01*
X42418893Y4511702D01*
X42445310Y4568853D01*
X42481471Y4620152D01*
X42525958Y4663047D01*
X42579619Y4698180D01*
X42638866Y4723349D01*
X42705285Y4738926D01*
X42780240Y4744342D01*
X42855275Y4739083D01*
X42921106Y4724033D01*
X42979176Y4699865D01*
X43031835Y4665932D01*
X43075465Y4624443D01*
X43110921Y4574788D01*
X43136562Y4519295D01*
X43152431Y4456552D01*
X43157962Y4385085D01*
X43153080Y4325557D01*
X43138019Y4263685D01*
X43111800Y4198679D01*
X43076954Y4137638D01*
X43026229Y4069189D01*
X42956461Y3992196D01*
X42637505Y3666498D01*
X43171371Y3666498D01*
X43171371Y3502000D01*
X42412557Y3502000D01*
G37*
G36*
X11767086Y3687221D02*
G01*
X11681221Y3693870D01*
X11608264Y3712684D01*
X11545966Y3742650D01*
X11492606Y3783721D01*
X11448966Y3835081D01*
X11417512Y3894554D01*
X11397936Y3963729D01*
X11391050Y4044793D01*
X11391050Y4588770D01*
X11397976Y4670761D01*
X11417612Y4740314D01*
X11449071Y4799720D01*
X11492606Y4850647D01*
X11545915Y4891345D01*
X11608194Y4921067D01*
X11681170Y4939740D01*
X11767086Y4946342D01*
X11852029Y4939713D01*
X11924440Y4920926D01*
X11986502Y4890944D01*
X12039881Y4849768D01*
X12083519Y4798444D01*
X12114972Y4738996D01*
X12134550Y4669835D01*
X12141437Y4588770D01*
X11960160Y4588770D01*
X11953810Y4650536D01*
X11936379Y4698123D01*
X11908942Y4734803D01*
X11871899Y4761987D01*
X11825507Y4779020D01*
X11767086Y4785141D01*
X11707523Y4778981D01*
X11660622Y4761912D01*
X11623545Y4734803D01*
X11596107Y4698123D01*
X11578677Y4650536D01*
X11572327Y4588770D01*
X11572327Y4044793D01*
X11578675Y3983025D01*
X11596104Y3935411D01*
X11623545Y3898686D01*
X11660622Y3871577D01*
X11707523Y3854508D01*
X11767086Y3848348D01*
X11825507Y3854469D01*
X11871899Y3871503D01*
X11908942Y3898686D01*
X11936382Y3935411D01*
X11953812Y3983025D01*
X11960160Y4044793D01*
X12141437Y4044793D01*
X12134551Y3963729D01*
X12114975Y3894554D01*
X12083521Y3835081D01*
X12039881Y3783721D01*
X11986506Y3742580D01*
X11924446Y3712620D01*
X11852033Y3693845D01*
X11767086Y3687221D01*
G37*
G36*
X12399797Y3704000D02*
G01*
X12399797Y4929562D01*
X12581074Y4929562D01*
X12581074Y4419217D01*
X12940331Y4419217D01*
X12940331Y4929562D01*
X13121681Y4929562D01*
X13121681Y3704000D01*
X12940331Y3704000D01*
X12940331Y4256331D01*
X12581074Y4256331D01*
X12581074Y3704000D01*
X12399797Y3704000D01*
G37*
G36*
X13752634Y3687221D02*
G01*
X13664862Y3693817D01*
X13590789Y3712411D01*
X13528042Y3741878D01*
X13474783Y3782036D01*
X13431121Y3832603D01*
X13399677Y3891248D01*
X13380112Y3959559D01*
X13373227Y4039737D01*
X13554577Y4039737D01*
X13560984Y3982695D01*
X13579025Y3936517D01*
X13608286Y3898760D01*
X13647017Y3870577D01*
X13694839Y3853013D01*
X13754319Y3846736D01*
X13813799Y3853013D01*
X13861621Y3870577D01*
X13900352Y3898760D01*
X13929656Y3936523D01*
X13947720Y3982701D01*
X13954134Y4039737D01*
X13954134Y4127078D01*
X13947638Y4186385D01*
X13929498Y4233589D01*
X13900352Y4271425D01*
X13861615Y4299651D01*
X13813794Y4317238D01*
X13754319Y4323522D01*
X13611657Y4323522D01*
X13611657Y4474611D01*
X13902110Y4768362D01*
X13411842Y4768362D01*
X13411842Y4929562D01*
X14103538Y4929562D01*
X14103538Y4770047D01*
X13814769Y4477908D01*
X13888225Y4464758D01*
X13950798Y4442085D01*
X14004216Y4410426D01*
X14049755Y4369611D01*
X14086553Y4320754D01*
X14113135Y4265231D01*
X14129638Y4201784D01*
X14135411Y4128763D01*
X14135411Y4039737D01*
X14128432Y3959667D01*
X14108582Y3891393D01*
X14076631Y3832709D01*
X14032170Y3782036D01*
X13978136Y3741826D01*
X13914809Y3712357D01*
X13840406Y3693794D01*
X13752634Y3687221D01*
G37*
G36*
X14405495Y3704000D02*
G01*
X14405495Y3868498D01*
X14830258Y4313411D01*
X14893444Y4389690D01*
X14932620Y4454388D01*
X14956895Y4520321D01*
X14964567Y4582029D01*
X14958320Y4641538D01*
X14940759Y4689977D01*
X14912470Y4729747D01*
X14874547Y4759919D01*
X14827853Y4778523D01*
X14769808Y4785141D01*
X14710690Y4778371D01*
X14662547Y4759240D01*
X14622896Y4728062D01*
X14593243Y4687002D01*
X14574850Y4636919D01*
X14568307Y4575288D01*
X14387030Y4575288D01*
X14394574Y4648981D01*
X14411831Y4713702D01*
X14438248Y4770853D01*
X14474409Y4822152D01*
X14518896Y4865047D01*
X14572557Y4900180D01*
X14631804Y4925349D01*
X14698223Y4940926D01*
X14773178Y4946342D01*
X14848213Y4941083D01*
X14914044Y4926033D01*
X14972114Y4901865D01*
X15024773Y4867932D01*
X15068403Y4826443D01*
X15103859Y4776788D01*
X15129499Y4721295D01*
X15145369Y4658552D01*
X15150900Y4587085D01*
X15146018Y4527557D01*
X15130957Y4465685D01*
X15104738Y4400679D01*
X15069892Y4339638D01*
X15019167Y4271189D01*
X14949399Y4194196D01*
X14630443Y3868498D01*
X15164309Y3868498D01*
X15164309Y3704000D01*
X14405495Y3704000D01*
G37*
G36*
X15661025Y3704000D02*
G01*
X15350422Y4929562D01*
X15535143Y4929562D01*
X15733199Y4113669D01*
X15765073Y3969248D01*
X15785223Y3860145D01*
X15806252Y3970054D01*
X15839005Y4115281D01*
X16028709Y4929562D01*
X16215041Y4929562D01*
X15902752Y3704000D01*
X15661025Y3704000D01*
G37*
G36*
X16773820Y3687221D02*
G01*
X16686048Y3693817D01*
X16611975Y3712411D01*
X16549228Y3741878D01*
X16495969Y3782036D01*
X16452307Y3832603D01*
X16420863Y3891248D01*
X16401298Y3959559D01*
X16394413Y4039737D01*
X16575764Y4039737D01*
X16582171Y3982695D01*
X16600211Y3936517D01*
X16629473Y3898760D01*
X16668204Y3870577D01*
X16716025Y3853013D01*
X16775505Y3846736D01*
X16834985Y3853013D01*
X16882807Y3870577D01*
X16921538Y3898760D01*
X16950843Y3936523D01*
X16968906Y3982701D01*
X16975321Y4039737D01*
X16975321Y4127078D01*
X16968824Y4186385D01*
X16950684Y4233589D01*
X16921538Y4271425D01*
X16882802Y4299651D01*
X16834980Y4317238D01*
X16775505Y4323522D01*
X16632843Y4323522D01*
X16632843Y4474611D01*
X16923297Y4768362D01*
X16433028Y4768362D01*
X16433028Y4929562D01*
X17124724Y4929562D01*
X17124724Y4770047D01*
X16835956Y4477908D01*
X16909411Y4464758D01*
X16971984Y4442085D01*
X17025402Y4410426D01*
X17070942Y4369611D01*
X17107739Y4320754D01*
X17134321Y4265231D01*
X17150824Y4201784D01*
X17156598Y4128763D01*
X17156598Y4039737D01*
X17149619Y3959667D01*
X17129768Y3891393D01*
X17097818Y3832709D01*
X17053356Y3782036D01*
X16999323Y3741826D01*
X16935996Y3712357D01*
X16861592Y3693794D01*
X16773820Y3687221D01*
G37*
G36*
X17839502Y4414021D02*
G01*
X17872400Y4394817D01*
X17894085Y4364426D01*
X17901782Y4321837D01*
X17894042Y4277572D01*
X17872400Y4246220D01*
X17839436Y4226396D01*
X17796050Y4219402D01*
X17752600Y4226399D01*
X17719626Y4246220D01*
X17697984Y4277572D01*
X17690244Y4321837D01*
X17697941Y4364426D01*
X17719626Y4394817D01*
X17752534Y4414019D01*
X17796050Y4420829D01*
X17839502Y4414021D01*
G37*
G36*
X17882611Y4939533D02*
G01*
X17956198Y4920253D01*
X18019091Y4889503D01*
X18073021Y4847277D01*
X18117158Y4794670D01*
X18148882Y4734310D01*
X18168558Y4664684D01*
X18175457Y4583714D01*
X18175457Y4051534D01*
X18169913Y3978925D01*
X18154029Y3915340D01*
X18128415Y3859266D01*
X18092940Y3809044D01*
X18049303Y3766997D01*
X17996671Y3732504D01*
X17938537Y3707934D01*
X17872181Y3692595D01*
X17796050Y3687221D01*
X17709444Y3694027D01*
X17635831Y3713296D01*
X17572930Y3744023D01*
X17519005Y3786213D01*
X17474948Y3838806D01*
X17443217Y3899418D01*
X17423496Y3969614D01*
X17416570Y4051534D01*
X17416570Y4583714D01*
X17589494Y4583714D01*
X17589494Y4051534D01*
X17596168Y3991161D01*
X17615052Y3941595D01*
X17645767Y3900445D01*
X17686484Y3869286D01*
X17735757Y3850139D01*
X17796050Y3843365D01*
X17856340Y3850141D01*
X17905587Y3869289D01*
X17946259Y3900445D01*
X17976974Y3941595D01*
X17995858Y3991161D01*
X18002533Y4051534D01*
X18002533Y4583714D01*
X17995899Y4642957D01*
X17977054Y4692003D01*
X17946259Y4733118D01*
X17905587Y4764274D01*
X17856340Y4783422D01*
X17796050Y4790197D01*
X17735757Y4783423D01*
X17686484Y4764277D01*
X17645767Y4733118D01*
X17614973Y4692003D01*
X17596127Y4642957D01*
X17589494Y4583714D01*
X17416570Y4583714D01*
X17423468Y4664684D01*
X17443144Y4734310D01*
X17474868Y4794670D01*
X17519005Y4847277D01*
X17572934Y4889500D01*
X17635837Y4920250D01*
X17709448Y4939531D01*
X17796050Y4946342D01*
X17882611Y4939533D01*
G37*
G36*
X18371608Y3704000D02*
G01*
X18695621Y4180787D01*
X18391758Y4627385D01*
X18599926Y4627385D01*
X18762812Y4372176D01*
X18786259Y4329311D01*
X18804797Y4291576D01*
X18820697Y4329311D01*
X18845024Y4372176D01*
X19006224Y4627385D01*
X19216078Y4627385D01*
X18912215Y4179102D01*
X19234542Y3704000D01*
X19026374Y3704000D01*
X18846709Y3980972D01*
X18823189Y4026328D01*
X18804797Y4066628D01*
X18784574Y4026328D01*
X18759441Y3980972D01*
X18579776Y3704000D01*
X18371608Y3704000D01*
G37*
G36*
X20874865Y4924084D02*
G01*
X20944269Y4908444D01*
X21005181Y4883400D01*
X21060460Y4848081D01*
X21106351Y4804633D01*
X21143740Y4752388D01*
X21170816Y4694045D01*
X21187488Y4628772D01*
X21193272Y4555138D01*
X21193272Y4081722D01*
X21187416Y4005827D01*
X21170677Y3939779D01*
X21143740Y3881907D01*
X21106442Y3830198D01*
X21060557Y3786748D01*
X21005181Y3750968D01*
X20944222Y3725473D01*
X20874822Y3709568D01*
X20795401Y3704000D01*
X20452923Y3704000D01*
X20452923Y3866813D01*
X20634200Y3866813D01*
X20795401Y3866813D01*
X20859151Y3873653D01*
X20910853Y3892879D01*
X20953157Y3923892D01*
X20985018Y3965375D01*
X21004832Y4017001D01*
X21011922Y4081722D01*
X21011922Y4555138D01*
X21004932Y4617609D01*
X20985206Y4668501D01*
X20953157Y4710403D01*
X20910787Y4741931D01*
X20859085Y4761432D01*
X20795401Y4768362D01*
X20634200Y4768362D01*
X20634200Y3866813D01*
X20452923Y3866813D01*
X20452923Y4929562D01*
X20795401Y4929562D01*
X20874865Y4924084D01*
G37*
G36*
X21899327Y4638883D02*
G01*
X21964844Y4623796D01*
X22022355Y4599615D01*
X22074449Y4565700D01*
X22117546Y4524217D01*
X22152487Y4474538D01*
X22177681Y4419162D01*
X22193240Y4356950D01*
X22198649Y4286520D01*
X22198649Y4120337D01*
X21624483Y4120337D01*
X21624483Y4044793D01*
X21631052Y3982023D01*
X21649254Y3932668D01*
X21678192Y3893704D01*
X21717053Y3864541D01*
X21764898Y3846447D01*
X21824298Y3839995D01*
X21895743Y3847414D01*
X21950181Y3867692D01*
X21980065Y3889239D01*
X21999706Y3914446D01*
X22010631Y3944042D01*
X22190223Y3944042D01*
X22175794Y3888005D01*
X22151590Y3838820D01*
X22117323Y3795336D01*
X22071887Y3756904D01*
X22002236Y3719100D01*
X21920626Y3695533D01*
X21824298Y3687221D01*
X21740399Y3693953D01*
X21668399Y3713102D01*
X21606204Y3743812D01*
X21552236Y3786213D01*
X21508440Y3838763D01*
X21476712Y3900094D01*
X21456875Y3971925D01*
X21449874Y4056589D01*
X21449874Y4274796D01*
X21450844Y4286520D01*
X21624483Y4286520D01*
X21624483Y4247905D01*
X22024040Y4247905D01*
X22024040Y4288205D01*
X22017575Y4354578D01*
X21999829Y4406074D01*
X21972016Y4446035D01*
X21933981Y4475968D01*
X21885754Y4494687D01*
X21824298Y4501429D01*
X21762912Y4494599D01*
X21714656Y4475606D01*
X21676507Y4445155D01*
X21648663Y4404701D01*
X21630929Y4352904D01*
X21624483Y4286520D01*
X21450844Y4286520D01*
X21456874Y4359421D01*
X21476709Y4431228D01*
X21508437Y4492549D01*
X21552236Y4545100D01*
X21606208Y4587535D01*
X21668405Y4618267D01*
X21740404Y4637429D01*
X21824298Y4644164D01*
X21899327Y4638883D01*
G37*
G36*
X22715516Y3704000D02*
G01*
X22403227Y4627385D01*
X22594616Y4627385D01*
X22784319Y4036439D01*
X22814508Y3933125D01*
X22834658Y3848348D01*
X22852316Y3933125D01*
X22880013Y4036439D01*
X23068032Y4627385D01*
X23259420Y4627385D01*
X22948817Y3704000D01*
X22715516Y3704000D01*
G37*
G36*
X23925081Y4923588D02*
G01*
X23997980Y4906811D01*
X24059412Y4880408D01*
X24111217Y4844786D01*
X24154474Y4799044D01*
X24185321Y4746099D01*
X24204394Y4684521D01*
X24211088Y4612218D01*
X24204420Y4549371D01*
X24184914Y4493073D01*
X24152323Y4441785D01*
X24109159Y4399321D01*
X24058741Y4369645D01*
X23999549Y4352026D01*
X23999549Y4346970D01*
X24066296Y4330115D01*
X24124626Y4296631D01*
X24172986Y4249348D01*
X24209403Y4190825D01*
X24231889Y4124269D01*
X24239665Y4048163D01*
X24232787Y3970710D01*
X24213172Y3904348D01*
X24181489Y3846982D01*
X24137229Y3797130D01*
X24083658Y3757590D01*
X24021126Y3728645D01*
X23947927Y3710438D01*
X23861870Y3704000D01*
X23477480Y3704000D01*
X23477480Y3860145D01*
X23653702Y3860145D01*
X23846775Y3860145D01*
X23910818Y3866582D01*
X23961927Y3884491D01*
X24002920Y3912975D01*
X24034115Y3951563D01*
X24053231Y3998600D01*
X24060000Y4056589D01*
X24053244Y4116903D01*
X24034109Y4166468D01*
X24002920Y4207678D01*
X23961602Y4238631D01*
X23910490Y4257880D01*
X23846775Y4264758D01*
X23653702Y4264758D01*
X23653702Y3860145D01*
X23477480Y3860145D01*
X23477480Y4415846D01*
X23653702Y4415846D01*
X23836737Y4415846D01*
X23894238Y4421633D01*
X23940711Y4437820D01*
X23978520Y4463693D01*
X24007398Y4498734D01*
X24025128Y4541845D01*
X24031423Y4595438D01*
X24025256Y4648018D01*
X24007837Y4690634D01*
X23979399Y4725571D01*
X23942086Y4751414D01*
X23895910Y4767613D01*
X23838422Y4773418D01*
X23653702Y4773418D01*
X23653702Y4415846D01*
X23477480Y4415846D01*
X23477480Y4929562D01*
X23838422Y4929562D01*
X23925081Y4923588D01*
G37*
G36*
X24931257Y4635714D02*
G01*
X25004008Y4616577D01*
X25066036Y4586080D01*
X25119085Y4544220D01*
X25162025Y4492204D01*
X25193271Y4430993D01*
X25212888Y4358773D01*
X25219836Y4273111D01*
X25219836Y4058201D01*
X25212881Y3973525D01*
X25193185Y3901699D01*
X25161700Y3840398D01*
X25118279Y3787898D01*
X25064748Y3745595D01*
X25002632Y3714881D01*
X24930276Y3695675D01*
X24845484Y3688906D01*
X24760695Y3695674D01*
X24688325Y3714878D01*
X24626183Y3745593D01*
X24572616Y3787898D01*
X24529196Y3840398D01*
X24497711Y3901699D01*
X24478014Y3973525D01*
X24471060Y4058201D01*
X24471060Y4273111D01*
X24472017Y4284908D01*
X24652411Y4284908D01*
X24652411Y4046478D01*
X24658732Y3984690D01*
X24676126Y3936775D01*
X24703555Y3899566D01*
X24740668Y3871874D01*
X24787083Y3854562D01*
X24845484Y3848348D01*
X24903835Y3854562D01*
X24950201Y3871873D01*
X24987267Y3899566D01*
X25014739Y3936781D01*
X25032156Y3984696D01*
X25038485Y4046478D01*
X25038485Y4284908D01*
X25032155Y4346688D01*
X25014736Y4394576D01*
X24987267Y4431746D01*
X24950201Y4459439D01*
X24903835Y4476750D01*
X24845484Y4482964D01*
X24787083Y4476750D01*
X24740668Y4459438D01*
X24703555Y4431746D01*
X24676129Y4394582D01*
X24658733Y4346694D01*
X24652411Y4284908D01*
X24472017Y4284908D01*
X24478007Y4358773D01*
X24497625Y4430993D01*
X24528871Y4492204D01*
X24571810Y4544220D01*
X24624895Y4586083D01*
X24686949Y4616580D01*
X24759714Y4635715D01*
X24845484Y4642479D01*
X24931257Y4635714D01*
G37*
G36*
X25941979Y4638327D02*
G01*
X26013286Y4622056D01*
X26072307Y4596667D01*
X26121092Y4562685D01*
X26161557Y4518900D01*
X26190650Y4467516D01*
X26208775Y4407019D01*
X26215174Y4335246D01*
X26215174Y3704000D01*
X26037194Y3704000D01*
X26037194Y3876924D01*
X26035509Y3876924D01*
X26020763Y3821416D01*
X25993093Y3775589D01*
X25951538Y3737559D01*
X25901035Y3710696D01*
X25838240Y3693457D01*
X25760150Y3687221D01*
X25690220Y3692698D01*
X25630709Y3708213D01*
X25579792Y3732961D01*
X25536081Y3766942D01*
X25500104Y3809377D01*
X25474389Y3857540D01*
X25458526Y3912555D01*
X25452990Y3975989D01*
X25454224Y3989398D01*
X25634267Y3989398D01*
X25639781Y3944535D01*
X25655440Y3907957D01*
X25681235Y3877730D01*
X25714873Y3855751D01*
X25757693Y3841720D01*
X25812247Y3836624D01*
X25878816Y3842723D01*
X25931842Y3859606D01*
X25974180Y3886157D01*
X26007142Y3922732D01*
X26026914Y3966455D01*
X26033824Y4019587D01*
X26033824Y4138802D01*
X25792096Y4138802D01*
X25745679Y4133779D01*
X25707973Y4119649D01*
X25677058Y4096816D01*
X25653466Y4066568D01*
X25639226Y4031266D01*
X25634267Y3989398D01*
X25454224Y3989398D01*
X25458877Y4039972D01*
X25475765Y4095387D01*
X25503249Y4143896D01*
X25541943Y4186649D01*
X25588419Y4220585D01*
X25642354Y4245385D01*
X25705151Y4260951D01*
X25778614Y4266443D01*
X26033824Y4266443D01*
X26033824Y4333561D01*
X26026225Y4392436D01*
X26005564Y4435013D01*
X25972416Y4465570D01*
X25923880Y4485525D01*
X25854232Y4493076D01*
X25801165Y4489284D01*
X25758733Y4478865D01*
X25724905Y4462814D01*
X25697061Y4439574D01*
X25680131Y4412038D01*
X25672882Y4378917D01*
X25494902Y4378917D01*
X25504607Y4434397D01*
X25524847Y4483919D01*
X25555908Y4528687D01*
X25599023Y4569426D01*
X25648305Y4600781D01*
X25706393Y4624086D01*
X25774913Y4638898D01*
X25855844Y4644164D01*
X25941979Y4638327D01*
G37*
G36*
X26530540Y3704000D02*
G01*
X26530540Y4627385D01*
X26710132Y4627385D01*
X26710132Y4446035D01*
X26725364Y4504406D01*
X26751598Y4552160D01*
X26789047Y4591261D01*
X26835400Y4619765D01*
X26892150Y4637731D01*
X26961971Y4644164D01*
X27032329Y4638062D01*
X27091387Y4620825D01*
X27141284Y4593272D01*
X27183548Y4555138D01*
X27216559Y4508850D01*
X27241133Y4453070D01*
X27256839Y4385905D01*
X27262463Y4304984D01*
X27262463Y4222772D01*
X27081186Y4222772D01*
X27081186Y4300002D01*
X27075349Y4360622D01*
X27059558Y4406103D01*
X27035171Y4440030D01*
X27001775Y4464644D01*
X26957274Y4480494D01*
X26898224Y4486335D01*
X26840034Y4479868D01*
X26794862Y4461981D01*
X26759665Y4433432D01*
X26734275Y4395408D01*
X26717857Y4345391D01*
X26711817Y4279852D01*
X26711817Y3704000D01*
X26530540Y3704000D01*
G37*
G36*
X28229298Y3704000D02*
G01*
X28049633Y3704000D01*
X28049633Y3878610D01*
X28031485Y3821492D01*
X28003311Y3775085D01*
X27964856Y3737559D01*
X27918292Y3710234D01*
X27863291Y3693228D01*
X27797794Y3687221D01*
X27730533Y3693460D01*
X27672564Y3711326D01*
X27622077Y3740363D01*
X27577829Y3781230D01*
X27543072Y3830181D01*
X27517495Y3887611D01*
X27501342Y3955126D01*
X27495617Y4034754D01*
X27495617Y4293261D01*
X27676967Y4293261D01*
X27676967Y4039737D01*
X27683293Y3973225D01*
X27700104Y3925285D01*
X27725621Y3891213D01*
X27760705Y3866404D01*
X27805147Y3850721D01*
X27861615Y3845051D01*
X27917526Y3851385D01*
X27962280Y3869148D01*
X27998415Y3897880D01*
X28024909Y3936023D01*
X28041800Y3985069D01*
X28047948Y4048163D01*
X28047948Y4284908D01*
X28041835Y4346853D01*
X28024976Y4395365D01*
X27998415Y4433432D01*
X27962274Y4462207D01*
X27917521Y4479993D01*
X27861615Y4486335D01*
X27805147Y4480665D01*
X27760705Y4464982D01*
X27725621Y4440173D01*
X27700039Y4406133D01*
X27683259Y4358660D01*
X27676967Y4293261D01*
X27495617Y4293261D01*
X27495617Y4294946D01*
X27501365Y4375499D01*
X27517555Y4443558D01*
X27543137Y4501221D01*
X27577829Y4550155D01*
X27622077Y4591022D01*
X27672564Y4620060D01*
X27730533Y4637925D01*
X27797794Y4644164D01*
X27862175Y4638218D01*
X27917259Y4621247D01*
X27964856Y4593753D01*
X28004488Y4556185D01*
X28033758Y4509778D01*
X28053004Y4452776D01*
X28047948Y4666000D01*
X28047948Y4929562D01*
X28229298Y4929562D01*
X28229298Y3704000D01*
G37*
D11*
X16740833Y7640420D02*
X16693214Y7592800D01*
X16693214Y7592800D02*
X16550357Y7545181D01*
X16550357Y7545181D02*
X16455119Y7545181D01*
X16455119Y7545181D02*
X16312262Y7592800D01*
X16312262Y7592800D02*
X16217024Y7688039D01*
X16217024Y7688039D02*
X16169405Y7783277D01*
X16169405Y7783277D02*
X16121786Y7973753D01*
X16121786Y7973753D02*
X16121786Y8116610D01*
X16121786Y8116610D02*
X16169405Y8307086D01*
X16169405Y8307086D02*
X16217024Y8402324D01*
X16217024Y8402324D02*
X16312262Y8497562D01*
X16312262Y8497562D02*
X16455119Y8545181D01*
X16455119Y8545181D02*
X16550357Y8545181D01*
X16550357Y8545181D02*
X16693214Y8497562D01*
X16693214Y8497562D02*
X16740833Y8449943D01*
X17597976Y8211848D02*
X17597976Y7545181D01*
X17359881Y8592800D02*
X17121786Y7878515D01*
X17121786Y7878515D02*
X17740833Y7878515D01*
D10*
X23515905Y23637581D02*
X23515905Y24637581D01*
X23515905Y24637581D02*
X23754000Y24637581D01*
X23754000Y24637581D02*
X23896857Y24589962D01*
X23896857Y24589962D02*
X23992095Y24494724D01*
X23992095Y24494724D02*
X24039714Y24399486D01*
X24039714Y24399486D02*
X24087333Y24209010D01*
X24087333Y24209010D02*
X24087333Y24066153D01*
X24087333Y24066153D02*
X24039714Y23875677D01*
X24039714Y23875677D02*
X23992095Y23780439D01*
X23992095Y23780439D02*
X23896857Y23685200D01*
X23896857Y23685200D02*
X23754000Y23637581D01*
X23754000Y23637581D02*
X23515905Y23637581D01*
X24420667Y24637581D02*
X25039714Y24637581D01*
X25039714Y24637581D02*
X24706381Y24256629D01*
X24706381Y24256629D02*
X24849238Y24256629D01*
X24849238Y24256629D02*
X24944476Y24209010D01*
X24944476Y24209010D02*
X24992095Y24161391D01*
X24992095Y24161391D02*
X25039714Y24066153D01*
X25039714Y24066153D02*
X25039714Y23828058D01*
X25039714Y23828058D02*
X24992095Y23732820D01*
X24992095Y23732820D02*
X24944476Y23685200D01*
X24944476Y23685200D02*
X24849238Y23637581D01*
X24849238Y23637581D02*
X24563524Y23637581D01*
X24563524Y23637581D02*
X24468286Y23685200D01*
X24468286Y23685200D02*
X24420667Y23732820D01*
D12*
%TO.C,R3*%
X11772936Y15015000D02*
X12227064Y15015000D01*
X11772936Y16485000D02*
X12227064Y16485000D01*
%TO.C,R5*%
X8987258Y11772500D02*
X8512742Y11772500D01*
X8987258Y10727500D02*
X8512742Y10727500D01*
%TO.C,R2*%
X4846359Y25380000D02*
X5153641Y25380000D01*
X4846359Y24620000D02*
X5153641Y24620000D01*
%TO.C,C6*%
X22962164Y9260000D02*
X23177836Y9260000D01*
X22962164Y8540000D02*
X23177836Y8540000D01*
%TO.C,C12*%
X25890000Y15622164D02*
X25890000Y15837836D01*
X26610000Y15622164D02*
X26610000Y15837836D01*
%TO.C,C7*%
X24865000Y11238748D02*
X24865000Y11761252D01*
X26335000Y11238748D02*
X26335000Y11761252D01*
%TO.C,D4*%
X43840000Y20560000D02*
X45660000Y20560000D01*
X43840000Y20510000D02*
X43840000Y20560000D01*
X43840000Y17440000D02*
X43840000Y17490000D01*
X45660000Y20560000D02*
X45660000Y20510000D01*
X45660000Y17490000D02*
X45660000Y17440000D01*
X45660000Y17440000D02*
X43840000Y17440000D01*
X46440000Y17160000D02*
X45960000Y17160000D01*
X46200000Y17490000D01*
X46440000Y17160000D01*
G36*
X46440000Y17160000D02*
G01*
X45960000Y17160000D01*
X46200000Y17490000D01*
X46440000Y17160000D01*
G37*
%TO.C,C2*%
X12640000Y13857836D02*
X12640000Y13642164D01*
X13360000Y13857836D02*
X13360000Y13642164D01*
%TO.C,R8*%
X32370000Y10846359D02*
X32370000Y11153641D01*
X33130000Y10846359D02*
X33130000Y11153641D01*
%TO.C,C4*%
X17015336Y9610000D02*
X16799664Y9610000D01*
X17015336Y8890000D02*
X16799664Y8890000D01*
%TO.C,J1*%
X3600000Y23670000D02*
X5300000Y23670000D01*
X3600000Y14330000D02*
X5300000Y14330000D01*
%TO.C,D1*%
X11090000Y20060000D02*
X12910000Y20060000D01*
X11090000Y20010000D02*
X11090000Y20060000D01*
X11090000Y16940000D02*
X11090000Y16990000D01*
X12910000Y20060000D02*
X12910000Y20010000D01*
X12910000Y16990000D02*
X12910000Y16940000D01*
X12910000Y16940000D02*
X11090000Y16940000D01*
X10550000Y20010000D02*
X10310000Y20340000D01*
X10790000Y20340000D01*
X10550000Y20010000D01*
G36*
X10550000Y20010000D02*
G01*
X10310000Y20340000D01*
X10790000Y20340000D01*
X10550000Y20010000D01*
G37*
%TO.C,SW1*%
X30100000Y36120000D02*
X30100000Y34737000D01*
X30100000Y36120000D02*
X31483000Y36120000D01*
X30340000Y35880000D02*
X30340000Y34570000D01*
X30340000Y35880000D02*
X37160000Y35880000D01*
X30340000Y32970000D02*
X30340000Y32030000D01*
X30340000Y30430000D02*
X30340000Y29120000D01*
X30340000Y29120000D02*
X37160000Y29120000D01*
X33146667Y34405000D02*
X33146667Y33135000D01*
X33146667Y31865000D02*
X33146667Y30595000D01*
X37160000Y35880000D02*
X37160000Y34570000D01*
X37160000Y32970000D02*
X37160000Y32030000D01*
X37160000Y30430000D02*
X37160000Y29120000D01*
X31940000Y34405000D02*
X33146667Y34405000D01*
X33146667Y33135000D01*
X31940000Y33135000D01*
X31940000Y34405000D01*
G36*
X31940000Y34405000D02*
G01*
X33146667Y34405000D01*
X33146667Y33135000D01*
X31940000Y33135000D01*
X31940000Y34405000D01*
G37*
X31940000Y34405000D02*
X35560000Y34405000D01*
X35560000Y33135000D01*
X31940000Y33135000D01*
X31940000Y34405000D01*
X31940000Y31865000D02*
X33146667Y31865000D01*
X33146667Y30595000D01*
X31940000Y30595000D01*
X31940000Y31865000D01*
G36*
X31940000Y31865000D02*
G01*
X33146667Y31865000D01*
X33146667Y30595000D01*
X31940000Y30595000D01*
X31940000Y31865000D01*
G37*
X31940000Y31865000D02*
X35560000Y31865000D01*
X35560000Y30595000D01*
X31940000Y30595000D01*
X31940000Y31865000D01*
%TO.C,C14*%
X33142164Y9760000D02*
X33357836Y9760000D01*
X33142164Y9040000D02*
X33357836Y9040000D01*
%TO.C,C11*%
X36392164Y11860000D02*
X36607836Y11860000D01*
X36392164Y11140000D02*
X36607836Y11140000D01*
%TO.C,J2*%
X18520000Y30270000D02*
X19155000Y30270000D01*
X19155000Y30270000D02*
X19155000Y29635000D01*
%TO.C,R1*%
X4846359Y13380000D02*
X5153641Y13380000D01*
X4846359Y12620000D02*
X5153641Y12620000D01*
%TO.C,SW2*%
X19350000Y21125000D02*
X19740000Y21125000D01*
X19350000Y16925000D02*
X19350000Y21125000D01*
X19740000Y16925000D02*
X19350000Y16925000D01*
X22260000Y16925000D02*
X22650000Y16925000D01*
X22650000Y21125000D02*
X22260000Y21125000D01*
X22650000Y16925000D02*
X22650000Y21125000D01*
%TO.C,R4*%
X18790000Y12227064D02*
X18790000Y10772936D01*
X20610000Y12227064D02*
X20610000Y10772936D01*
%TO.C,U1*%
X28640000Y24110000D02*
X29590000Y24110000D01*
X28640000Y23160000D02*
X28640000Y24110000D01*
X28640000Y13890000D02*
X28640000Y14840000D01*
X29590000Y13890000D02*
X28640000Y13890000D01*
X37910000Y24110000D02*
X38860000Y24110000D01*
X38860000Y24110000D02*
X38860000Y23160000D01*
X38860000Y14840000D02*
X38860000Y13890000D01*
X38860000Y13890000D02*
X37910000Y13890000D01*
X29590000Y13250000D02*
X29120000Y12910000D01*
X29120000Y13590000D01*
X29590000Y13250000D01*
G36*
X29590000Y13250000D02*
G01*
X29120000Y12910000D01*
X29120000Y13590000D01*
X29590000Y13250000D01*
G37*
%TO.C,J3*%
X48600000Y17500000D02*
X48600000Y17000000D01*
X48890000Y21860000D02*
X54610000Y21860000D01*
X48890000Y20790000D02*
X48890000Y21860000D01*
X48890000Y17210000D02*
X48890000Y16140000D01*
X48890000Y16140000D02*
X54610000Y16140000D01*
X48900000Y17500000D02*
X48600000Y17500000D01*
X49190000Y20790000D02*
X48890000Y20790000D01*
X49190000Y19000000D02*
X49190000Y20790000D01*
X49190000Y19000000D02*
X49190000Y17210000D01*
X49190000Y17210000D02*
X48890000Y17210000D01*
X54610000Y21860000D02*
X54610000Y19000000D01*
X54610000Y16140000D02*
X54610000Y19000000D01*
D13*
%TO.C,kibuzzard-692C82B7*%
G36*
X32073333Y28654170D02*
G01*
X32113881Y28616545D01*
X32127397Y28553836D01*
X32118630Y28496164D01*
X32092329Y28456849D01*
X32047397Y28434247D01*
X31982740Y28426712D01*
X31950959Y28426712D01*
X31950959Y28657945D01*
X32005753Y28666712D01*
X32073333Y28654170D01*
G37*
G36*
X32064384Y28324521D02*
G01*
X32110959Y28297397D01*
X32138082Y28250548D01*
X32147123Y28182329D01*
X32138767Y28115068D01*
X32113699Y28068904D01*
X32071644Y28042192D01*
X32012329Y28033288D01*
X31950959Y28042055D01*
X31950959Y28333562D01*
X31996986Y28333562D01*
X32064384Y28324521D01*
G37*
G36*
X35900822Y28648630D02*
G01*
X35953151Y28597671D01*
X35975677Y28541172D01*
X35989193Y28462268D01*
X35993699Y28360959D01*
X35989254Y28249056D01*
X35975921Y28163212D01*
X35953699Y28103425D01*
X35901507Y28050822D01*
X35824932Y28033288D01*
X35775616Y28043151D01*
X35775616Y28655753D01*
X35824932Y28665616D01*
X35900822Y28648630D01*
G37*
G36*
X32638904Y28648767D02*
G01*
X32677534Y28598219D01*
X32693973Y28540685D01*
X32703836Y28457945D01*
X32707123Y28350000D01*
X32703836Y28242055D01*
X32693973Y28159315D01*
X32677534Y28101781D01*
X32638904Y28051233D01*
X32582192Y28034384D01*
X32525479Y28051233D01*
X32486849Y28101781D01*
X32470411Y28159315D01*
X32460548Y28242055D01*
X32457260Y28350000D01*
X32460548Y28457945D01*
X32470411Y28540685D01*
X32486849Y28598219D01*
X32525479Y28648767D01*
X32582192Y28665616D01*
X32638904Y28648767D01*
G37*
G36*
X33186849Y28648767D02*
G01*
X33225479Y28598219D01*
X33241918Y28540685D01*
X33251781Y28457945D01*
X33255068Y28350000D01*
X33251781Y28242055D01*
X33241918Y28159315D01*
X33225479Y28101781D01*
X33186849Y28051233D01*
X33130137Y28034384D01*
X33073425Y28051233D01*
X33034795Y28101781D01*
X33018356Y28159315D01*
X33008493Y28242055D01*
X33005205Y28350000D01*
X33008493Y28457945D01*
X33018356Y28540685D01*
X33034795Y28598219D01*
X33073425Y28648767D01*
X33130137Y28665616D01*
X33186849Y28648767D01*
G37*
G36*
X35378630Y28648767D02*
G01*
X35417260Y28598219D01*
X35433699Y28540685D01*
X35443562Y28457945D01*
X35446849Y28350000D01*
X35443562Y28242055D01*
X35433699Y28159315D01*
X35417260Y28101781D01*
X35378630Y28051233D01*
X35321918Y28034384D01*
X35265205Y28051233D01*
X35226575Y28101781D01*
X35210137Y28159315D01*
X35200274Y28242055D01*
X35196986Y28350000D01*
X35200274Y28457945D01*
X35210137Y28540685D01*
X35226575Y28598219D01*
X35265205Y28648767D01*
X35321918Y28665616D01*
X35378630Y28648767D01*
G37*
G36*
X37220000Y27555479D02*
G01*
X37219909Y27555479D01*
X36611781Y27555479D01*
X35824932Y27555479D01*
X35321918Y27555479D01*
X34631507Y27555479D01*
X33739452Y27555479D01*
X33130137Y27555479D01*
X32582192Y27555479D01*
X32012329Y27555479D01*
X31220091Y27555479D01*
X31220000Y27555479D01*
X31220000Y28739041D01*
X31828219Y28739041D01*
X31828219Y27960959D01*
X31888615Y27948782D01*
X31949985Y27941476D01*
X32012329Y27939041D01*
X32090015Y27945738D01*
X32153577Y27965830D01*
X32203014Y27999315D01*
X32238326Y28046195D01*
X32259513Y28106469D01*
X32266575Y28180137D01*
X32256027Y28253562D01*
X32224384Y28316027D01*
X32189089Y28350000D01*
X32341096Y28350000D01*
X32344079Y28254049D01*
X32353029Y28172222D01*
X32367945Y28104521D01*
X32400959Y28026986D01*
X32446301Y27976301D01*
X32506027Y27948356D01*
X32582192Y27939041D01*
X32658356Y27948356D01*
X32718082Y27976301D01*
X32763425Y28026986D01*
X32796438Y28104521D01*
X32811355Y28172222D01*
X32820304Y28254049D01*
X32823288Y28350000D01*
X32889041Y28350000D01*
X32892024Y28254049D01*
X32900974Y28172222D01*
X32915890Y28104521D01*
X32948904Y28026986D01*
X32994247Y27976301D01*
X33053973Y27948356D01*
X33130137Y27939041D01*
X33206301Y27948356D01*
X33266027Y27976301D01*
X33311370Y28026986D01*
X33344384Y28104521D01*
X33359300Y28172222D01*
X33368250Y28254049D01*
X33371233Y28350000D01*
X33368250Y28445951D01*
X33359300Y28527778D01*
X33344384Y28595479D01*
X33319186Y28654658D01*
X33453425Y28654658D01*
X33616712Y28654658D01*
X33616712Y27950000D01*
X33739452Y27950000D01*
X34524110Y27950000D01*
X34631507Y27950000D01*
X34650137Y28629452D01*
X34653425Y28629452D01*
X34715890Y28136301D01*
X34820000Y28136301D01*
X34887945Y28629452D01*
X34889041Y28629452D01*
X34905479Y27950000D01*
X35022740Y27950000D01*
X35002466Y28350000D01*
X35080822Y28350000D01*
X35083805Y28254049D01*
X35092755Y28172222D01*
X35107671Y28104521D01*
X35140685Y28026986D01*
X35186027Y27976301D01*
X35245753Y27948356D01*
X35321918Y27939041D01*
X35398082Y27948356D01*
X35457808Y27976301D01*
X35503151Y28026986D01*
X35536164Y28104521D01*
X35551081Y28172222D01*
X35560030Y28254049D01*
X35563014Y28350000D01*
X35560030Y28445951D01*
X35551081Y28527778D01*
X35536164Y28595479D01*
X35503151Y28673014D01*
X35457808Y28723699D01*
X35425018Y28739041D01*
X35652877Y28739041D01*
X35652877Y27960959D01*
X35735342Y27944521D01*
X35824932Y27939041D01*
X35915890Y27948493D01*
X35919676Y27950000D01*
X36228219Y27950000D01*
X36611781Y27950000D01*
X36611781Y28045342D01*
X36350959Y28045342D01*
X36350959Y28333562D01*
X36600822Y28333562D01*
X36600822Y28426712D01*
X36350959Y28426712D01*
X36350959Y28654658D01*
X36611781Y28654658D01*
X36611781Y28750000D01*
X36228219Y28750000D01*
X36228219Y27950000D01*
X35919676Y27950000D01*
X35987123Y27976849D01*
X36041233Y28028493D01*
X36080822Y28107808D01*
X36098782Y28177336D01*
X36109559Y28261720D01*
X36113151Y28360959D01*
X36108938Y28463390D01*
X36096301Y28549315D01*
X36075240Y28618733D01*
X36045753Y28671644D01*
X35991263Y28721263D01*
X35917656Y28751035D01*
X35824932Y28760959D01*
X35738630Y28755479D01*
X35652877Y28739041D01*
X35425018Y28739041D01*
X35398082Y28751644D01*
X35321918Y28760959D01*
X35245753Y28751644D01*
X35186027Y28723699D01*
X35140685Y28673014D01*
X35107671Y28595479D01*
X35092755Y28527778D01*
X35083805Y28445951D01*
X35080822Y28350000D01*
X35002466Y28350000D01*
X34982192Y28750000D01*
X34844110Y28750000D01*
X34778356Y28240411D01*
X34776164Y28240411D01*
X34709315Y28750000D01*
X34565753Y28750000D01*
X34524110Y27950000D01*
X33739452Y27950000D01*
X33739452Y28654658D01*
X33902740Y28654658D01*
X33902740Y28750000D01*
X33453425Y28750000D01*
X33453425Y28654658D01*
X33319186Y28654658D01*
X33311370Y28673014D01*
X33266027Y28723699D01*
X33206301Y28751644D01*
X33130137Y28760959D01*
X33053973Y28751644D01*
X32994247Y28723699D01*
X32948904Y28673014D01*
X32915890Y28595479D01*
X32900974Y28527778D01*
X32892024Y28445951D01*
X32889041Y28350000D01*
X32823288Y28350000D01*
X32820304Y28445951D01*
X32811355Y28527778D01*
X32796438Y28595479D01*
X32763425Y28673014D01*
X32718082Y28723699D01*
X32658356Y28751644D01*
X32582192Y28760959D01*
X32506027Y28751644D01*
X32446301Y28723699D01*
X32400959Y28673014D01*
X32367945Y28595479D01*
X32353029Y28527778D01*
X32344079Y28445951D01*
X32341096Y28350000D01*
X32189089Y28350000D01*
X32176849Y28361781D01*
X32118630Y28385068D01*
X32118630Y28386164D01*
X32170000Y28408630D01*
X32210137Y28447534D01*
X32236027Y28499589D01*
X32244658Y28561507D01*
X32235101Y28633310D01*
X32206433Y28689156D01*
X32158652Y28729047D01*
X32091759Y28752981D01*
X32005753Y28760959D01*
X31915342Y28755479D01*
X31828219Y28739041D01*
X31220000Y28739041D01*
X31220000Y29144521D01*
X31220091Y29144521D01*
X37219909Y29144521D01*
X37220000Y29144521D01*
X37220000Y27555479D01*
G37*
D12*
%TO.C,R6*%
X41487258Y34272500D02*
X41012742Y34272500D01*
X41487258Y33227500D02*
X41012742Y33227500D01*
%TO.C,C8*%
X29912164Y26860000D02*
X30127836Y26860000D01*
X29912164Y26140000D02*
X30127836Y26140000D01*
%TO.C,C1*%
X10640000Y13837836D02*
X10640000Y13622164D01*
X11360000Y13837836D02*
X11360000Y13622164D01*
D13*
%TO.C,kibuzzard-692C82FA*%
G36*
X23378630Y20666986D02*
G01*
X23420000Y20641096D01*
X23444658Y20596575D01*
X23452877Y20532055D01*
X23444110Y20464658D01*
X23417808Y20420274D01*
X23370685Y20395616D01*
X23299452Y20387397D01*
X23256712Y20387397D01*
X23256712Y20666849D01*
X23320274Y20675616D01*
X23378630Y20666986D01*
G37*
G36*
X25150000Y19565479D02*
G01*
X25149909Y19565479D01*
X24502740Y19565479D01*
X23876986Y19565479D01*
X23594247Y19565479D01*
X22650091Y19565479D01*
X22650000Y19565479D01*
X22650000Y20749041D01*
X23133973Y20749041D01*
X23133973Y19960000D01*
X23256712Y19960000D01*
X23256712Y20292055D01*
X23299452Y20292055D01*
X23365753Y20270685D01*
X23386712Y20239863D01*
X23404658Y20190137D01*
X23468219Y19960000D01*
X23594247Y19960000D01*
X23526301Y20183562D01*
X23491233Y20269589D01*
X23449589Y20323836D01*
X23449589Y20326027D01*
X23503288Y20357397D01*
X23541644Y20402192D01*
X23564658Y20460411D01*
X23572329Y20532055D01*
X23569571Y20562740D01*
X23685205Y20562740D01*
X23696575Y20484932D01*
X23730685Y20420274D01*
X23768371Y20382283D01*
X23820791Y20345753D01*
X23887945Y20310685D01*
X23934932Y20282466D01*
X23966301Y20250411D01*
X23983973Y20211507D01*
X23989863Y20162740D01*
X23982192Y20111644D01*
X23959178Y20074521D01*
X23922466Y20051918D01*
X23873699Y20044384D01*
X23809528Y20052298D01*
X23748524Y20076043D01*
X23690685Y20115616D01*
X23690685Y20001644D01*
X23746941Y19972420D01*
X23809041Y19954886D01*
X23876986Y19949041D01*
X23961808Y19957808D01*
X24027781Y19984110D01*
X24074904Y20027945D01*
X24103178Y20089315D01*
X24112603Y20168219D01*
X24100822Y20252877D01*
X24065479Y20320548D01*
X24025419Y20359635D01*
X23968067Y20397991D01*
X23893425Y20435616D01*
X23844718Y20468371D01*
X23815495Y20512572D01*
X23805753Y20568219D01*
X23813425Y20613151D01*
X23836438Y20647123D01*
X23872877Y20668493D01*
X23920822Y20675616D01*
X24006027Y20663836D01*
X24090685Y20628493D01*
X24090685Y20664658D01*
X24216712Y20664658D01*
X24380000Y20664658D01*
X24380000Y19960000D01*
X24502740Y19960000D01*
X24502740Y20664658D01*
X24666027Y20664658D01*
X24666027Y20760000D01*
X24216712Y20760000D01*
X24216712Y20664658D01*
X24090685Y20664658D01*
X24090685Y20738082D01*
X24031750Y20756347D01*
X23970381Y20767306D01*
X23906575Y20770959D01*
X23841126Y20764871D01*
X23786514Y20746606D01*
X23742740Y20716164D01*
X23699589Y20650411D01*
X23685205Y20562740D01*
X23569571Y20562740D01*
X23565571Y20607245D01*
X23545297Y20667702D01*
X23511507Y20713425D01*
X23463227Y20745388D01*
X23399482Y20764566D01*
X23320274Y20770959D01*
X23257199Y20768524D01*
X23195099Y20761218D01*
X23133973Y20749041D01*
X22650000Y20749041D01*
X22650000Y21154521D01*
X22650091Y21154521D01*
X25149909Y21154521D01*
X25150000Y21154521D01*
X25150000Y19565479D01*
G37*
D12*
%TO.C,C13*%
X31357836Y9760000D02*
X31142164Y9760000D01*
X31357836Y9040000D02*
X31142164Y9040000D01*
%TO.C,X1*%
X30190000Y8710000D02*
X30190000Y5290000D01*
X30190000Y5290000D02*
X34310000Y5290000D01*
D13*
%TO.C,kibuzzard-692C8041*%
G36*
X2220000Y11550000D02*
G01*
X2261233Y11519589D01*
X2285479Y11466438D01*
X2293562Y11388082D01*
X2285479Y11303836D01*
X2261233Y11248356D01*
X2220000Y11217534D01*
X2160959Y11207260D01*
X2097397Y11214932D01*
X2097397Y11551370D01*
X2160959Y11560137D01*
X2220000Y11550000D01*
G37*
G36*
X3309726Y11551507D02*
G01*
X3351096Y11525616D01*
X3375753Y11481096D01*
X3383973Y11416575D01*
X3375205Y11349178D01*
X3348904Y11304795D01*
X3301781Y11280137D01*
X3230548Y11271918D01*
X3187808Y11271918D01*
X3187808Y11551370D01*
X3251370Y11560137D01*
X3309726Y11551507D01*
G37*
G36*
X4000000Y10460959D02*
G01*
X3999909Y10460959D01*
X3525342Y10460959D01*
X2920411Y10460959D01*
X2097397Y10460959D01*
X1500091Y10460959D01*
X1500000Y10460959D01*
X1500000Y11633562D01*
X1974658Y11633562D01*
X1974658Y10844521D01*
X2097397Y10844521D01*
X2097397Y11118493D01*
X2160959Y11113014D01*
X2239072Y11120320D01*
X2302451Y11142237D01*
X2351096Y11178767D01*
X2385495Y11231248D01*
X2406134Y11301020D01*
X2413014Y11388082D01*
X2406317Y11473623D01*
X2386225Y11541750D01*
X2352740Y11592466D01*
X2304642Y11627473D01*
X2252758Y11644521D01*
X2465616Y11644521D01*
X2536849Y10844521D01*
X2655205Y10844521D01*
X2719863Y11381507D01*
X2723151Y11381507D01*
X2777945Y10844521D01*
X2920411Y10844521D01*
X2990668Y11633562D01*
X3065068Y11633562D01*
X3065068Y10844521D01*
X3187808Y10844521D01*
X3187808Y11176575D01*
X3230548Y11176575D01*
X3296849Y11155205D01*
X3317808Y11124384D01*
X3335753Y11074658D01*
X3399315Y10844521D01*
X3525342Y10844521D01*
X3457397Y11068082D01*
X3422329Y11154110D01*
X3380685Y11208356D01*
X3380685Y11210548D01*
X3434384Y11241918D01*
X3472740Y11286712D01*
X3495753Y11344932D01*
X3503425Y11416575D01*
X3496667Y11491766D01*
X3476393Y11552222D01*
X3442603Y11597945D01*
X3394323Y11629909D01*
X3330578Y11649087D01*
X3251370Y11655479D01*
X3188295Y11653044D01*
X3126195Y11645738D01*
X3065068Y11633562D01*
X2990668Y11633562D01*
X2991644Y11644521D01*
X2882055Y11644521D01*
X2841507Y10959589D01*
X2839315Y10959589D01*
X2781233Y11513014D01*
X2683699Y11513014D01*
X2623425Y11036301D01*
X2621233Y11036301D01*
X2582877Y11644521D01*
X2465616Y11644521D01*
X2252758Y11644521D01*
X2240715Y11648478D01*
X2160959Y11655479D01*
X2097884Y11653044D01*
X2035784Y11645738D01*
X1974658Y11633562D01*
X1500000Y11633562D01*
X1500000Y12039041D01*
X1500091Y12039041D01*
X3999909Y12039041D01*
X4000000Y12039041D01*
X4000000Y10460959D01*
G37*
D12*
%TO.C,D3*%
X23432216Y26812800D02*
X24567784Y26812800D01*
X24762000Y25187200D02*
X23238000Y25187200D01*
X23187200Y26812800D02*
X23047200Y27002800D01*
X23327200Y27002800D01*
X23187200Y26812800D01*
G36*
X23187200Y26812800D02*
G01*
X23047200Y27002800D01*
X23327200Y27002800D01*
X23187200Y26812800D01*
G37*
%TO.C,U3*%
X21040000Y12410000D02*
X21090000Y12410000D01*
X21040000Y10590000D02*
X21040000Y12410000D01*
X21090000Y10590000D02*
X21040000Y10590000D01*
X22990000Y10590000D02*
X22210000Y10590000D01*
X24110000Y12410000D02*
X24160000Y12410000D01*
X24160000Y12410000D02*
X24160000Y10590000D01*
X24160000Y10590000D02*
X24110000Y10590000D01*
X24440000Y12710000D02*
X24110000Y12950000D01*
X24440000Y13190000D01*
X24440000Y12710000D01*
G36*
X24440000Y12710000D02*
G01*
X24110000Y12950000D01*
X24440000Y13190000D01*
X24440000Y12710000D01*
G37*
D13*
%TO.C,kibuzzard-6935C0F9*%
G36*
X25169543Y34036149D02*
G01*
X25205023Y34003227D01*
X25216849Y33948356D01*
X25209178Y33897894D01*
X25186164Y33863493D01*
X25146849Y33843716D01*
X25090274Y33837123D01*
X25062466Y33837123D01*
X25062466Y34039452D01*
X25110411Y34047123D01*
X25169543Y34036149D01*
G37*
G36*
X27098219Y34032260D02*
G01*
X27126986Y33975205D01*
X26963014Y33690411D01*
X26961096Y33770000D01*
X26962374Y33838189D01*
X26966210Y33895723D01*
X26972603Y33942603D01*
X26985908Y33994863D01*
X27002808Y34026986D01*
X27053151Y34049041D01*
X27098219Y34032260D01*
G37*
G36*
X25161712Y33747705D02*
G01*
X25202466Y33723973D01*
X25226199Y33682979D01*
X25234110Y33623288D01*
X25226798Y33564435D01*
X25204863Y33524041D01*
X25168065Y33500668D01*
X25116164Y33492877D01*
X25062466Y33500548D01*
X25062466Y33755616D01*
X25102740Y33755616D01*
X25161712Y33747705D01*
G37*
G36*
X27144486Y33822021D02*
G01*
X27145205Y33770000D01*
X27143927Y33701811D01*
X27140091Y33644277D01*
X27133699Y33597397D01*
X27120394Y33545137D01*
X27103493Y33513014D01*
X27053151Y33490959D01*
X27005205Y33510616D01*
X26975479Y33578219D01*
X27142329Y33866849D01*
X27144486Y33822021D01*
G37*
G36*
X25664418Y34031421D02*
G01*
X25698219Y33987192D01*
X25712603Y33936849D01*
X25721233Y33864452D01*
X25724110Y33770000D01*
X25721233Y33675548D01*
X25712603Y33603151D01*
X25698219Y33552808D01*
X25664418Y33508579D01*
X25614795Y33493836D01*
X25565171Y33508579D01*
X25531370Y33552808D01*
X25516986Y33603151D01*
X25508356Y33675548D01*
X25505479Y33770000D01*
X25508356Y33864452D01*
X25516986Y33936849D01*
X25531370Y33987192D01*
X25565171Y34031421D01*
X25614795Y34046164D01*
X25664418Y34031421D01*
G37*
G36*
X26143870Y34031421D02*
G01*
X26177671Y33987192D01*
X26192055Y33936849D01*
X26200685Y33864452D01*
X26203562Y33770000D01*
X26200685Y33675548D01*
X26192055Y33603151D01*
X26177671Y33552808D01*
X26143870Y33508579D01*
X26094247Y33493836D01*
X26044623Y33508579D01*
X26010822Y33552808D01*
X25996438Y33603151D01*
X25987808Y33675548D01*
X25984932Y33770000D01*
X25987808Y33864452D01*
X25996438Y33936849D01*
X26010822Y33987192D01*
X26044623Y34031421D01*
X26094247Y34046164D01*
X26143870Y34031421D01*
G37*
G36*
X27750000Y33074795D02*
G01*
X27749920Y33074795D01*
X27053151Y33074795D01*
X26627397Y33074795D01*
X26094247Y33074795D01*
X25614795Y33074795D01*
X25116164Y33074795D01*
X24450080Y33074795D01*
X24450000Y33074795D01*
X24450000Y34110411D01*
X24955068Y34110411D01*
X24955068Y33429589D01*
X25007915Y33418935D01*
X25061613Y33412542D01*
X25116164Y33410411D01*
X25184140Y33416271D01*
X25239756Y33433851D01*
X25283014Y33463151D01*
X25313912Y33504170D01*
X25332451Y33556910D01*
X25338630Y33621370D01*
X25329401Y33685616D01*
X25301712Y33740274D01*
X25270829Y33770000D01*
X25403836Y33770000D01*
X25406446Y33686043D01*
X25414277Y33614444D01*
X25427329Y33555205D01*
X25456216Y33487363D01*
X25495890Y33443014D01*
X25548151Y33418562D01*
X25614795Y33410411D01*
X25681438Y33418562D01*
X25733699Y33443014D01*
X25773373Y33487363D01*
X25802260Y33555205D01*
X25815312Y33614444D01*
X25823143Y33686043D01*
X25825753Y33770000D01*
X25883288Y33770000D01*
X25885898Y33686043D01*
X25893729Y33614444D01*
X25906781Y33555205D01*
X25935668Y33487363D01*
X25975342Y33443014D01*
X26027603Y33418562D01*
X26094247Y33410411D01*
X26160890Y33418562D01*
X26213151Y33443014D01*
X26252825Y33487363D01*
X26281712Y33555205D01*
X26294764Y33614444D01*
X26302595Y33686043D01*
X26305205Y33770000D01*
X26302595Y33853957D01*
X26294764Y33925556D01*
X26281712Y33984795D01*
X26259664Y34036575D01*
X26377123Y34036575D01*
X26520000Y34036575D01*
X26520000Y33420000D01*
X26627397Y33420000D01*
X26627397Y33770000D01*
X26861370Y33770000D01*
X26863874Y33684924D01*
X26871385Y33612527D01*
X26883904Y33552808D01*
X26910873Y33484966D01*
X26946712Y33441575D01*
X26993459Y33418202D01*
X27053151Y33410411D01*
X27112842Y33418202D01*
X27159589Y33441575D01*
X27195428Y33484966D01*
X27222397Y33552808D01*
X27234916Y33612527D01*
X27242428Y33684924D01*
X27244932Y33770000D01*
X27242428Y33855076D01*
X27234916Y33927473D01*
X27222397Y33987192D01*
X27195428Y34055034D01*
X27159589Y34098425D01*
X27112842Y34121798D01*
X27053151Y34129589D01*
X26993459Y34121798D01*
X26946712Y34098425D01*
X26910873Y34055034D01*
X26883904Y33987192D01*
X26871385Y33927473D01*
X26863874Y33855076D01*
X26861370Y33770000D01*
X26627397Y33770000D01*
X26627397Y34036575D01*
X26770274Y34036575D01*
X26770274Y34120000D01*
X26377123Y34120000D01*
X26377123Y34036575D01*
X26259664Y34036575D01*
X26252825Y34052637D01*
X26213151Y34096986D01*
X26160890Y34121438D01*
X26094247Y34129589D01*
X26027603Y34121438D01*
X25975342Y34096986D01*
X25935668Y34052637D01*
X25906781Y33984795D01*
X25893729Y33925556D01*
X25885898Y33853957D01*
X25883288Y33770000D01*
X25825753Y33770000D01*
X25823143Y33853957D01*
X25815312Y33925556D01*
X25802260Y33984795D01*
X25773373Y34052637D01*
X25733699Y34096986D01*
X25681438Y34121438D01*
X25614795Y34129589D01*
X25548151Y34121438D01*
X25495890Y34096986D01*
X25456216Y34052637D01*
X25427329Y33984795D01*
X25414277Y33925556D01*
X25406446Y33853957D01*
X25403836Y33770000D01*
X25270829Y33770000D01*
X25260120Y33780308D01*
X25209178Y33800685D01*
X25209178Y33801644D01*
X25254127Y33821301D01*
X25289247Y33855342D01*
X25311901Y33900890D01*
X25319452Y33955068D01*
X25311090Y34017896D01*
X25286005Y34066762D01*
X25244197Y34101666D01*
X25185666Y34122608D01*
X25110411Y34129589D01*
X25031301Y34124795D01*
X24955068Y34110411D01*
X24450000Y34110411D01*
X24450000Y34465205D01*
X24450080Y34465205D01*
X27749920Y34465205D01*
X27750000Y34465205D01*
X27750000Y33074795D01*
G37*
D12*
%TO.C,C3*%
X14265000Y14738748D02*
X14265000Y15261252D01*
X15735000Y14738748D02*
X15735000Y15261252D01*
%TO.C,U2*%
X15340000Y13060000D02*
X17160000Y13060000D01*
X15340000Y13010000D02*
X15340000Y13060000D01*
X15340000Y9940000D02*
X15340000Y9990000D01*
X17160000Y13060000D02*
X17160000Y13010000D01*
X17160000Y11890000D02*
X17160000Y11110000D01*
X17160000Y9990000D02*
X17160000Y9940000D01*
X17160000Y9940000D02*
X15340000Y9940000D01*
X14800000Y13010000D02*
X14560000Y13340000D01*
X15040000Y13340000D01*
X14800000Y13010000D01*
G36*
X14800000Y13010000D02*
G01*
X14560000Y13340000D01*
X15040000Y13340000D01*
X14800000Y13010000D01*
G37*
D13*
%TO.C,kibuzzard-692C811E*%
G36*
X50095616Y15303562D02*
G01*
X49945479Y15303562D01*
X50020000Y15679452D01*
X50021096Y15679452D01*
X50095616Y15303562D01*
G37*
G36*
X50604384Y15706986D02*
G01*
X50645753Y15681096D01*
X50670411Y15636575D01*
X50678630Y15572055D01*
X50669863Y15504658D01*
X50643562Y15460274D01*
X50596438Y15435616D01*
X50525205Y15427397D01*
X50482466Y15427397D01*
X50482466Y15706849D01*
X50546027Y15715616D01*
X50604384Y15706986D01*
G37*
G36*
X51750000Y14605479D02*
G01*
X51749909Y14605479D01*
X51180548Y14605479D01*
X50820000Y14605479D01*
X49762466Y14605479D01*
X49475342Y14605479D01*
X48850091Y14605479D01*
X48850000Y14605479D01*
X48850000Y15208219D01*
X49256164Y15208219D01*
X49261826Y15136865D01*
X49278813Y15080609D01*
X49307123Y15039452D01*
X49348463Y15011446D01*
X49404536Y14994642D01*
X49475342Y14989041D01*
X49546149Y14994642D01*
X49564028Y15000000D01*
X49762466Y15000000D01*
X49885205Y15000000D01*
X49926849Y15210411D01*
X50114247Y15210411D01*
X50155890Y15000000D01*
X50283014Y15000000D01*
X50096022Y15789041D01*
X50359726Y15789041D01*
X50359726Y15000000D01*
X50482466Y15000000D01*
X50482466Y15332055D01*
X50525205Y15332055D01*
X50591507Y15310685D01*
X50612466Y15279863D01*
X50630411Y15230137D01*
X50693973Y15000000D01*
X50820000Y15000000D01*
X50752055Y15223562D01*
X50716986Y15309589D01*
X50675342Y15363836D01*
X50675342Y15366027D01*
X50729041Y15397397D01*
X50767397Y15442192D01*
X50790411Y15500411D01*
X50798082Y15572055D01*
X50791324Y15647245D01*
X50772071Y15704658D01*
X50894521Y15704658D01*
X51057808Y15704658D01*
X51057808Y15000000D01*
X51180548Y15000000D01*
X51180548Y15704658D01*
X51343836Y15704658D01*
X51343836Y15800000D01*
X50894521Y15800000D01*
X50894521Y15704658D01*
X50772071Y15704658D01*
X50771050Y15707702D01*
X50737260Y15753425D01*
X50688980Y15785388D01*
X50625236Y15804566D01*
X50546027Y15810959D01*
X50482953Y15808524D01*
X50420852Y15801218D01*
X50359726Y15789041D01*
X50096022Y15789041D01*
X50093425Y15800000D01*
X49950959Y15800000D01*
X49762466Y15000000D01*
X49564028Y15000000D01*
X49602222Y15011446D01*
X49643562Y15039452D01*
X49671872Y15080609D01*
X49688858Y15136865D01*
X49694521Y15208219D01*
X49694521Y15800000D01*
X49575068Y15800000D01*
X49575068Y15230137D01*
X49569589Y15158493D01*
X49553151Y15114521D01*
X49477534Y15084384D01*
X49431781Y15092055D01*
X49401918Y15115068D01*
X49385479Y15159178D01*
X49380000Y15230137D01*
X49380000Y15800000D01*
X49256164Y15800000D01*
X49256164Y15208219D01*
X48850000Y15208219D01*
X48850000Y16194521D01*
X48850091Y16194521D01*
X51749909Y16194521D01*
X51750000Y16194521D01*
X51750000Y14605479D01*
G37*
%TO.C,kibuzzard-6935C105*%
G36*
X25213174Y31496149D02*
G01*
X25248653Y31463227D01*
X25260479Y31408356D01*
X25252808Y31357894D01*
X25229795Y31323493D01*
X25190479Y31303716D01*
X25133904Y31297123D01*
X25106096Y31297123D01*
X25106096Y31499452D01*
X25154041Y31507123D01*
X25213174Y31496149D01*
G37*
G36*
X25205342Y31207705D02*
G01*
X25246096Y31183973D01*
X25269829Y31142979D01*
X25277740Y31083288D01*
X25270428Y31024435D01*
X25248493Y30984041D01*
X25211695Y30960668D01*
X25159795Y30952877D01*
X25106096Y30960548D01*
X25106096Y31215616D01*
X25146370Y31215616D01*
X25205342Y31207705D01*
G37*
G36*
X25708048Y31491421D02*
G01*
X25741849Y31447192D01*
X25756233Y31396849D01*
X25764863Y31324452D01*
X25767740Y31230000D01*
X25764863Y31135548D01*
X25756233Y31063151D01*
X25741849Y31012808D01*
X25708048Y30968579D01*
X25658425Y30953836D01*
X25608801Y30968579D01*
X25575000Y31012808D01*
X25560616Y31063151D01*
X25551986Y31135548D01*
X25549110Y31230000D01*
X25551986Y31324452D01*
X25560616Y31396849D01*
X25575000Y31447192D01*
X25608801Y31491421D01*
X25658425Y31506164D01*
X25708048Y31491421D01*
G37*
G36*
X26187500Y31491421D02*
G01*
X26221301Y31447192D01*
X26235685Y31396849D01*
X26244315Y31324452D01*
X26247192Y31230000D01*
X26244315Y31135548D01*
X26235685Y31063151D01*
X26221301Y31012808D01*
X26187500Y30968579D01*
X26137877Y30953836D01*
X26088253Y30968579D01*
X26054452Y31012808D01*
X26040068Y31063151D01*
X26031438Y31135548D01*
X26028562Y31230000D01*
X26031438Y31324452D01*
X26040068Y31396849D01*
X26054452Y31447192D01*
X26088253Y31491421D01*
X26137877Y31506164D01*
X26187500Y31491421D01*
G37*
G36*
X27750000Y30534795D02*
G01*
X27749920Y30534795D01*
X27093904Y30534795D01*
X26671027Y30534795D01*
X26137877Y30534795D01*
X25658425Y30534795D01*
X25159795Y30534795D01*
X24450080Y30534795D01*
X24450000Y30534795D01*
X24450000Y31570411D01*
X24998699Y31570411D01*
X24998699Y30889589D01*
X25051545Y30878935D01*
X25105244Y30872542D01*
X25159795Y30870411D01*
X25227770Y30876271D01*
X25283387Y30893851D01*
X25326644Y30923151D01*
X25357542Y30964170D01*
X25376081Y31016910D01*
X25382260Y31081370D01*
X25373031Y31145616D01*
X25345342Y31200274D01*
X25314459Y31230000D01*
X25447466Y31230000D01*
X25450076Y31146043D01*
X25457907Y31074444D01*
X25470959Y31015205D01*
X25499846Y30947363D01*
X25539521Y30903014D01*
X25591781Y30878562D01*
X25658425Y30870411D01*
X25725068Y30878562D01*
X25777329Y30903014D01*
X25817003Y30947363D01*
X25845890Y31015205D01*
X25858942Y31074444D01*
X25866773Y31146043D01*
X25869384Y31230000D01*
X25926918Y31230000D01*
X25929528Y31146043D01*
X25937359Y31074444D01*
X25950411Y31015205D01*
X25979298Y30947363D01*
X26018973Y30903014D01*
X26071233Y30878562D01*
X26137877Y30870411D01*
X26204521Y30878562D01*
X26256781Y30903014D01*
X26296455Y30947363D01*
X26325342Y31015205D01*
X26338394Y31074444D01*
X26346225Y31146043D01*
X26348836Y31230000D01*
X26346225Y31313957D01*
X26338394Y31385556D01*
X26325342Y31444795D01*
X26303294Y31496575D01*
X26420753Y31496575D01*
X26563630Y31496575D01*
X26563630Y30880000D01*
X26671027Y30880000D01*
X26671027Y31482192D01*
X26927055Y31482192D01*
X26927055Y31388219D01*
X27091986Y31480274D01*
X27093904Y31479315D01*
X27093904Y30880000D01*
X27201301Y30880000D01*
X27201301Y31580000D01*
X27094863Y31580000D01*
X26927055Y31482192D01*
X26671027Y31482192D01*
X26671027Y31496575D01*
X26813904Y31496575D01*
X26813904Y31580000D01*
X26420753Y31580000D01*
X26420753Y31496575D01*
X26303294Y31496575D01*
X26296455Y31512637D01*
X26256781Y31556986D01*
X26204521Y31581438D01*
X26137877Y31589589D01*
X26071233Y31581438D01*
X26018973Y31556986D01*
X25979298Y31512637D01*
X25950411Y31444795D01*
X25937359Y31385556D01*
X25929528Y31313957D01*
X25926918Y31230000D01*
X25869384Y31230000D01*
X25866773Y31313957D01*
X25858942Y31385556D01*
X25845890Y31444795D01*
X25817003Y31512637D01*
X25777329Y31556986D01*
X25725068Y31581438D01*
X25658425Y31589589D01*
X25591781Y31581438D01*
X25539521Y31556986D01*
X25499846Y31512637D01*
X25470959Y31444795D01*
X25457907Y31385556D01*
X25450076Y31313957D01*
X25447466Y31230000D01*
X25314459Y31230000D01*
X25303750Y31240308D01*
X25252808Y31260685D01*
X25252808Y31261644D01*
X25297757Y31281301D01*
X25332877Y31315342D01*
X25355531Y31360890D01*
X25363082Y31415068D01*
X25354721Y31477896D01*
X25329636Y31526762D01*
X25287827Y31561666D01*
X25229296Y31582608D01*
X25154041Y31589589D01*
X25074932Y31584795D01*
X24998699Y31570411D01*
X24450000Y31570411D01*
X24450000Y31925205D01*
X24450080Y31925205D01*
X27749920Y31925205D01*
X27750000Y31925205D01*
X27750000Y30534795D01*
G37*
D12*
%TO.C,C15*%
X20627836Y23060000D02*
X20412164Y23060000D01*
X20627836Y22340000D02*
X20412164Y22340000D01*
%TO.C,C5*%
X16765000Y14738748D02*
X16765000Y15261252D01*
X18235000Y14738748D02*
X18235000Y15261252D01*
%TO.C,D2*%
X4015000Y11985000D02*
X4015000Y10515000D01*
X4015000Y10515000D02*
X6300000Y10515000D01*
X6300000Y11985000D02*
X4015000Y11985000D01*
%TO.C,C10*%
X40890000Y15877836D02*
X40890000Y15662164D01*
X41610000Y15877836D02*
X41610000Y15662164D01*
%TO.C,C9*%
X40890000Y22837836D02*
X40890000Y22622164D01*
X41610000Y22837836D02*
X41610000Y22622164D01*
%TO.C,R7*%
X41487258Y31772500D02*
X41012742Y31772500D01*
X41487258Y30727500D02*
X41012742Y30727500D01*
%TD*%
M02*
