M48
; DRILL file {KiCad 9.0.6} date 2025-12-11T07:52:50+0100
; FORMAT={-:-/ absolute / metric / decimal}
; #@! TF.CreationDate,2025-12-11T07:52:50+01:00
; #@! TF.GenerationSoftware,Kicad,Pcbnew,9.0.6
; #@! TF.FileFunction,Plated,1,4,PTH
FMAT,2
METRIC
; #@! TA.AperFunction,Plated,PTH,ViaDrill
T1C0.300
; #@! TA.AperFunction,Plated,PTH,ComponentDrill
T2C0.500
; #@! TA.AperFunction,Plated,PTH,ComponentDrill
T3C0.600
; #@! TA.AperFunction,Plated,PTH,ComponentDrill
T4C3.200
%
G90
G05
T1
X1.75Y27.0
X1.75Y21.0
X1.75Y17.0
X3.75Y19.0
X6.5Y25.0
X6.5Y13.0
X6.75Y28.0
X8.3Y15.4
X8.4Y21.2
X8.4Y16.6
X8.5Y22.25
X8.5Y9.5
X9.6Y18.5
X10.0Y13.25
X11.0Y12.25
X11.0Y11.25
X11.1Y35.0
X11.25Y29.0
X11.25Y25.75
X11.25Y22.25
X12.0Y13.25
X12.5Y9.5
X12.5Y5.75
X12.5Y2.75
X13.0Y12.25
X13.75Y11.5
X14.5Y22.25
X14.887Y35.0
X15.0Y17.2
X15.5Y9.25
X16.25Y17.2
X16.5Y19.75
X16.5Y5.75
X16.5Y2.75
X17.25Y11.5
X17.5Y17.2
X18.2Y33.4
X18.5Y11.5
X18.675Y35.0
X19.75Y15.25
X19.75Y11.5
X20.25Y5.75
X20.25Y2.75
X21.0Y15.5
X21.4Y29.8
X21.6Y8.9
X22.0Y30.6
X22.0Y26.0
X22.462Y35.0
X22.6Y14.1
X23.2Y23.6
X23.2Y22.6
X24.0Y5.75
X24.0Y2.75
X24.5Y9.0
X24.8Y23.6
X25.0Y13.75
X25.25Y16.21
X25.25Y15.25
X25.8Y23.6
X26.0Y26.0
X26.0Y21.25
X26.1Y13.75
X26.25Y35.0
X27.5Y12.5
X27.75Y2.7
X28.5Y26.5
X29.4Y35.2
X29.5Y29.8
X29.5Y15.75
X29.5Y8.65
X29.5Y7.65
X29.5Y6.65
X29.5Y5.65
X29.5Y4.65
X29.75Y21.0
X29.75Y9.65
X30.3Y20.1
X30.5Y27.5
X30.5Y23.25
X30.6Y4.65
X31.537Y2.7
X31.7Y4.65
X31.75Y19.0
X31.75Y16.0
X32.0Y15.0
X32.8Y4.65
X33.0Y26.5
X33.7Y15.0
X33.9Y32.4
X33.9Y4.65
X34.0Y21.0
X34.5Y15.5
X34.75Y9.65
X34.8Y32.4
X35.0Y8.65
X35.0Y7.65
X35.0Y6.65
X35.0Y5.65
X35.0Y4.65
X35.325Y2.7
X35.5Y14.75
X35.75Y23.0
X36.0Y10.5
X36.25Y26.5
X36.25Y18.0
X37.0Y10.5
X38.0Y22.25
X38.0Y15.75
X38.0Y11.5
X38.75Y26.5
X39.0Y6.5
X39.112Y2.7
X41.25Y35.25
X41.25Y21.25
X41.25Y14.25
X42.25Y23.21
X42.25Y22.25
X42.25Y16.25
X42.25Y15.29
X42.25Y9.0
X42.9Y2.7
X43.75Y32.5
X45.5Y29.5
X45.5Y26.5
X45.5Y22.5
X45.5Y14.5
X45.5Y11.25
X45.75Y35.25
X47.25Y19.0
X49.25Y26.5
X49.25Y11.25
X53.0Y26.5
X53.0Y22.712
X53.0Y18.925
X53.0Y15.137
X53.0Y11.35
T2
X1.6Y33.0
X1.6Y5.0
X2.303Y34.697
X2.303Y31.303
X2.303Y6.697
X2.303Y3.303
X4.0Y35.4
X4.0Y30.6
X4.0Y7.4
X4.0Y2.6
X5.697Y34.697
X5.697Y31.303
X5.697Y6.697
X5.697Y3.303
X6.4Y33.0
X6.4Y5.0
X48.6Y33.0
X48.6Y5.0
X49.303Y34.697
X49.303Y31.303
X49.303Y6.697
X49.303Y3.303
X50.05Y20.25
X50.05Y19.0
X50.05Y17.75
X51.0Y35.4
X51.0Y30.6
X51.0Y7.4
X51.0Y2.6
X52.697Y34.697
X52.697Y31.303
X52.697Y6.697
X52.697Y3.303
X53.4Y33.0
X53.4Y5.0
T4
X4.0Y33.0
X4.0Y5.0
X51.0Y33.0
X51.0Y5.0
T3
G00X2.825Y23.32
M15
G01X2.025Y23.32
M16
G05
G00X2.825Y14.68
M15
G01X2.025Y14.68
M16
G05
G00X7.155Y23.32
M15
G01X6.055Y23.32
M16
G05
G00X7.155Y14.68
M15
G01X6.055Y14.68
M16
G05
M30
