%TF.GenerationSoftware,KiCad,Pcbnew,9.0.6*%
%TF.CreationDate,2025-12-11T07:51:36+01:00*%
%TF.ProjectId,ch32-baseboard-kicad,63683332-2d62-4617-9365-626f6172642d,rev?*%
%TF.SameCoordinates,PX5b8d800PY8954400*%
%TF.FileFunction,Copper,L2,Inr*%
%TF.FilePolarity,Positive*%
%FSLAX46Y46*%
G04 Gerber Fmt 4.6, Leading zero omitted, Abs format (unit mm)*
G04 Created by KiCad (PCBNEW 9.0.6) date 2025-12-11 07:51:36*
%MOMM*%
%LPD*%
G01*
G04 APERTURE LIST*
G04 Aperture macros list*
%AMRoundRect*
0 Rectangle with rounded corners*
0 $1 Rounding radius*
0 $2 $3 $4 $5 $6 $7 $8 $9 X,Y pos of 4 corners*
0 Add a 4 corners polygon primitive as box body*
4,1,4,$2,$3,$4,$5,$6,$7,$8,$9,$2,$3,0*
0 Add four circle primitives for the rounded corners*
1,1,$1+$1,$2,$3*
1,1,$1+$1,$4,$5*
1,1,$1+$1,$6,$7*
1,1,$1+$1,$8,$9*
0 Add four rect primitives between the rounded corners*
20,1,$1+$1,$2,$3,$4,$5,0*
20,1,$1+$1,$4,$5,$6,$7,0*
20,1,$1+$1,$6,$7,$8,$9,0*
20,1,$1+$1,$8,$9,$2,$3,0*%
G04 Aperture macros list end*
%TA.AperFunction,HeatsinkPad*%
%ADD10O,2.100000X1.000000*%
%TD*%
%TA.AperFunction,HeatsinkPad*%
%ADD11O,1.800000X1.000000*%
%TD*%
%TA.AperFunction,ComponentPad*%
%ADD12RoundRect,0.200000X0.450000X-0.200000X0.450000X0.200000X-0.450000X0.200000X-0.450000X-0.200000X0*%
%TD*%
%TA.AperFunction,ComponentPad*%
%ADD13O,1.300000X0.800000*%
%TD*%
%TA.AperFunction,ComponentPad*%
%ADD14C,0.800000*%
%TD*%
%TA.AperFunction,ComponentPad*%
%ADD15C,6.400000*%
%TD*%
%TA.AperFunction,ViaPad*%
%ADD16C,0.700000*%
%TD*%
G04 APERTURE END LIST*
D10*
%TO.N,GND*%
%TO.C,J1*%
X6605000Y23320000D03*
D11*
X2425000Y23320000D03*
D10*
X6605000Y14680000D03*
D11*
X2425000Y14680000D03*
%TD*%
D12*
%TO.N,/UART_CN_TX*%
%TO.C,J3*%
X50050000Y17750000D03*
D13*
%TO.N,/UART_CN_RX*%
X50050000Y19000000D03*
%TO.N,GND*%
X50050000Y20250000D03*
%TD*%
D14*
%TO.N,GND*%
%TO.C,MH2*%
X48600000Y33000000D03*
X49302944Y34697056D03*
X49302944Y31302944D03*
X51000000Y35400000D03*
D15*
X51000000Y33000000D03*
D14*
X51000000Y30600000D03*
X52697056Y34697056D03*
X52697056Y31302944D03*
X53400000Y33000000D03*
%TD*%
%TO.N,GND*%
%TO.C,MH4*%
X1600000Y5000000D03*
X2302944Y6697056D03*
X2302944Y3302944D03*
X4000000Y7400000D03*
D15*
X4000000Y5000000D03*
D14*
X4000000Y2600000D03*
X5697056Y6697056D03*
X5697056Y3302944D03*
X6400000Y5000000D03*
%TD*%
%TO.N,GND*%
%TO.C,MH3*%
X48600000Y5000000D03*
X49302944Y6697056D03*
X49302944Y3302944D03*
X51000000Y7400000D03*
D15*
X51000000Y5000000D03*
D14*
X51000000Y2600000D03*
X52697056Y6697056D03*
X52697056Y3302944D03*
X53400000Y5000000D03*
%TD*%
%TO.N,GND*%
%TO.C,MH1*%
X1600000Y33000000D03*
X2302944Y34697056D03*
X2302944Y31302944D03*
X4000000Y35400000D03*
D15*
X4000000Y33000000D03*
D14*
X4000000Y30600000D03*
X5697056Y34697056D03*
X5697056Y31302944D03*
X6400000Y33000000D03*
%TD*%
D16*
%TO.N,GND*%
X11250000Y25750000D03*
X21600000Y8900000D03*
X32800000Y4650000D03*
X39000000Y6500000D03*
X41250000Y35250000D03*
X35000000Y8650000D03*
X49250000Y11250000D03*
X24000000Y5750000D03*
X26100000Y13750000D03*
X33900000Y32400000D03*
X27750000Y2700000D03*
X11250000Y29000000D03*
X41250000Y21250000D03*
X18500000Y11500000D03*
X53000000Y22712500D03*
X15500000Y9250000D03*
X39112500Y2700000D03*
X29500000Y15750000D03*
X17500000Y17200000D03*
X31750000Y19000000D03*
X30500000Y23250000D03*
X16500000Y5750000D03*
X16500000Y2750000D03*
X12500000Y9500000D03*
X45500000Y11250000D03*
X13750000Y11500000D03*
X45750000Y35250000D03*
X10000000Y13250000D03*
X29500000Y7650000D03*
X11000000Y12250000D03*
X29500000Y5650000D03*
X1750000Y27000000D03*
X25000000Y13750000D03*
X14500000Y22250000D03*
X45500000Y29500000D03*
X35000000Y4650000D03*
X33900000Y4650000D03*
X35000000Y7650000D03*
X38000000Y11500000D03*
X6500000Y13000000D03*
X26000000Y26000000D03*
X13000000Y12250000D03*
X43750000Y32500000D03*
X9600000Y18500000D03*
X14887500Y35000000D03*
X41250000Y14250000D03*
X31700000Y4650000D03*
X38000000Y22250000D03*
X21000000Y15500000D03*
X12000000Y13250000D03*
X35000000Y5650000D03*
X53000000Y11350000D03*
X18675000Y35000000D03*
X22462500Y35000000D03*
X29750000Y21000000D03*
X24000000Y2750000D03*
X22000000Y26000000D03*
X36250000Y18000000D03*
X6500000Y25000000D03*
X26250000Y35000000D03*
X31537500Y2700000D03*
X45500000Y26500000D03*
X16250000Y17200000D03*
X37000000Y10500000D03*
X16500000Y19750000D03*
X29750000Y9650000D03*
X30600000Y4650000D03*
X53000000Y15137500D03*
X34750000Y9650000D03*
X29400000Y35200000D03*
X25800000Y23600000D03*
X45500000Y22500000D03*
X29500000Y29800000D03*
X42250000Y22250000D03*
X35325000Y2700000D03*
X29500000Y6650000D03*
X29500000Y8650000D03*
X11250000Y22250000D03*
X35500000Y14750000D03*
X35000000Y6650000D03*
X15000000Y17200000D03*
X35750000Y23000000D03*
X29500000Y4650000D03*
X42900000Y2700000D03*
X38000000Y15750000D03*
X8500000Y22250000D03*
X23200000Y22600000D03*
X1750000Y21000000D03*
X20250000Y5750000D03*
X47250000Y19000000D03*
X11100000Y35000000D03*
X53000000Y18925000D03*
X12500000Y5750000D03*
X33000000Y26500000D03*
X8500000Y9500000D03*
X22000000Y30600000D03*
X36250000Y26500000D03*
X30500000Y27500000D03*
X20250000Y2750000D03*
X42250000Y9000000D03*
X38750000Y26500000D03*
X6750000Y28000000D03*
X8300000Y15400000D03*
X34500000Y15500000D03*
X1750000Y17000000D03*
X49250000Y26500000D03*
X53000000Y26500000D03*
X26000000Y21250000D03*
X31750000Y16000000D03*
X3750000Y19000000D03*
X45500000Y14500000D03*
X25250000Y16210000D03*
X42250000Y15290000D03*
X22600000Y14100000D03*
X34000000Y21000000D03*
X12500000Y2750000D03*
%TO.N,+3V3S*%
X27500000Y12500000D03*
X42250000Y16250000D03*
X28500000Y26500000D03*
X25250000Y15250000D03*
X42250000Y23210000D03*
X36000000Y10500000D03*
%TO.N,/NRST*%
X24800000Y23600000D03*
X23200000Y23600000D03*
X18200000Y33400000D03*
%TO.N,+VBUS*%
X8400000Y16600000D03*
X8400000Y21200000D03*
%TO.N,+3V3*%
X21400000Y29800000D03*
X24500000Y9000000D03*
X19750000Y11500000D03*
X17250000Y11500000D03*
X19750000Y15250000D03*
X11000000Y11250000D03*
%TO.N,/BOOT0*%
X30300000Y20100000D03*
X34800000Y32400000D03*
%TO.N,/INA_VOUT*%
X32000000Y15000000D03*
X33700000Y15000000D03*
%TD*%
%TA.AperFunction,Conductor*%
%TO.N,GND*%
G36*
X51002421Y36499381D02*
G01*
X51031158Y36497970D01*
X51338173Y36482887D01*
X51347815Y36481937D01*
X51677915Y36432971D01*
X51687421Y36431081D01*
X52011144Y36349992D01*
X52020415Y36347180D01*
X52334625Y36234754D01*
X52343594Y36231039D01*
X52645263Y36088360D01*
X52653826Y36083782D01*
X52940049Y35912227D01*
X52948127Y35906829D01*
X53216150Y35708049D01*
X53223660Y35701886D01*
X53470921Y35477782D01*
X53477781Y35470922D01*
X53603484Y35332230D01*
X53701885Y35223661D01*
X53708048Y35216151D01*
X53906828Y34948128D01*
X53912226Y34940050D01*
X54083781Y34653827D01*
X54088361Y34645259D01*
X54231036Y34343598D01*
X54234754Y34334622D01*
X54347175Y34020429D01*
X54349995Y34011132D01*
X54431077Y33687433D01*
X54432972Y33677904D01*
X54481934Y33347830D01*
X54482887Y33338162D01*
X54499381Y33002423D01*
X54499500Y32997565D01*
X54499500Y5002436D01*
X54499381Y4997578D01*
X54482887Y4661839D01*
X54481934Y4652171D01*
X54432972Y4322097D01*
X54431077Y4312568D01*
X54349995Y3988869D01*
X54347175Y3979572D01*
X54234754Y3665379D01*
X54231036Y3656403D01*
X54088361Y3354742D01*
X54083781Y3346174D01*
X53912226Y3059951D01*
X53906828Y3051873D01*
X53708048Y2783850D01*
X53701885Y2776340D01*
X53477786Y2529084D01*
X53470916Y2522214D01*
X53223660Y2298115D01*
X53216150Y2291952D01*
X52948127Y2093172D01*
X52940049Y2087774D01*
X52653826Y1916219D01*
X52645258Y1911639D01*
X52343597Y1768964D01*
X52334621Y1765246D01*
X52020428Y1652825D01*
X52011131Y1650005D01*
X51687432Y1568923D01*
X51677903Y1567028D01*
X51347829Y1518066D01*
X51338161Y1517113D01*
X51002422Y1500619D01*
X50997564Y1500500D01*
X4002436Y1500500D01*
X3997578Y1500619D01*
X3661838Y1517113D01*
X3652170Y1518066D01*
X3322096Y1567028D01*
X3312567Y1568923D01*
X2988868Y1650005D01*
X2979571Y1652825D01*
X2665378Y1765246D01*
X2656402Y1768964D01*
X2354741Y1911639D01*
X2346173Y1916219D01*
X2059950Y2087774D01*
X2051872Y2093172D01*
X1783849Y2291952D01*
X1776339Y2298115D01*
X1529083Y2522214D01*
X1522218Y2529079D01*
X1298114Y2776340D01*
X1291951Y2783850D01*
X1093171Y3051873D01*
X1087773Y3059951D01*
X958223Y3276092D01*
X916216Y3346177D01*
X911638Y3354742D01*
X768963Y3656403D01*
X765245Y3665379D01*
X652820Y3979585D01*
X650008Y3988856D01*
X568919Y4312579D01*
X567029Y4322085D01*
X518063Y4652185D01*
X517113Y4661827D01*
X500619Y4997579D01*
X500500Y5002436D01*
X500500Y9073918D01*
X23749500Y9073918D01*
X23749500Y8926082D01*
X23778342Y8781087D01*
X23834916Y8644505D01*
X23917049Y8521584D01*
X24021584Y8417049D01*
X24144505Y8334916D01*
X24281087Y8278342D01*
X24426082Y8249500D01*
X24426083Y8249500D01*
X24573917Y8249500D01*
X24573918Y8249500D01*
X24718913Y8278342D01*
X24855495Y8334916D01*
X24978416Y8417049D01*
X25082951Y8521584D01*
X25165084Y8644505D01*
X25221658Y8781087D01*
X25250500Y8926082D01*
X25250500Y9073918D01*
X25221658Y9218913D01*
X25165084Y9355495D01*
X25082951Y9478416D01*
X24978416Y9582951D01*
X24855495Y9665084D01*
X24855493Y9665085D01*
X24718914Y9721658D01*
X24573918Y9750500D01*
X24426082Y9750500D01*
X24426081Y9750500D01*
X24281085Y9721658D01*
X24144506Y9665085D01*
X24021585Y9582952D01*
X23917048Y9478415D01*
X23834915Y9355494D01*
X23778342Y9218915D01*
X23778342Y9218913D01*
X23749500Y9073918D01*
X500500Y9073918D01*
X500500Y11323918D01*
X10249500Y11323918D01*
X10249500Y11176082D01*
X10278342Y11031087D01*
X10334916Y10894505D01*
X10417049Y10771584D01*
X10521584Y10667049D01*
X10644505Y10584916D01*
X10781087Y10528342D01*
X10926082Y10499500D01*
X10926083Y10499500D01*
X11073917Y10499500D01*
X11073918Y10499500D01*
X11218913Y10528342D01*
X11328946Y10573919D01*
X35249500Y10573919D01*
X35249500Y10573918D01*
X35249500Y10426082D01*
X35278342Y10281087D01*
X35334916Y10144505D01*
X35417049Y10021584D01*
X35521584Y9917049D01*
X35644505Y9834916D01*
X35781087Y9778342D01*
X35926082Y9749500D01*
X35926083Y9749500D01*
X36073917Y9749500D01*
X36073918Y9749500D01*
X36218913Y9778342D01*
X36355495Y9834916D01*
X36478416Y9917049D01*
X36582951Y10021584D01*
X36665084Y10144505D01*
X36721658Y10281087D01*
X36750500Y10426082D01*
X36750500Y10573918D01*
X36721658Y10718913D01*
X36665084Y10855495D01*
X36582951Y10978416D01*
X36478416Y11082951D01*
X36355495Y11165084D01*
X36355493Y11165085D01*
X36218914Y11221658D01*
X36073918Y11250500D01*
X35926082Y11250500D01*
X35926081Y11250500D01*
X35781085Y11221658D01*
X35644506Y11165085D01*
X35521585Y11082952D01*
X35417048Y10978415D01*
X35334915Y10855494D01*
X35278342Y10718915D01*
X35249500Y10573919D01*
X11328946Y10573919D01*
X11355495Y10584916D01*
X11478416Y10667049D01*
X11582951Y10771584D01*
X11665084Y10894505D01*
X11721658Y11031087D01*
X11750500Y11176082D01*
X11750500Y11323918D01*
X11721658Y11468913D01*
X11715702Y11483291D01*
X11691842Y11540897D01*
X11678163Y11573919D01*
X16499500Y11573919D01*
X16499500Y11426082D01*
X16528342Y11281086D01*
X16576392Y11165084D01*
X16584916Y11144505D01*
X16667049Y11021584D01*
X16771584Y10917049D01*
X16894505Y10834916D01*
X17031087Y10778342D01*
X17176082Y10749500D01*
X17176083Y10749500D01*
X17323917Y10749500D01*
X17323918Y10749500D01*
X17468913Y10778342D01*
X17605495Y10834916D01*
X17728416Y10917049D01*
X17832951Y11021584D01*
X17915084Y11144505D01*
X17971658Y11281087D01*
X18000500Y11426082D01*
X18000500Y11573918D01*
X18000500Y11573919D01*
X18999500Y11573919D01*
X18999500Y11426082D01*
X19028342Y11281086D01*
X19076392Y11165084D01*
X19084916Y11144505D01*
X19167049Y11021584D01*
X19271584Y10917049D01*
X19394505Y10834916D01*
X19531087Y10778342D01*
X19676082Y10749500D01*
X19676083Y10749500D01*
X19823917Y10749500D01*
X19823918Y10749500D01*
X19968913Y10778342D01*
X20105495Y10834916D01*
X20228416Y10917049D01*
X20332951Y11021584D01*
X20415084Y11144505D01*
X20471658Y11281087D01*
X20500500Y11426082D01*
X20500500Y11573918D01*
X20471658Y11718913D01*
X20415084Y11855495D01*
X20332951Y11978416D01*
X20228416Y12082951D01*
X20105495Y12165084D01*
X20105493Y12165085D01*
X19968914Y12221658D01*
X19823918Y12250500D01*
X19676082Y12250500D01*
X19676081Y12250500D01*
X19531085Y12221658D01*
X19394506Y12165085D01*
X19271585Y12082952D01*
X19167048Y11978415D01*
X19084915Y11855494D01*
X19028342Y11718915D01*
X18999500Y11573919D01*
X18000500Y11573919D01*
X17971658Y11718913D01*
X17915084Y11855495D01*
X17832951Y11978416D01*
X17728416Y12082951D01*
X17605495Y12165084D01*
X17605493Y12165085D01*
X17468914Y12221658D01*
X17323918Y12250500D01*
X17176082Y12250500D01*
X17176081Y12250500D01*
X17031085Y12221658D01*
X16894506Y12165085D01*
X16771585Y12082952D01*
X16667048Y11978415D01*
X16584915Y11855494D01*
X16528342Y11718915D01*
X16499500Y11573919D01*
X11678163Y11573919D01*
X11665084Y11605494D01*
X11665084Y11605495D01*
X11582951Y11728416D01*
X11478416Y11832951D01*
X11355495Y11915084D01*
X11350751Y11917049D01*
X11218914Y11971658D01*
X11073918Y12000500D01*
X10926082Y12000500D01*
X10926081Y12000500D01*
X10781085Y11971658D01*
X10644506Y11915085D01*
X10521585Y11832952D01*
X10417048Y11728415D01*
X10334915Y11605494D01*
X10278342Y11468915D01*
X10269822Y11426082D01*
X10249500Y11323918D01*
X500500Y11323918D01*
X500500Y12573919D01*
X26749500Y12573919D01*
X26749500Y12426082D01*
X26778342Y12281086D01*
X26826392Y12165084D01*
X26834916Y12144505D01*
X26917049Y12021584D01*
X27021584Y11917049D01*
X27144505Y11834916D01*
X27281087Y11778342D01*
X27426082Y11749500D01*
X27426083Y11749500D01*
X27573917Y11749500D01*
X27573918Y11749500D01*
X27718913Y11778342D01*
X27855495Y11834916D01*
X27978416Y11917049D01*
X28082951Y12021584D01*
X28165084Y12144505D01*
X28221658Y12281087D01*
X28250500Y12426082D01*
X28250500Y12573918D01*
X28221658Y12718913D01*
X28165084Y12855495D01*
X28082951Y12978416D01*
X27978416Y13082951D01*
X27855495Y13165084D01*
X27855493Y13165085D01*
X27718914Y13221658D01*
X27573918Y13250500D01*
X27426082Y13250500D01*
X27426081Y13250500D01*
X27281085Y13221658D01*
X27144506Y13165085D01*
X27021585Y13082952D01*
X26917048Y12978415D01*
X26834915Y12855494D01*
X26778342Y12718915D01*
X26749500Y12573919D01*
X500500Y12573919D01*
X500500Y14830001D01*
X1239164Y14830001D01*
X1239165Y14830000D01*
X1765192Y14830000D01*
X1745444Y14795796D01*
X1725000Y14719496D01*
X1725000Y14640504D01*
X1745444Y14564204D01*
X1765192Y14530000D01*
X1239164Y14530000D01*
X1255742Y14446652D01*
X1316048Y14301060D01*
X1316052Y14301051D01*
X1403599Y14170031D01*
X1403602Y14170027D01*
X1515026Y14058603D01*
X1515030Y14058600D01*
X1646050Y13971053D01*
X1646059Y13971049D01*
X1791650Y13910743D01*
X1946204Y13880001D01*
X1946208Y13880000D01*
X2274999Y13880000D01*
X2275000Y13880001D01*
X2275000Y14380000D01*
X2575000Y14380000D01*
X2575000Y13880001D01*
X2575001Y13880000D01*
X2903792Y13880000D01*
X2903795Y13880001D01*
X3058349Y13910743D01*
X3203940Y13971049D01*
X3203949Y13971053D01*
X3334969Y14058600D01*
X3334973Y14058603D01*
X3446397Y14170027D01*
X3446400Y14170031D01*
X3533947Y14301051D01*
X3533951Y14301060D01*
X3594257Y14446652D01*
X3610836Y14530000D01*
X3084808Y14530000D01*
X3104556Y14564204D01*
X3125000Y14640504D01*
X3125000Y14719496D01*
X3104556Y14795796D01*
X3084808Y14830000D01*
X3610835Y14830000D01*
X3610835Y14830001D01*
X5269164Y14830001D01*
X5269165Y14830000D01*
X5795192Y14830000D01*
X5775444Y14795796D01*
X5755000Y14719496D01*
X5755000Y14640504D01*
X5775444Y14564204D01*
X5795192Y14530000D01*
X5269164Y14530000D01*
X5285742Y14446652D01*
X5346048Y14301060D01*
X5346052Y14301051D01*
X5433599Y14170031D01*
X5433602Y14170027D01*
X5545026Y14058603D01*
X5545030Y14058600D01*
X5676050Y13971053D01*
X5676059Y13971049D01*
X5821650Y13910743D01*
X5976204Y13880001D01*
X5976208Y13880000D01*
X6454999Y13880000D01*
X6455000Y13880001D01*
X6455000Y14380000D01*
X6755000Y14380000D01*
X6755000Y13880001D01*
X6755001Y13880000D01*
X7233792Y13880000D01*
X7233795Y13880001D01*
X7388349Y13910743D01*
X7533940Y13971049D01*
X7533949Y13971053D01*
X7664969Y14058600D01*
X7664973Y14058603D01*
X7776397Y14170027D01*
X7776400Y14170031D01*
X7863947Y14301051D01*
X7863951Y14301060D01*
X7924257Y14446652D01*
X7940836Y14530000D01*
X7414808Y14530000D01*
X7434556Y14564204D01*
X7455000Y14640504D01*
X7455000Y14719496D01*
X7434556Y14795796D01*
X7414808Y14830000D01*
X7940835Y14830000D01*
X7940835Y14830001D01*
X7924257Y14913349D01*
X7863951Y15058941D01*
X7863947Y15058950D01*
X7776400Y15189970D01*
X7776397Y15189974D01*
X7664973Y15301398D01*
X7664969Y15301401D01*
X7631269Y15323919D01*
X18999500Y15323919D01*
X18999500Y15176082D01*
X19028342Y15031086D01*
X19084915Y14894507D01*
X19084916Y14894505D01*
X19167049Y14771584D01*
X19271584Y14667049D01*
X19394505Y14584916D01*
X19531087Y14528342D01*
X19676082Y14499500D01*
X19676083Y14499500D01*
X19823917Y14499500D01*
X19823918Y14499500D01*
X19968913Y14528342D01*
X20105495Y14584916D01*
X20228416Y14667049D01*
X20332951Y14771584D01*
X20415084Y14894505D01*
X20471658Y15031087D01*
X20500500Y15176082D01*
X20500500Y15323918D01*
X20500500Y15323919D01*
X24499500Y15323919D01*
X24499500Y15176082D01*
X24528342Y15031086D01*
X24584915Y14894507D01*
X24584916Y14894505D01*
X24667049Y14771584D01*
X24771584Y14667049D01*
X24894505Y14584916D01*
X25031087Y14528342D01*
X25176082Y14499500D01*
X25176083Y14499500D01*
X25323917Y14499500D01*
X25323918Y14499500D01*
X25468913Y14528342D01*
X25605495Y14584916D01*
X25728416Y14667049D01*
X25832951Y14771584D01*
X25915084Y14894505D01*
X25971658Y15031087D01*
X25980178Y15073919D01*
X31249500Y15073919D01*
X31249500Y14926082D01*
X31278342Y14781086D01*
X31325578Y14667049D01*
X31334916Y14644505D01*
X31417049Y14521584D01*
X31521584Y14417049D01*
X31644505Y14334916D01*
X31781087Y14278342D01*
X31926082Y14249500D01*
X31926083Y14249500D01*
X32073917Y14249500D01*
X32073918Y14249500D01*
X32218913Y14278342D01*
X32355495Y14334916D01*
X32478416Y14417049D01*
X32582951Y14521584D01*
X32665084Y14644505D01*
X32721658Y14781087D01*
X32750500Y14926082D01*
X32750500Y15073918D01*
X32750500Y15073919D01*
X32949500Y15073919D01*
X32949500Y14926082D01*
X32978342Y14781086D01*
X33025578Y14667049D01*
X33034916Y14644505D01*
X33117049Y14521584D01*
X33221584Y14417049D01*
X33344505Y14334916D01*
X33481087Y14278342D01*
X33626082Y14249500D01*
X33626083Y14249500D01*
X33773917Y14249500D01*
X33773918Y14249500D01*
X33918913Y14278342D01*
X34055495Y14334916D01*
X34178416Y14417049D01*
X34282951Y14521584D01*
X34365084Y14644505D01*
X34421658Y14781087D01*
X34450500Y14926082D01*
X34450500Y15073918D01*
X34421658Y15218913D01*
X34365084Y15355495D01*
X34282951Y15478416D01*
X34178416Y15582951D01*
X34055495Y15665084D01*
X34050751Y15667049D01*
X33918914Y15721658D01*
X33773918Y15750500D01*
X33626082Y15750500D01*
X33626081Y15750500D01*
X33481085Y15721658D01*
X33344506Y15665085D01*
X33221585Y15582952D01*
X33117048Y15478415D01*
X33034915Y15355494D01*
X32978342Y15218915D01*
X32949500Y15073919D01*
X32750500Y15073919D01*
X32721658Y15218913D01*
X32665084Y15355495D01*
X32582951Y15478416D01*
X32478416Y15582951D01*
X32355495Y15665084D01*
X32350751Y15667049D01*
X32218914Y15721658D01*
X32073918Y15750500D01*
X31926082Y15750500D01*
X31926081Y15750500D01*
X31781085Y15721658D01*
X31644506Y15665085D01*
X31521585Y15582952D01*
X31417048Y15478415D01*
X31334915Y15355494D01*
X31278342Y15218915D01*
X31249500Y15073919D01*
X25980178Y15073919D01*
X26000500Y15176082D01*
X26000500Y15323918D01*
X25971658Y15468913D01*
X25915084Y15605495D01*
X25832951Y15728416D01*
X25728416Y15832951D01*
X25605495Y15915084D01*
X25605493Y15915085D01*
X25468914Y15971658D01*
X25323918Y16000500D01*
X25176082Y16000500D01*
X25176081Y16000500D01*
X25031085Y15971658D01*
X24894506Y15915085D01*
X24771585Y15832952D01*
X24667048Y15728415D01*
X24584915Y15605494D01*
X24528342Y15468915D01*
X24499500Y15323919D01*
X20500500Y15323919D01*
X20471658Y15468913D01*
X20415084Y15605495D01*
X20332951Y15728416D01*
X20228416Y15832951D01*
X20105495Y15915084D01*
X20105493Y15915085D01*
X19968914Y15971658D01*
X19823918Y16000500D01*
X19676082Y16000500D01*
X19676081Y16000500D01*
X19531085Y15971658D01*
X19394506Y15915085D01*
X19271585Y15832952D01*
X19167048Y15728415D01*
X19084915Y15605494D01*
X19028342Y15468915D01*
X18999500Y15323919D01*
X7631269Y15323919D01*
X7533949Y15388948D01*
X7533940Y15388952D01*
X7388349Y15449258D01*
X7233795Y15480000D01*
X6755001Y15480000D01*
X6755000Y15479999D01*
X6755000Y14980000D01*
X6455000Y14980000D01*
X6455000Y15479999D01*
X6442940Y15492059D01*
X6415163Y15546576D01*
X6424734Y15607008D01*
X6456829Y15640826D01*
X6455672Y15642334D01*
X6460815Y15646282D01*
X6460821Y15646285D01*
X6568715Y15754179D01*
X6623749Y15849500D01*
X6645006Y15886318D01*
X6645006Y15886320D01*
X6645008Y15886322D01*
X6684500Y16033707D01*
X6684500Y16186293D01*
X6645008Y16333678D01*
X6645006Y16333681D01*
X6645006Y16333683D01*
X6568718Y16465817D01*
X6568716Y16465819D01*
X6568715Y16465821D01*
X6460821Y16573715D01*
X6460818Y16573717D01*
X6460816Y16573719D01*
X6427340Y16593046D01*
X6328681Y16650007D01*
X6328682Y16650007D01*
X6239445Y16673918D01*
X6239441Y16673919D01*
X7649500Y16673919D01*
X7649500Y16526082D01*
X7678342Y16381086D01*
X7734915Y16244507D01*
X7734916Y16244505D01*
X7817049Y16121584D01*
X7921584Y16017049D01*
X8044505Y15934916D01*
X8181087Y15878342D01*
X8326082Y15849500D01*
X8326083Y15849500D01*
X8473917Y15849500D01*
X8473918Y15849500D01*
X8618913Y15878342D01*
X8755495Y15934916D01*
X8878416Y16017049D01*
X8982951Y16121584D01*
X9065084Y16244505D01*
X9097978Y16323919D01*
X41499500Y16323919D01*
X41499500Y16176082D01*
X41528342Y16031086D01*
X41576392Y15915084D01*
X41584916Y15894505D01*
X41667049Y15771584D01*
X41771584Y15667049D01*
X41894505Y15584916D01*
X42031087Y15528342D01*
X42176082Y15499500D01*
X42176083Y15499500D01*
X42323917Y15499500D01*
X42323918Y15499500D01*
X42468913Y15528342D01*
X42605495Y15584916D01*
X42728416Y15667049D01*
X42832951Y15771584D01*
X42915084Y15894505D01*
X42971658Y16031087D01*
X43000500Y16176082D01*
X43000500Y16323918D01*
X42971658Y16468913D01*
X42915084Y16605495D01*
X42832951Y16728416D01*
X42728416Y16832951D01*
X42605495Y16915084D01*
X42605493Y16915085D01*
X42468914Y16971658D01*
X42323918Y17000500D01*
X42176082Y17000500D01*
X42176081Y17000500D01*
X42031085Y16971658D01*
X41894506Y16915085D01*
X41771585Y16832952D01*
X41667048Y16728415D01*
X41584915Y16605494D01*
X41528342Y16468915D01*
X41499500Y16323919D01*
X9097978Y16323919D01*
X9121658Y16381087D01*
X9150500Y16526082D01*
X9150500Y16673918D01*
X9121658Y16818913D01*
X9065084Y16955495D01*
X8982951Y17078416D01*
X8878416Y17182951D01*
X8755495Y17265084D01*
X8755493Y17265085D01*
X8618914Y17321658D01*
X8473918Y17350500D01*
X8326082Y17350500D01*
X8326081Y17350500D01*
X8181085Y17321658D01*
X8044506Y17265085D01*
X7921585Y17182952D01*
X7817048Y17078415D01*
X7734915Y16955494D01*
X7678342Y16818915D01*
X7649500Y16673919D01*
X6239441Y16673919D01*
X6181293Y16689500D01*
X6028707Y16689500D01*
X5970558Y16673919D01*
X5881317Y16650007D01*
X5749183Y16573719D01*
X5641281Y16465817D01*
X5564993Y16333683D01*
X5541098Y16244506D01*
X5525500Y16186293D01*
X5525500Y16033707D01*
X5529964Y16017049D01*
X5564993Y15886318D01*
X5641281Y15754184D01*
X5641283Y15754182D01*
X5641285Y15754179D01*
X5749179Y15646285D01*
X5749181Y15646284D01*
X5749183Y15646282D01*
X5804300Y15614460D01*
X5845241Y15568991D01*
X5851637Y15508141D01*
X5821044Y15455153D01*
X5792686Y15437260D01*
X5676059Y15388952D01*
X5676050Y15388948D01*
X5545030Y15301401D01*
X5545026Y15301398D01*
X5433602Y15189974D01*
X5433599Y15189970D01*
X5346052Y15058950D01*
X5346048Y15058941D01*
X5285742Y14913349D01*
X5269164Y14830001D01*
X3610835Y14830001D01*
X3594257Y14913349D01*
X3533951Y15058941D01*
X3533947Y15058950D01*
X3446400Y15189970D01*
X3446397Y15189974D01*
X3334973Y15301398D01*
X3334969Y15301401D01*
X3203949Y15388948D01*
X3203940Y15388952D01*
X3058349Y15449258D01*
X2903795Y15480000D01*
X2575001Y15480000D01*
X2575000Y15479999D01*
X2575000Y14980000D01*
X2275000Y14980000D01*
X2275000Y15479999D01*
X2274999Y15480000D01*
X1946204Y15480000D01*
X1791650Y15449258D01*
X1646059Y15388952D01*
X1646050Y15388948D01*
X1515030Y15301401D01*
X1515026Y15301398D01*
X1403602Y15189974D01*
X1403599Y15189970D01*
X1316052Y15058950D01*
X1316048Y15058941D01*
X1255742Y14913349D01*
X1239164Y14830001D01*
X500500Y14830001D01*
X500500Y19078845D01*
X48999500Y19078845D01*
X48999500Y18921156D01*
X49030263Y18766504D01*
X49030263Y18766502D01*
X49090603Y18620826D01*
X49090609Y18620814D01*
X49175573Y18493659D01*
X49192182Y18434771D01*
X49171800Y18378390D01*
X49075462Y18252840D01*
X49075462Y18252839D01*
X49014957Y18106767D01*
X49014955Y18106759D01*
X48999500Y17989363D01*
X48999500Y17510643D01*
X48999501Y17510638D01*
X49014955Y17393242D01*
X49014957Y17393234D01*
X49075462Y17247162D01*
X49075462Y17247161D01*
X49124732Y17182951D01*
X49171718Y17121718D01*
X49297159Y17025464D01*
X49443238Y16964956D01*
X49560639Y16949500D01*
X50539360Y16949501D01*
X50656762Y16964956D01*
X50802841Y17025464D01*
X50928282Y17121718D01*
X51024536Y17247159D01*
X51085044Y17393238D01*
X51100500Y17510639D01*
X51100499Y17989360D01*
X51085044Y18106762D01*
X51024537Y18252839D01*
X51024537Y18252840D01*
X50928199Y18378390D01*
X50907775Y18436066D01*
X50924425Y18493657D01*
X51009394Y18620821D01*
X51069737Y18766503D01*
X51100500Y18921158D01*
X51100500Y19078842D01*
X51069737Y19233497D01*
X51049622Y19282058D01*
X51009396Y19379175D01*
X51009390Y19379186D01*
X50972152Y19434916D01*
X50921789Y19510289D01*
X50810289Y19621789D01*
X50806850Y19625228D01*
X50808427Y19626806D01*
X50780145Y19670991D01*
X50783751Y19732070D01*
X50805936Y19765987D01*
X50843726Y19803777D01*
X50920333Y19918429D01*
X50973098Y20045818D01*
X50983877Y20100000D01*
X50253554Y20100000D01*
X50261940Y20108386D01*
X50300000Y20200272D01*
X50300000Y20299728D01*
X50261940Y20391614D01*
X50253554Y20400000D01*
X50983877Y20400000D01*
X50973098Y20454183D01*
X50920333Y20581572D01*
X50843728Y20696221D01*
X50746220Y20793729D01*
X50631571Y20870334D01*
X50504183Y20923099D01*
X50368944Y20950000D01*
X50200001Y20950000D01*
X50200000Y20949999D01*
X50200000Y20453554D01*
X50191614Y20461940D01*
X50099728Y20500000D01*
X50000272Y20500000D01*
X49908386Y20461940D01*
X49900000Y20453554D01*
X49900000Y20949999D01*
X49899999Y20950000D01*
X49731055Y20950000D01*
X49595816Y20923099D01*
X49468428Y20870334D01*
X49353779Y20793729D01*
X49256271Y20696221D01*
X49179666Y20581572D01*
X49126901Y20454183D01*
X49116123Y20400000D01*
X49846446Y20400000D01*
X49838060Y20391614D01*
X49800000Y20299728D01*
X49800000Y20200272D01*
X49838060Y20108386D01*
X49846446Y20100000D01*
X49116123Y20100000D01*
X49126901Y20045818D01*
X49179666Y19918429D01*
X49256271Y19803780D01*
X49294065Y19765986D01*
X49321842Y19711469D01*
X49312271Y19651037D01*
X49292241Y19626135D01*
X49293149Y19625227D01*
X49178218Y19510298D01*
X49178211Y19510289D01*
X49090609Y19379186D01*
X49090603Y19379175D01*
X49030263Y19233499D01*
X49030263Y19233497D01*
X48999500Y19078845D01*
X500500Y19078845D01*
X500500Y20173919D01*
X29549500Y20173919D01*
X29549500Y20026082D01*
X29578342Y19881086D01*
X29626018Y19765987D01*
X29634916Y19744505D01*
X29717049Y19621584D01*
X29821584Y19517049D01*
X29944505Y19434916D01*
X30081087Y19378342D01*
X30226082Y19349500D01*
X30226083Y19349500D01*
X30373917Y19349500D01*
X30373918Y19349500D01*
X30518913Y19378342D01*
X30655495Y19434916D01*
X30778416Y19517049D01*
X30882951Y19621584D01*
X30965084Y19744505D01*
X31021658Y19881087D01*
X31050500Y20026082D01*
X31050500Y20173918D01*
X31021658Y20318913D01*
X30965084Y20455495D01*
X30882951Y20578416D01*
X30778416Y20682951D01*
X30655495Y20765084D01*
X30586340Y20793729D01*
X30518914Y20821658D01*
X30373918Y20850500D01*
X30226082Y20850500D01*
X30226081Y20850500D01*
X30081085Y20821658D01*
X29944506Y20765085D01*
X29821585Y20682952D01*
X29717048Y20578415D01*
X29634915Y20455494D01*
X29578342Y20318915D01*
X29549500Y20173919D01*
X500500Y20173919D01*
X500500Y21273919D01*
X7649500Y21273919D01*
X7649500Y21126082D01*
X7678342Y20981086D01*
X7691219Y20949999D01*
X7734916Y20844505D01*
X7817049Y20721584D01*
X7921584Y20617049D01*
X8044505Y20534916D01*
X8181087Y20478342D01*
X8326082Y20449500D01*
X8326083Y20449500D01*
X8473917Y20449500D01*
X8473918Y20449500D01*
X8618913Y20478342D01*
X8755495Y20534916D01*
X8878416Y20617049D01*
X8982951Y20721584D01*
X9065084Y20844505D01*
X9121658Y20981087D01*
X9150500Y21126082D01*
X9150500Y21273918D01*
X9121658Y21418913D01*
X9065084Y21555495D01*
X8982951Y21678416D01*
X8878416Y21782951D01*
X8755495Y21865084D01*
X8755493Y21865085D01*
X8618914Y21921658D01*
X8473918Y21950500D01*
X8326082Y21950500D01*
X8326081Y21950500D01*
X8181085Y21921658D01*
X8044506Y21865085D01*
X7921585Y21782952D01*
X7817048Y21678415D01*
X7734915Y21555494D01*
X7678342Y21418915D01*
X7649500Y21273919D01*
X500500Y21273919D01*
X500500Y23470001D01*
X1239164Y23470001D01*
X1239165Y23470000D01*
X1765192Y23470000D01*
X1745444Y23435796D01*
X1725000Y23359496D01*
X1725000Y23280504D01*
X1745444Y23204204D01*
X1765192Y23170000D01*
X1239164Y23170000D01*
X1255742Y23086652D01*
X1316048Y22941060D01*
X1316052Y22941051D01*
X1403599Y22810031D01*
X1403602Y22810027D01*
X1515026Y22698603D01*
X1515030Y22698600D01*
X1646050Y22611053D01*
X1646059Y22611049D01*
X1791650Y22550743D01*
X1946204Y22520001D01*
X1946208Y22520000D01*
X2274999Y22520000D01*
X2275000Y22520001D01*
X2275000Y23020000D01*
X2575000Y23020000D01*
X2575000Y22520001D01*
X2575001Y22520000D01*
X2903792Y22520000D01*
X2903795Y22520001D01*
X3058349Y22550743D01*
X3203940Y22611049D01*
X3203949Y22611053D01*
X3334969Y22698600D01*
X3334973Y22698603D01*
X3446397Y22810027D01*
X3446400Y22810031D01*
X3533947Y22941051D01*
X3533951Y22941060D01*
X3594257Y23086652D01*
X3610836Y23170000D01*
X3084808Y23170000D01*
X3104556Y23204204D01*
X3125000Y23280504D01*
X3125000Y23359496D01*
X3104556Y23435796D01*
X3084808Y23470000D01*
X3610835Y23470000D01*
X3610835Y23470001D01*
X5269164Y23470001D01*
X5269165Y23470000D01*
X5795192Y23470000D01*
X5775444Y23435796D01*
X5755000Y23359496D01*
X5755000Y23280504D01*
X5775444Y23204204D01*
X5795192Y23170000D01*
X5269164Y23170000D01*
X5285742Y23086652D01*
X5346048Y22941060D01*
X5346052Y22941051D01*
X5433599Y22810031D01*
X5433602Y22810027D01*
X5545026Y22698603D01*
X5545030Y22698600D01*
X5676050Y22611053D01*
X5676062Y22611047D01*
X5792685Y22562741D01*
X5839211Y22523005D01*
X5853495Y22463510D01*
X5830081Y22406982D01*
X5804301Y22385541D01*
X5749181Y22353717D01*
X5641281Y22245817D01*
X5564993Y22113683D01*
X5525500Y21966293D01*
X5525500Y21813708D01*
X5564993Y21666318D01*
X5641281Y21534184D01*
X5641283Y21534182D01*
X5641285Y21534179D01*
X5749179Y21426285D01*
X5749181Y21426284D01*
X5749183Y21426282D01*
X5881318Y21349994D01*
X5881319Y21349994D01*
X5881322Y21349992D01*
X6028707Y21310500D01*
X6028708Y21310500D01*
X6181292Y21310500D01*
X6181293Y21310500D01*
X6328678Y21349992D01*
X6328680Y21349994D01*
X6328682Y21349994D01*
X6353839Y21364518D01*
X6460816Y21426282D01*
X6460816Y21426283D01*
X6460821Y21426285D01*
X6568715Y21534179D01*
X6645008Y21666322D01*
X6684500Y21813707D01*
X6684500Y21966293D01*
X6645008Y22113678D01*
X6645006Y22113681D01*
X6645006Y22113683D01*
X6568718Y22245817D01*
X6568716Y22245819D01*
X6568715Y22245821D01*
X6460821Y22353715D01*
X6460818Y22353717D01*
X6460817Y22353718D01*
X6455672Y22357666D01*
X6456981Y22359373D01*
X6422496Y22397686D01*
X6416111Y22458538D01*
X6442941Y22507942D01*
X6455000Y22520001D01*
X6455000Y23020000D01*
X6755000Y23020000D01*
X6755000Y22520001D01*
X6755001Y22520000D01*
X7233792Y22520000D01*
X7233795Y22520001D01*
X7388349Y22550743D01*
X7533940Y22611049D01*
X7533949Y22611053D01*
X7664969Y22698600D01*
X7664973Y22698603D01*
X7776397Y22810027D01*
X7776400Y22810031D01*
X7863947Y22941051D01*
X7863951Y22941060D01*
X7924257Y23086652D01*
X7940836Y23170000D01*
X7414808Y23170000D01*
X7434556Y23204204D01*
X7455000Y23280504D01*
X7455000Y23359496D01*
X7434556Y23435796D01*
X7414808Y23470000D01*
X7940835Y23470000D01*
X7940835Y23470001D01*
X7924257Y23553349D01*
X7887994Y23640896D01*
X7887993Y23640898D01*
X7874316Y23673919D01*
X22449500Y23673919D01*
X22449500Y23526082D01*
X22478342Y23381086D01*
X22518591Y23283917D01*
X22534916Y23244505D01*
X22617049Y23121584D01*
X22721584Y23017049D01*
X22844505Y22934916D01*
X22981087Y22878342D01*
X23126082Y22849500D01*
X23126083Y22849500D01*
X23273917Y22849500D01*
X23273918Y22849500D01*
X23418913Y22878342D01*
X23555495Y22934916D01*
X23678416Y23017049D01*
X23782951Y23121584D01*
X23865084Y23244505D01*
X23908536Y23349409D01*
X23948272Y23395934D01*
X24007767Y23410218D01*
X24064295Y23386804D01*
X24091464Y23349408D01*
X24134915Y23244506D01*
X24134916Y23244505D01*
X24217049Y23121584D01*
X24321584Y23017049D01*
X24444505Y22934916D01*
X24581087Y22878342D01*
X24726082Y22849500D01*
X24726083Y22849500D01*
X24873917Y22849500D01*
X24873918Y22849500D01*
X25018913Y22878342D01*
X25155495Y22934916D01*
X25278416Y23017049D01*
X25382951Y23121584D01*
X25465084Y23244505D01*
X25481410Y23283919D01*
X41499500Y23283919D01*
X41499500Y23136082D01*
X41528342Y22991086D01*
X41575042Y22878343D01*
X41584916Y22854505D01*
X41667049Y22731584D01*
X41771584Y22627049D01*
X41894505Y22544916D01*
X42031087Y22488342D01*
X42176082Y22459500D01*
X42176083Y22459500D01*
X42323917Y22459500D01*
X42323918Y22459500D01*
X42468913Y22488342D01*
X42605495Y22544916D01*
X42728416Y22627049D01*
X42832951Y22731584D01*
X42915084Y22854505D01*
X42971658Y22991087D01*
X43000500Y23136082D01*
X43000500Y23283918D01*
X42971658Y23428913D01*
X42915084Y23565495D01*
X42832951Y23688416D01*
X42728416Y23792951D01*
X42605495Y23875084D01*
X42605493Y23875085D01*
X42468914Y23931658D01*
X42323918Y23960500D01*
X42176082Y23960500D01*
X42176081Y23960500D01*
X42031085Y23931658D01*
X41894506Y23875085D01*
X41771585Y23792952D01*
X41667048Y23688415D01*
X41584915Y23565494D01*
X41528342Y23428915D01*
X41499500Y23283919D01*
X25481410Y23283919D01*
X25521658Y23381087D01*
X25550500Y23526082D01*
X25550500Y23673918D01*
X25521658Y23818913D01*
X25465084Y23955495D01*
X25382951Y24078416D01*
X25278416Y24182951D01*
X25155495Y24265084D01*
X25155493Y24265085D01*
X25018914Y24321658D01*
X24873918Y24350500D01*
X24726082Y24350500D01*
X24726081Y24350500D01*
X24581085Y24321658D01*
X24444506Y24265085D01*
X24321585Y24182952D01*
X24217048Y24078415D01*
X24134915Y23955494D01*
X24091464Y23850593D01*
X24051728Y23804067D01*
X23992233Y23789783D01*
X23935705Y23813198D01*
X23908536Y23850593D01*
X23891836Y23890910D01*
X23865084Y23955495D01*
X23782951Y24078416D01*
X23678416Y24182951D01*
X23555495Y24265084D01*
X23555493Y24265085D01*
X23418914Y24321658D01*
X23273918Y24350500D01*
X23126082Y24350500D01*
X23126081Y24350500D01*
X22981085Y24321658D01*
X22844506Y24265085D01*
X22721585Y24182952D01*
X22617048Y24078415D01*
X22534915Y23955494D01*
X22478342Y23818915D01*
X22449500Y23673919D01*
X7874316Y23673919D01*
X7863953Y23698938D01*
X7863947Y23698950D01*
X7776400Y23829970D01*
X7776397Y23829974D01*
X7664973Y23941398D01*
X7664969Y23941401D01*
X7533949Y24028948D01*
X7533940Y24028952D01*
X7388349Y24089258D01*
X7233795Y24120000D01*
X6755001Y24120000D01*
X6755000Y24119999D01*
X6755000Y23620000D01*
X6455000Y23620000D01*
X6455000Y24119999D01*
X6454999Y24120000D01*
X5976204Y24120000D01*
X5821650Y24089258D01*
X5676059Y24028952D01*
X5676050Y24028948D01*
X5545030Y23941401D01*
X5545026Y23941398D01*
X5433602Y23829974D01*
X5433599Y23829970D01*
X5346052Y23698950D01*
X5346048Y23698941D01*
X5285742Y23553349D01*
X5269164Y23470001D01*
X3610835Y23470001D01*
X3594257Y23553349D01*
X3533951Y23698941D01*
X3533947Y23698950D01*
X3446400Y23829970D01*
X3446397Y23829974D01*
X3334973Y23941398D01*
X3334969Y23941401D01*
X3203949Y24028948D01*
X3203940Y24028952D01*
X3058349Y24089258D01*
X2903795Y24120000D01*
X2575001Y24120000D01*
X2575000Y24119999D01*
X2575000Y23620000D01*
X2275000Y23620000D01*
X2275000Y24119999D01*
X2274999Y24120000D01*
X1946204Y24120000D01*
X1791650Y24089258D01*
X1646059Y24028952D01*
X1646050Y24028948D01*
X1515030Y23941401D01*
X1515026Y23941398D01*
X1403602Y23829974D01*
X1403599Y23829970D01*
X1316052Y23698950D01*
X1316048Y23698941D01*
X1255742Y23553349D01*
X1239164Y23470001D01*
X500500Y23470001D01*
X500500Y26573488D01*
X15173050Y26573488D01*
X15173050Y26346513D01*
X15208553Y26122348D01*
X15241294Y26021584D01*
X15278692Y25906483D01*
X15334065Y25797809D01*
X15343983Y25778342D01*
X15381734Y25704253D01*
X15515142Y25520632D01*
X15675632Y25360142D01*
X15859253Y25226734D01*
X16061483Y25123692D01*
X16277343Y25053555D01*
X16277344Y25053555D01*
X16277347Y25053554D01*
X16501513Y25018050D01*
X16501516Y25018050D01*
X16728487Y25018050D01*
X16952652Y25053554D01*
X16952653Y25053555D01*
X16952657Y25053555D01*
X17168517Y25123692D01*
X17370747Y25226734D01*
X17554368Y25360142D01*
X17714858Y25520632D01*
X17848266Y25704253D01*
X17951308Y25906483D01*
X18021445Y26122343D01*
X18024955Y26144505D01*
X18056950Y26346513D01*
X18056950Y26573488D01*
X18348050Y26573488D01*
X18348050Y26346513D01*
X18383553Y26122348D01*
X18416294Y26021584D01*
X18453692Y25906483D01*
X18509065Y25797809D01*
X18518983Y25778342D01*
X18556734Y25704253D01*
X18690142Y25520632D01*
X18850632Y25360142D01*
X19034253Y25226734D01*
X19236483Y25123692D01*
X19452343Y25053555D01*
X19452344Y25053555D01*
X19452347Y25053554D01*
X19676513Y25018050D01*
X19676516Y25018050D01*
X19903487Y25018050D01*
X20127652Y25053554D01*
X20127653Y25053555D01*
X20127657Y25053555D01*
X20343517Y25123692D01*
X20545747Y25226734D01*
X20729368Y25360142D01*
X20889858Y25520632D01*
X21023266Y25704253D01*
X21126308Y25906483D01*
X21196445Y26122343D01*
X21199955Y26144505D01*
X21231950Y26346513D01*
X21231950Y26573488D01*
X21231882Y26573918D01*
X27749500Y26573918D01*
X27749500Y26426082D01*
X27778342Y26281087D01*
X27834916Y26144505D01*
X27917049Y26021584D01*
X28021584Y25917049D01*
X28144505Y25834916D01*
X28281087Y25778342D01*
X28426082Y25749500D01*
X28426083Y25749500D01*
X28573917Y25749500D01*
X28573918Y25749500D01*
X28718913Y25778342D01*
X28855495Y25834916D01*
X28978416Y25917049D01*
X29082951Y26021584D01*
X29165084Y26144505D01*
X29221658Y26281087D01*
X29250500Y26426082D01*
X29250500Y26573918D01*
X29221658Y26718913D01*
X29165084Y26855495D01*
X29082951Y26978416D01*
X28978416Y27082951D01*
X28855495Y27165084D01*
X28855493Y27165085D01*
X28718914Y27221658D01*
X28573918Y27250500D01*
X28426082Y27250500D01*
X28426081Y27250500D01*
X28281085Y27221658D01*
X28144506Y27165085D01*
X28021585Y27082952D01*
X27917048Y26978415D01*
X27834915Y26855494D01*
X27778342Y26718915D01*
X27778342Y26718913D01*
X27749500Y26573918D01*
X21231882Y26573918D01*
X21196446Y26797653D01*
X21177653Y26855494D01*
X21126308Y27013517D01*
X21023266Y27215747D01*
X20889858Y27399368D01*
X20729368Y27559858D01*
X20545747Y27693266D01*
X20545746Y27693267D01*
X20545744Y27693268D01*
X20452191Y27740935D01*
X20343517Y27796308D01*
X20343514Y27796309D01*
X20343512Y27796310D01*
X20127652Y27866447D01*
X19903487Y27901950D01*
X19903484Y27901950D01*
X19676516Y27901950D01*
X19676513Y27901950D01*
X19452347Y27866447D01*
X19236487Y27796310D01*
X19034255Y27693268D01*
X18945574Y27628837D01*
X18850632Y27559858D01*
X18690142Y27399368D01*
X18632141Y27319536D01*
X18556732Y27215745D01*
X18453690Y27013513D01*
X18383553Y26797653D01*
X18348050Y26573488D01*
X18056950Y26573488D01*
X18021446Y26797653D01*
X18002653Y26855494D01*
X17951308Y27013517D01*
X17848266Y27215747D01*
X17714858Y27399368D01*
X17554368Y27559858D01*
X17370747Y27693266D01*
X17370746Y27693267D01*
X17370744Y27693268D01*
X17277191Y27740935D01*
X17168517Y27796308D01*
X17168514Y27796309D01*
X17168512Y27796310D01*
X16952652Y27866447D01*
X16728487Y27901950D01*
X16728484Y27901950D01*
X16501516Y27901950D01*
X16501513Y27901950D01*
X16277347Y27866447D01*
X16061487Y27796310D01*
X15859255Y27693268D01*
X15770574Y27628837D01*
X15675632Y27559858D01*
X15515142Y27399368D01*
X15457141Y27319536D01*
X15381732Y27215745D01*
X15278690Y27013513D01*
X15208553Y26797653D01*
X15173050Y26573488D01*
X500500Y26573488D01*
X500500Y28057852D01*
X13960200Y28057852D01*
X13960200Y27910149D01*
X13989013Y27765293D01*
X14045535Y27628837D01*
X14127589Y27506034D01*
X14127592Y27506030D01*
X14232030Y27401592D01*
X14354836Y27319536D01*
X14491291Y27263014D01*
X14636151Y27234200D01*
X14636152Y27234200D01*
X14783848Y27234200D01*
X14783849Y27234200D01*
X14928709Y27263014D01*
X15065164Y27319536D01*
X15187970Y27401592D01*
X15292408Y27506030D01*
X15374464Y27628836D01*
X15430986Y27765291D01*
X15459800Y27910151D01*
X15459800Y28057849D01*
X15430986Y28202709D01*
X15374464Y28339164D01*
X15292408Y28461970D01*
X15187970Y28566408D01*
X15070594Y28644836D01*
X15065163Y28648465D01*
X14928707Y28704987D01*
X14783851Y28733800D01*
X14783849Y28733800D01*
X14636151Y28733800D01*
X14636148Y28733800D01*
X14491292Y28704987D01*
X14354836Y28648465D01*
X14232033Y28566411D01*
X14127589Y28461967D01*
X14045535Y28339164D01*
X13989013Y28202708D01*
X13960200Y28057852D01*
X500500Y28057852D01*
X500500Y29073852D01*
X19040200Y29073852D01*
X19040200Y28926149D01*
X19069013Y28781293D01*
X19125535Y28644837D01*
X19207589Y28522034D01*
X19207592Y28522030D01*
X19312030Y28417592D01*
X19434836Y28335536D01*
X19571291Y28279014D01*
X19716151Y28250200D01*
X19716152Y28250200D01*
X19863848Y28250200D01*
X19863849Y28250200D01*
X20008709Y28279014D01*
X20145164Y28335536D01*
X20267970Y28417592D01*
X20372408Y28522030D01*
X20454464Y28644836D01*
X20510986Y28781291D01*
X20539800Y28926151D01*
X20539800Y29073849D01*
X20510986Y29218709D01*
X20454464Y29355164D01*
X20372408Y29477970D01*
X20267970Y29582408D01*
X20150594Y29660836D01*
X20145163Y29664465D01*
X20008707Y29720987D01*
X19863851Y29749800D01*
X19863849Y29749800D01*
X19716151Y29749800D01*
X19716148Y29749800D01*
X19571292Y29720987D01*
X19434836Y29664465D01*
X19312033Y29582411D01*
X19207589Y29477967D01*
X19125535Y29355164D01*
X19069013Y29218708D01*
X19040200Y29073852D01*
X500500Y29073852D01*
X500500Y30089852D01*
X13960200Y30089852D01*
X13960200Y29942149D01*
X13989013Y29797293D01*
X14045535Y29660837D01*
X14098822Y29581087D01*
X14127592Y29538030D01*
X14232030Y29433592D01*
X14354836Y29351536D01*
X14491291Y29295014D01*
X14636151Y29266200D01*
X14636152Y29266200D01*
X14783848Y29266200D01*
X14783849Y29266200D01*
X14928709Y29295014D01*
X15065164Y29351536D01*
X15187970Y29433592D01*
X15292408Y29538030D01*
X15374464Y29660836D01*
X15430986Y29797291D01*
X15459800Y29942151D01*
X15459800Y30089849D01*
X15430986Y30234709D01*
X15374464Y30371164D01*
X15292408Y30493970D01*
X15187970Y30598408D01*
X15187966Y30598411D01*
X15065163Y30680465D01*
X14928707Y30736987D01*
X14783851Y30765800D01*
X14783849Y30765800D01*
X14636151Y30765800D01*
X14636148Y30765800D01*
X14491292Y30736987D01*
X14354836Y30680465D01*
X14232033Y30598411D01*
X14127589Y30493967D01*
X14045535Y30371164D01*
X13989013Y30234708D01*
X13960200Y30089852D01*
X500500Y30089852D01*
X500500Y31653488D01*
X15173050Y31653488D01*
X15173050Y31426513D01*
X15208553Y31202348D01*
X15208555Y31202343D01*
X15278692Y30986483D01*
X15381734Y30784253D01*
X15515142Y30600632D01*
X15675632Y30440142D01*
X15859253Y30306734D01*
X16061483Y30203692D01*
X16277343Y30133555D01*
X16277344Y30133555D01*
X16277347Y30133554D01*
X16501513Y30098050D01*
X16501516Y30098050D01*
X16728487Y30098050D01*
X16952652Y30133554D01*
X16952653Y30133555D01*
X16952657Y30133555D01*
X17168517Y30203692D01*
X17370747Y30306734D01*
X17554368Y30440142D01*
X17714858Y30600632D01*
X17848266Y30784253D01*
X17951308Y30986483D01*
X18021445Y31202343D01*
X18056950Y31426516D01*
X18056950Y31653484D01*
X18056950Y31653488D01*
X18348050Y31653488D01*
X18348050Y31426513D01*
X18383553Y31202348D01*
X18383555Y31202343D01*
X18453692Y30986483D01*
X18556734Y30784253D01*
X18690142Y30600632D01*
X18850632Y30440142D01*
X19034253Y30306734D01*
X19236483Y30203692D01*
X19452343Y30133555D01*
X19452344Y30133555D01*
X19452347Y30133554D01*
X19676513Y30098050D01*
X19676516Y30098050D01*
X19903487Y30098050D01*
X20127652Y30133554D01*
X20127653Y30133555D01*
X20127657Y30133555D01*
X20343517Y30203692D01*
X20545747Y30306734D01*
X20661290Y30390681D01*
X20719478Y30409588D01*
X20777669Y30390681D01*
X20813633Y30341181D01*
X20813634Y30279996D01*
X20801795Y30255587D01*
X20734914Y30155493D01*
X20678342Y30018915D01*
X20649500Y29873919D01*
X20649500Y29726082D01*
X20678342Y29581086D01*
X20734915Y29444507D01*
X20734916Y29444505D01*
X20817049Y29321584D01*
X20921584Y29217049D01*
X21044505Y29134916D01*
X21181087Y29078342D01*
X21326082Y29049500D01*
X21326083Y29049500D01*
X21473917Y29049500D01*
X21473918Y29049500D01*
X21618913Y29078342D01*
X21755495Y29134916D01*
X21878416Y29217049D01*
X21982951Y29321584D01*
X22065084Y29444505D01*
X22121658Y29581087D01*
X22150500Y29726082D01*
X22150500Y29873918D01*
X22121658Y30018913D01*
X22065084Y30155495D01*
X21982951Y30278416D01*
X21878416Y30382951D01*
X21755495Y30465084D01*
X21755493Y30465085D01*
X21618914Y30521658D01*
X21473918Y30550500D01*
X21326082Y30550500D01*
X21326081Y30550500D01*
X21181085Y30521658D01*
X21044504Y30465085D01*
X21044504Y30465084D01*
X21005714Y30439166D01*
X20946826Y30422558D01*
X20889423Y30443736D01*
X20855431Y30494611D01*
X20857833Y30555749D01*
X20880709Y30591484D01*
X20889858Y30600632D01*
X21023266Y30784253D01*
X21126308Y30986483D01*
X21196445Y31202343D01*
X21231950Y31426516D01*
X21231950Y31653484D01*
X21231950Y31653488D01*
X21196446Y31877653D01*
X21182172Y31921586D01*
X21126308Y32093517D01*
X21023266Y32295747D01*
X20893817Y32473919D01*
X34049500Y32473919D01*
X34049500Y32326082D01*
X34078342Y32181086D01*
X34114616Y32093513D01*
X34134916Y32044505D01*
X34217049Y31921584D01*
X34321584Y31817049D01*
X34444505Y31734916D01*
X34581087Y31678342D01*
X34726082Y31649500D01*
X34726083Y31649500D01*
X34873917Y31649500D01*
X34873918Y31649500D01*
X35018913Y31678342D01*
X35155495Y31734916D01*
X35278416Y31817049D01*
X35382951Y31921584D01*
X35465084Y32044505D01*
X35521658Y32181087D01*
X35550500Y32326082D01*
X35550500Y32473918D01*
X35521658Y32618913D01*
X35465084Y32755495D01*
X35382951Y32878416D01*
X35278416Y32982951D01*
X35155495Y33065084D01*
X35155493Y33065085D01*
X35018914Y33121658D01*
X34873918Y33150500D01*
X34726082Y33150500D01*
X34726081Y33150500D01*
X34581085Y33121658D01*
X34444506Y33065085D01*
X34321585Y32982952D01*
X34217048Y32878415D01*
X34134915Y32755494D01*
X34078342Y32618915D01*
X34049500Y32473919D01*
X20893817Y32473919D01*
X20889858Y32479368D01*
X20729368Y32639858D01*
X20545747Y32773266D01*
X20545746Y32773267D01*
X20545744Y32773268D01*
X20452191Y32820935D01*
X20343517Y32876308D01*
X20343514Y32876309D01*
X20343512Y32876310D01*
X20127652Y32946447D01*
X19903487Y32981950D01*
X19903484Y32981950D01*
X19676516Y32981950D01*
X19676513Y32981950D01*
X19452347Y32946447D01*
X19236487Y32876310D01*
X19034255Y32773268D01*
X18942442Y32706562D01*
X18850632Y32639858D01*
X18690142Y32479368D01*
X18647438Y32420591D01*
X18556732Y32295745D01*
X18453690Y32093513D01*
X18383553Y31877653D01*
X18348050Y31653488D01*
X18056950Y31653488D01*
X18021446Y31877653D01*
X18007172Y31921586D01*
X17951308Y32093517D01*
X17848266Y32295747D01*
X17714858Y32479368D01*
X17554368Y32639858D01*
X17370747Y32773266D01*
X17370746Y32773267D01*
X17370744Y32773268D01*
X17277191Y32820935D01*
X17168517Y32876308D01*
X17168514Y32876309D01*
X17168512Y32876310D01*
X16952652Y32946447D01*
X16728487Y32981950D01*
X16728484Y32981950D01*
X16501516Y32981950D01*
X16501513Y32981950D01*
X16277347Y32946447D01*
X16061487Y32876310D01*
X15859255Y32773268D01*
X15767442Y32706562D01*
X15675632Y32639858D01*
X15515142Y32479368D01*
X15472438Y32420591D01*
X15381732Y32295745D01*
X15278690Y32093513D01*
X15208553Y31877653D01*
X15173050Y31653488D01*
X500500Y31653488D01*
X500500Y32997565D01*
X500619Y33002422D01*
X503737Y33065892D01*
X517113Y33338176D01*
X518063Y33347812D01*
X536769Y33473919D01*
X17449500Y33473919D01*
X17449500Y33326082D01*
X17478342Y33181086D01*
X17526392Y33065084D01*
X17534916Y33044505D01*
X17617049Y32921584D01*
X17721584Y32817049D01*
X17844505Y32734916D01*
X17981087Y32678342D01*
X18126082Y32649500D01*
X18126083Y32649500D01*
X18273917Y32649500D01*
X18273918Y32649500D01*
X18418913Y32678342D01*
X18555495Y32734916D01*
X18678416Y32817049D01*
X18782951Y32921584D01*
X18865084Y33044505D01*
X18921658Y33181087D01*
X18950500Y33326082D01*
X18950500Y33473918D01*
X18921658Y33618913D01*
X18865084Y33755495D01*
X18782951Y33878416D01*
X18678416Y33982951D01*
X18555495Y34065084D01*
X18555493Y34065085D01*
X18418914Y34121658D01*
X18273918Y34150500D01*
X18126082Y34150500D01*
X18126081Y34150500D01*
X17981085Y34121658D01*
X17844506Y34065085D01*
X17721585Y33982952D01*
X17617048Y33878415D01*
X17534915Y33755494D01*
X17478342Y33618915D01*
X17449500Y33473919D01*
X536769Y33473919D01*
X567029Y33677920D01*
X568918Y33687418D01*
X650009Y34011151D01*
X652818Y34020410D01*
X765249Y34334633D01*
X768958Y34343588D01*
X911644Y34645272D01*
X916211Y34653815D01*
X1087780Y34940062D01*
X1093163Y34948117D01*
X1291957Y35216159D01*
X1298107Y35223654D01*
X1522228Y35470933D01*
X1529067Y35477772D01*
X1776346Y35701893D01*
X1783841Y35708043D01*
X2051883Y35906837D01*
X2059938Y35912220D01*
X2346185Y36083789D01*
X2354728Y36088356D01*
X2656412Y36231042D01*
X2665367Y36234751D01*
X2979590Y36347182D01*
X2988849Y36349991D01*
X3312582Y36431082D01*
X3322080Y36432971D01*
X3652186Y36481937D01*
X3661824Y36482887D01*
X3970606Y36498056D01*
X3997579Y36499381D01*
X4002436Y36499500D01*
X4065892Y36499500D01*
X50934108Y36499500D01*
X50997564Y36499500D01*
X51002421Y36499381D01*
G37*
%TD.AperFunction*%
%TD*%
M02*
