%TF.GenerationSoftware,KiCad,Pcbnew,9.0.6*%
%TF.CreationDate,2025-12-11T07:51:36+01:00*%
%TF.ProjectId,ch32-baseboard-kicad,63683332-2d62-4617-9365-626f6172642d,rev?*%
%TF.SameCoordinates,PX5b8d800PY8954400*%
%TF.FileFunction,Soldermask,Bot*%
%TF.FilePolarity,Negative*%
%FSLAX46Y46*%
G04 Gerber Fmt 4.6, Leading zero omitted, Abs format (unit mm)*
G04 Created by KiCad (PCBNEW 9.0.6) date 2025-12-11 07:51:36*
%MOMM*%
%LPD*%
G01*
G04 APERTURE LIST*
G04 APERTURE END LIST*
G36*
X4484211Y8264282D02*
G01*
X4801835Y8201103D01*
X5111737Y8107095D01*
X5410932Y7983165D01*
X5696539Y7830504D01*
X5965808Y7650585D01*
X6216145Y7445139D01*
X6445139Y7216145D01*
X6650585Y6965808D01*
X6830504Y6696539D01*
X6983165Y6410932D01*
X7107095Y6111737D01*
X7201103Y5801835D01*
X7264282Y5484211D01*
X7296025Y5161923D01*
X7296025Y4838077D01*
X7264282Y4515789D01*
X7201103Y4198165D01*
X7107095Y3888263D01*
X6983165Y3589068D01*
X6830504Y3303461D01*
X6650585Y3034192D01*
X6445139Y2783855D01*
X6216145Y2554861D01*
X5965808Y2349415D01*
X5696539Y2169496D01*
X5410932Y2016835D01*
X5111737Y1892905D01*
X4801835Y1798897D01*
X4484211Y1735718D01*
X4161923Y1703975D01*
X3838077Y1703975D01*
X3515789Y1735718D01*
X3198165Y1798897D01*
X2888263Y1892905D01*
X2589068Y2016835D01*
X2303461Y2169496D01*
X2034192Y2349415D01*
X1783855Y2554861D01*
X1554861Y2783855D01*
X1349415Y3034192D01*
X1169496Y3303461D01*
X1016835Y3589068D01*
X892905Y3888263D01*
X798897Y4198165D01*
X735718Y4515789D01*
X703975Y4838077D01*
X703975Y5161923D01*
X735718Y5484211D01*
X798897Y5801835D01*
X892905Y6111737D01*
X1016835Y6410932D01*
X1169496Y6696539D01*
X1349415Y6965808D01*
X1554861Y7216145D01*
X1783855Y7445139D01*
X2034192Y7650585D01*
X2303461Y7830504D01*
X2589068Y7983165D01*
X2888263Y8107095D01*
X3198165Y8201103D01*
X3515789Y8264282D01*
X3838077Y8296025D01*
X4161923Y8296025D01*
X4484211Y8264282D01*
G37*
G36*
X51484211Y8264282D02*
G01*
X51801835Y8201103D01*
X52111737Y8107095D01*
X52410932Y7983165D01*
X52696539Y7830504D01*
X52965808Y7650585D01*
X53216145Y7445139D01*
X53445139Y7216145D01*
X53650585Y6965808D01*
X53830504Y6696539D01*
X53983165Y6410932D01*
X54107095Y6111737D01*
X54201103Y5801835D01*
X54264282Y5484211D01*
X54296025Y5161923D01*
X54296025Y4838077D01*
X54264282Y4515789D01*
X54201103Y4198165D01*
X54107095Y3888263D01*
X53983165Y3589068D01*
X53830504Y3303461D01*
X53650585Y3034192D01*
X53445139Y2783855D01*
X53216145Y2554861D01*
X52965808Y2349415D01*
X52696539Y2169496D01*
X52410932Y2016835D01*
X52111737Y1892905D01*
X51801835Y1798897D01*
X51484211Y1735718D01*
X51161923Y1703975D01*
X50838077Y1703975D01*
X50515789Y1735718D01*
X50198165Y1798897D01*
X49888263Y1892905D01*
X49589068Y2016835D01*
X49303461Y2169496D01*
X49034192Y2349415D01*
X48783855Y2554861D01*
X48554861Y2783855D01*
X48349415Y3034192D01*
X48169496Y3303461D01*
X48016835Y3589068D01*
X47892905Y3888263D01*
X47798897Y4198165D01*
X47735718Y4515789D01*
X47703975Y4838077D01*
X47703975Y5161923D01*
X47735718Y5484211D01*
X47798897Y5801835D01*
X47892905Y6111737D01*
X48016835Y6410932D01*
X48169496Y6696539D01*
X48349415Y6965808D01*
X48554861Y7216145D01*
X48783855Y7445139D01*
X49034192Y7650585D01*
X49303461Y7830504D01*
X49589068Y7983165D01*
X49888263Y8107095D01*
X50198165Y8201103D01*
X50515789Y8264282D01*
X50838077Y8296025D01*
X51161923Y8296025D01*
X51484211Y8264282D01*
G37*
G36*
X2828686Y15279759D02*
G01*
X2882577Y15277111D01*
X2889210Y15275792D01*
X2903316Y15274867D01*
X2930562Y15267567D01*
X2999099Y15253934D01*
X3031448Y15240535D01*
X3054610Y15234328D01*
X3075377Y15222338D01*
X3107722Y15208940D01*
X3165816Y15170123D01*
X3190257Y15156012D01*
X3196946Y15149323D01*
X3205481Y15143620D01*
X3288619Y15060482D01*
X3294321Y15051948D01*
X3301012Y15045257D01*
X3315124Y15020814D01*
X3353939Y14962723D01*
X3367335Y14930382D01*
X3379328Y14909610D01*
X3385535Y14886445D01*
X3398933Y14854100D01*
X3412565Y14785567D01*
X3419867Y14758316D01*
X3419867Y14748859D01*
X3421870Y14738789D01*
X3421870Y14621212D01*
X3419867Y14611143D01*
X3419867Y14601684D01*
X3412564Y14574431D01*
X3398933Y14505901D01*
X3385535Y14473559D01*
X3379328Y14450390D01*
X3367334Y14429617D01*
X3353939Y14397278D01*
X3315128Y14339195D01*
X3301012Y14314743D01*
X3294319Y14308051D01*
X3288619Y14299519D01*
X3205481Y14216381D01*
X3196949Y14210681D01*
X3190257Y14203988D01*
X3165805Y14189872D01*
X3107722Y14151061D01*
X3075383Y14137666D01*
X3054610Y14125672D01*
X3031441Y14119465D01*
X2999099Y14106067D01*
X2930576Y14092438D01*
X2903316Y14085133D01*
X2889203Y14084209D01*
X2882577Y14082890D01*
X2828691Y14080242D01*
X2825000Y14080000D01*
X2823768Y14080000D01*
X2026232Y14080000D01*
X2025000Y14080000D01*
X2021308Y14080242D01*
X1967422Y14082890D01*
X1960795Y14084209D01*
X1946684Y14085133D01*
X1919426Y14092437D01*
X1850900Y14106067D01*
X1818555Y14119465D01*
X1795390Y14125672D01*
X1774618Y14137665D01*
X1742277Y14151061D01*
X1684186Y14189876D01*
X1659743Y14203988D01*
X1653052Y14210679D01*
X1644518Y14216381D01*
X1561380Y14299519D01*
X1555677Y14308054D01*
X1548988Y14314743D01*
X1534877Y14339184D01*
X1496060Y14397278D01*
X1482662Y14429623D01*
X1470672Y14450390D01*
X1464465Y14473552D01*
X1451066Y14505901D01*
X1437433Y14574437D01*
X1430133Y14601684D01*
X1430133Y14611142D01*
X1428130Y14621212D01*
X1428130Y14738789D01*
X1430133Y14748860D01*
X1430133Y14758316D01*
X1437433Y14785561D01*
X1451066Y14854100D01*
X1464466Y14886452D01*
X1470672Y14909610D01*
X1482660Y14930376D01*
X1496060Y14962723D01*
X1534881Y15020825D01*
X1548988Y15045257D01*
X1555675Y15051945D01*
X1561380Y15060482D01*
X1644518Y15143620D01*
X1653055Y15149325D01*
X1659743Y15156012D01*
X1684175Y15170119D01*
X1742277Y15208940D01*
X1774624Y15222340D01*
X1795390Y15234328D01*
X1818548Y15240534D01*
X1850900Y15253934D01*
X1919440Y15267568D01*
X1946684Y15274867D01*
X1960787Y15275792D01*
X1967422Y15277111D01*
X2021313Y15279759D01*
X2025000Y15280000D01*
X2825000Y15280000D01*
X2828686Y15279759D01*
G37*
G36*
X7158686Y15279759D02*
G01*
X7212577Y15277111D01*
X7219210Y15275792D01*
X7233316Y15274867D01*
X7260562Y15267567D01*
X7329099Y15253934D01*
X7361448Y15240535D01*
X7384610Y15234328D01*
X7405377Y15222338D01*
X7437722Y15208940D01*
X7495816Y15170123D01*
X7520257Y15156012D01*
X7526946Y15149323D01*
X7535481Y15143620D01*
X7618619Y15060482D01*
X7624321Y15051948D01*
X7631012Y15045257D01*
X7645124Y15020814D01*
X7683939Y14962723D01*
X7697335Y14930382D01*
X7709328Y14909610D01*
X7715535Y14886445D01*
X7728933Y14854100D01*
X7742565Y14785567D01*
X7749867Y14758316D01*
X7749867Y14748859D01*
X7751870Y14738789D01*
X7751870Y14621212D01*
X7749867Y14611143D01*
X7749867Y14601684D01*
X7742564Y14574431D01*
X7728933Y14505901D01*
X7715535Y14473559D01*
X7709328Y14450390D01*
X7697334Y14429617D01*
X7683939Y14397278D01*
X7645128Y14339195D01*
X7631012Y14314743D01*
X7624319Y14308051D01*
X7618619Y14299519D01*
X7535481Y14216381D01*
X7526949Y14210681D01*
X7520257Y14203988D01*
X7495805Y14189872D01*
X7437722Y14151061D01*
X7405383Y14137666D01*
X7384610Y14125672D01*
X7361441Y14119465D01*
X7329099Y14106067D01*
X7260576Y14092438D01*
X7233316Y14085133D01*
X7219203Y14084209D01*
X7212577Y14082890D01*
X7158691Y14080242D01*
X7155000Y14080000D01*
X7153768Y14080000D01*
X6056232Y14080000D01*
X6055000Y14080000D01*
X6051308Y14080242D01*
X5997422Y14082890D01*
X5990795Y14084209D01*
X5976684Y14085133D01*
X5949426Y14092437D01*
X5880900Y14106067D01*
X5848555Y14119465D01*
X5825390Y14125672D01*
X5804618Y14137665D01*
X5772277Y14151061D01*
X5714186Y14189876D01*
X5689743Y14203988D01*
X5683052Y14210679D01*
X5674518Y14216381D01*
X5591380Y14299519D01*
X5585677Y14308054D01*
X5578988Y14314743D01*
X5564877Y14339184D01*
X5526060Y14397278D01*
X5512662Y14429623D01*
X5500672Y14450390D01*
X5494465Y14473552D01*
X5481066Y14505901D01*
X5467433Y14574437D01*
X5460133Y14601684D01*
X5460133Y14611142D01*
X5458130Y14621212D01*
X5458130Y14738789D01*
X5460133Y14748860D01*
X5460133Y14758316D01*
X5467433Y14785561D01*
X5481066Y14854100D01*
X5494466Y14886452D01*
X5500672Y14909610D01*
X5512660Y14930376D01*
X5526060Y14962723D01*
X5564881Y15020825D01*
X5578988Y15045257D01*
X5585675Y15051945D01*
X5591380Y15060482D01*
X5674518Y15143620D01*
X5683055Y15149325D01*
X5689743Y15156012D01*
X5714175Y15170119D01*
X5772277Y15208940D01*
X5804624Y15222340D01*
X5825390Y15234328D01*
X5848548Y15240534D01*
X5880900Y15253934D01*
X5949440Y15267568D01*
X5976684Y15274867D01*
X5990787Y15275792D01*
X5997422Y15277111D01*
X6051313Y15279759D01*
X6055000Y15280000D01*
X7155000Y15280000D01*
X7158686Y15279759D01*
G37*
G36*
X6267640Y16502649D02*
G01*
X6363724Y16447175D01*
X6442175Y16368724D01*
X6497649Y16272640D01*
X6526364Y16165474D01*
X6526364Y16054526D01*
X6497649Y15947360D01*
X6442175Y15851276D01*
X6363724Y15772825D01*
X6267640Y15717351D01*
X6160474Y15688636D01*
X6049526Y15688636D01*
X5942360Y15717351D01*
X5846276Y15772825D01*
X5767825Y15851276D01*
X5712351Y15947360D01*
X5683636Y16054526D01*
X5683636Y16165474D01*
X5712351Y16272640D01*
X5767825Y16368724D01*
X5846276Y16447175D01*
X5942360Y16502649D01*
X6049526Y16531364D01*
X6160474Y16531364D01*
X6267640Y16502649D01*
G37*
G36*
X50568685Y18242031D02*
G01*
X50577358Y18238202D01*
X50584925Y18237099D01*
X50632223Y18213977D01*
X50669541Y18197499D01*
X50672996Y18194044D01*
X50673920Y18193592D01*
X50743591Y18123921D01*
X50744042Y18122998D01*
X50747499Y18119541D01*
X50763978Y18082218D01*
X50787098Y18034927D01*
X50788200Y18027361D01*
X50792031Y18018685D01*
X50800000Y17950000D01*
X50800000Y17550000D01*
X50792031Y17481315D01*
X50788199Y17472639D01*
X50787098Y17465075D01*
X50763985Y17417798D01*
X50747499Y17380459D01*
X50744041Y17377002D01*
X50743591Y17376080D01*
X50673920Y17306409D01*
X50672998Y17305959D01*
X50669541Y17302501D01*
X50632207Y17286017D01*
X50584926Y17262902D01*
X50577361Y17261800D01*
X50568685Y17257969D01*
X50500000Y17250000D01*
X49600000Y17250000D01*
X49531315Y17257969D01*
X49522638Y17261800D01*
X49515074Y17262902D01*
X49467787Y17286019D01*
X49430459Y17302501D01*
X49427002Y17305958D01*
X49426079Y17306409D01*
X49356408Y17376080D01*
X49355956Y17377004D01*
X49352501Y17380459D01*
X49336025Y17417772D01*
X49312901Y17465074D01*
X49311798Y17472643D01*
X49307969Y17481315D01*
X49300000Y17550000D01*
X49300000Y17950000D01*
X49307969Y18018685D01*
X49311798Y18027358D01*
X49312901Y18034926D01*
X49336028Y18082234D01*
X49352501Y18119541D01*
X49355955Y18122996D01*
X49356408Y18123921D01*
X49426079Y18193592D01*
X49427004Y18194045D01*
X49430459Y18197499D01*
X49467761Y18213970D01*
X49515073Y18237099D01*
X49522642Y18238202D01*
X49531315Y18242031D01*
X49600000Y18250000D01*
X50500000Y18250000D01*
X50568685Y18242031D01*
G37*
G36*
X50365263Y19495722D02*
G01*
X50491342Y19461940D01*
X50604381Y19396677D01*
X50696677Y19304381D01*
X50761940Y19191342D01*
X50795722Y19065263D01*
X50795722Y18934737D01*
X50761940Y18808658D01*
X50696677Y18695619D01*
X50604381Y18603323D01*
X50491342Y18538060D01*
X50365263Y18504278D01*
X50300000Y18500000D01*
X50298363Y18500000D01*
X49801637Y18500000D01*
X49800000Y18500000D01*
X49734737Y18504278D01*
X49608658Y18538060D01*
X49495619Y18603323D01*
X49403323Y18695619D01*
X49338060Y18808658D01*
X49304278Y18934737D01*
X49304278Y19065263D01*
X49338060Y19191342D01*
X49403323Y19304381D01*
X49495619Y19396677D01*
X49608658Y19461940D01*
X49734737Y19495722D01*
X49800000Y19500000D01*
X50300000Y19500000D01*
X50365263Y19495722D01*
G37*
G36*
X50365263Y20745722D02*
G01*
X50491342Y20711940D01*
X50604381Y20646677D01*
X50696677Y20554381D01*
X50761940Y20441342D01*
X50795722Y20315263D01*
X50795722Y20184737D01*
X50761940Y20058658D01*
X50696677Y19945619D01*
X50604381Y19853323D01*
X50491342Y19788060D01*
X50365263Y19754278D01*
X50300000Y19750000D01*
X50298363Y19750000D01*
X49801637Y19750000D01*
X49800000Y19750000D01*
X49734737Y19754278D01*
X49608658Y19788060D01*
X49495619Y19853323D01*
X49403323Y19945619D01*
X49338060Y20058658D01*
X49304278Y20184737D01*
X49304278Y20315263D01*
X49338060Y20441342D01*
X49403323Y20554381D01*
X49495619Y20646677D01*
X49608658Y20711940D01*
X49734737Y20745722D01*
X49800000Y20750000D01*
X50300000Y20750000D01*
X50365263Y20745722D01*
G37*
G36*
X6267640Y22282649D02*
G01*
X6363724Y22227175D01*
X6442175Y22148724D01*
X6497649Y22052640D01*
X6526364Y21945474D01*
X6526364Y21834526D01*
X6497649Y21727360D01*
X6442175Y21631276D01*
X6363724Y21552825D01*
X6267640Y21497351D01*
X6160474Y21468636D01*
X6049526Y21468636D01*
X5942360Y21497351D01*
X5846276Y21552825D01*
X5767825Y21631276D01*
X5712351Y21727360D01*
X5683636Y21834526D01*
X5683636Y21945474D01*
X5712351Y22052640D01*
X5767825Y22148724D01*
X5846276Y22227175D01*
X5942360Y22282649D01*
X6049526Y22311364D01*
X6160474Y22311364D01*
X6267640Y22282649D01*
G37*
G36*
X2828686Y23919759D02*
G01*
X2882577Y23917111D01*
X2889210Y23915792D01*
X2903316Y23914867D01*
X2930562Y23907567D01*
X2999099Y23893934D01*
X3031448Y23880535D01*
X3054610Y23874328D01*
X3075377Y23862338D01*
X3107722Y23848940D01*
X3165816Y23810123D01*
X3190257Y23796012D01*
X3196946Y23789323D01*
X3205481Y23783620D01*
X3288619Y23700482D01*
X3294321Y23691948D01*
X3301012Y23685257D01*
X3315124Y23660814D01*
X3353939Y23602723D01*
X3367335Y23570382D01*
X3379328Y23549610D01*
X3385535Y23526445D01*
X3398933Y23494100D01*
X3412565Y23425567D01*
X3419867Y23398316D01*
X3419867Y23388859D01*
X3421870Y23378789D01*
X3421870Y23261212D01*
X3419867Y23251143D01*
X3419867Y23241684D01*
X3412564Y23214431D01*
X3398933Y23145901D01*
X3385535Y23113559D01*
X3379328Y23090390D01*
X3367334Y23069617D01*
X3353939Y23037278D01*
X3315128Y22979195D01*
X3301012Y22954743D01*
X3294319Y22948051D01*
X3288619Y22939519D01*
X3205481Y22856381D01*
X3196949Y22850681D01*
X3190257Y22843988D01*
X3165805Y22829872D01*
X3107722Y22791061D01*
X3075383Y22777666D01*
X3054610Y22765672D01*
X3031441Y22759465D01*
X2999099Y22746067D01*
X2930576Y22732438D01*
X2903316Y22725133D01*
X2889203Y22724209D01*
X2882577Y22722890D01*
X2828691Y22720242D01*
X2825000Y22720000D01*
X2823768Y22720000D01*
X2026232Y22720000D01*
X2025000Y22720000D01*
X2021308Y22720242D01*
X1967422Y22722890D01*
X1960795Y22724209D01*
X1946684Y22725133D01*
X1919426Y22732437D01*
X1850900Y22746067D01*
X1818555Y22759465D01*
X1795390Y22765672D01*
X1774618Y22777665D01*
X1742277Y22791061D01*
X1684186Y22829876D01*
X1659743Y22843988D01*
X1653052Y22850679D01*
X1644518Y22856381D01*
X1561380Y22939519D01*
X1555677Y22948054D01*
X1548988Y22954743D01*
X1534877Y22979184D01*
X1496060Y23037278D01*
X1482662Y23069623D01*
X1470672Y23090390D01*
X1464465Y23113552D01*
X1451066Y23145901D01*
X1437433Y23214437D01*
X1430133Y23241684D01*
X1430133Y23251142D01*
X1428130Y23261212D01*
X1428130Y23378789D01*
X1430133Y23388860D01*
X1430133Y23398316D01*
X1437433Y23425561D01*
X1451066Y23494100D01*
X1464466Y23526452D01*
X1470672Y23549610D01*
X1482660Y23570376D01*
X1496060Y23602723D01*
X1534881Y23660825D01*
X1548988Y23685257D01*
X1555675Y23691945D01*
X1561380Y23700482D01*
X1644518Y23783620D01*
X1653055Y23789325D01*
X1659743Y23796012D01*
X1684175Y23810119D01*
X1742277Y23848940D01*
X1774624Y23862340D01*
X1795390Y23874328D01*
X1818548Y23880534D01*
X1850900Y23893934D01*
X1919440Y23907568D01*
X1946684Y23914867D01*
X1960787Y23915792D01*
X1967422Y23917111D01*
X2021313Y23919759D01*
X2025000Y23920000D01*
X2825000Y23920000D01*
X2828686Y23919759D01*
G37*
G36*
X7158686Y23919759D02*
G01*
X7212577Y23917111D01*
X7219210Y23915792D01*
X7233316Y23914867D01*
X7260562Y23907567D01*
X7329099Y23893934D01*
X7361448Y23880535D01*
X7384610Y23874328D01*
X7405377Y23862338D01*
X7437722Y23848940D01*
X7495816Y23810123D01*
X7520257Y23796012D01*
X7526946Y23789323D01*
X7535481Y23783620D01*
X7618619Y23700482D01*
X7624321Y23691948D01*
X7631012Y23685257D01*
X7645124Y23660814D01*
X7683939Y23602723D01*
X7697335Y23570382D01*
X7709328Y23549610D01*
X7715535Y23526445D01*
X7728933Y23494100D01*
X7742565Y23425567D01*
X7749867Y23398316D01*
X7749867Y23388859D01*
X7751870Y23378789D01*
X7751870Y23261212D01*
X7749867Y23251143D01*
X7749867Y23241684D01*
X7742564Y23214431D01*
X7728933Y23145901D01*
X7715535Y23113559D01*
X7709328Y23090390D01*
X7697334Y23069617D01*
X7683939Y23037278D01*
X7645128Y22979195D01*
X7631012Y22954743D01*
X7624319Y22948051D01*
X7618619Y22939519D01*
X7535481Y22856381D01*
X7526949Y22850681D01*
X7520257Y22843988D01*
X7495805Y22829872D01*
X7437722Y22791061D01*
X7405383Y22777666D01*
X7384610Y22765672D01*
X7361441Y22759465D01*
X7329099Y22746067D01*
X7260576Y22732438D01*
X7233316Y22725133D01*
X7219203Y22724209D01*
X7212577Y22722890D01*
X7158691Y22720242D01*
X7155000Y22720000D01*
X7153768Y22720000D01*
X6056232Y22720000D01*
X6055000Y22720000D01*
X6051308Y22720242D01*
X5997422Y22722890D01*
X5990795Y22724209D01*
X5976684Y22725133D01*
X5949426Y22732437D01*
X5880900Y22746067D01*
X5848555Y22759465D01*
X5825390Y22765672D01*
X5804618Y22777665D01*
X5772277Y22791061D01*
X5714186Y22829876D01*
X5689743Y22843988D01*
X5683052Y22850679D01*
X5674518Y22856381D01*
X5591380Y22939519D01*
X5585677Y22948054D01*
X5578988Y22954743D01*
X5564877Y22979184D01*
X5526060Y23037278D01*
X5512662Y23069623D01*
X5500672Y23090390D01*
X5494465Y23113552D01*
X5481066Y23145901D01*
X5467433Y23214437D01*
X5460133Y23241684D01*
X5460133Y23251142D01*
X5458130Y23261212D01*
X5458130Y23378789D01*
X5460133Y23388860D01*
X5460133Y23398316D01*
X5467433Y23425561D01*
X5481066Y23494100D01*
X5494466Y23526452D01*
X5500672Y23549610D01*
X5512660Y23570376D01*
X5526060Y23602723D01*
X5564881Y23660825D01*
X5578988Y23685257D01*
X5585675Y23691945D01*
X5591380Y23700482D01*
X5674518Y23783620D01*
X5683055Y23789325D01*
X5689743Y23796012D01*
X5714175Y23810119D01*
X5772277Y23848940D01*
X5804624Y23862340D01*
X5825390Y23874328D01*
X5848548Y23880534D01*
X5880900Y23893934D01*
X5949440Y23907568D01*
X5976684Y23914867D01*
X5990787Y23915792D01*
X5997422Y23917111D01*
X6051313Y23919759D01*
X6055000Y23920000D01*
X7155000Y23920000D01*
X7158686Y23919759D01*
G37*
G36*
X16915549Y27711878D02*
G01*
X17107686Y27649449D01*
X17287691Y27557732D01*
X17451132Y27438985D01*
X17593985Y27296132D01*
X17712732Y27132691D01*
X17804449Y26952686D01*
X17866878Y26760549D01*
X17898481Y26561012D01*
X17898481Y26358988D01*
X17866878Y26159451D01*
X17804449Y25967314D01*
X17712732Y25787309D01*
X17593985Y25623868D01*
X17451132Y25481015D01*
X17287691Y25362268D01*
X17107686Y25270551D01*
X16915549Y25208122D01*
X16716012Y25176519D01*
X16513988Y25176519D01*
X16314451Y25208122D01*
X16122314Y25270551D01*
X15942309Y25362268D01*
X15778868Y25481015D01*
X15636015Y25623868D01*
X15517268Y25787309D01*
X15425551Y25967314D01*
X15363122Y26159451D01*
X15331519Y26358988D01*
X15331519Y26561012D01*
X15363122Y26760549D01*
X15425551Y26952686D01*
X15517268Y27132691D01*
X15636015Y27296132D01*
X15778868Y27438985D01*
X15942309Y27557732D01*
X16122314Y27649449D01*
X16314451Y27711878D01*
X16513988Y27743481D01*
X16716012Y27743481D01*
X16915549Y27711878D01*
G37*
G36*
X20090549Y27711878D02*
G01*
X20282686Y27649449D01*
X20462691Y27557732D01*
X20626132Y27438985D01*
X20768985Y27296132D01*
X20887732Y27132691D01*
X20979449Y26952686D01*
X21041878Y26760549D01*
X21073481Y26561012D01*
X21073481Y26358988D01*
X21041878Y26159451D01*
X20979449Y25967314D01*
X20887732Y25787309D01*
X20768985Y25623868D01*
X20626132Y25481015D01*
X20462691Y25362268D01*
X20282686Y25270551D01*
X20090549Y25208122D01*
X19891012Y25176519D01*
X19688988Y25176519D01*
X19489451Y25208122D01*
X19297314Y25270551D01*
X19117309Y25362268D01*
X18953868Y25481015D01*
X18811015Y25623868D01*
X18692268Y25787309D01*
X18600551Y25967314D01*
X18538122Y26159451D01*
X18506519Y26358988D01*
X18506519Y26561012D01*
X18538122Y26760549D01*
X18600551Y26952686D01*
X18692268Y27132691D01*
X18811015Y27296132D01*
X18953868Y27438985D01*
X19117309Y27557732D01*
X19297314Y27649449D01*
X19489451Y27711878D01*
X19688988Y27743481D01*
X19891012Y27743481D01*
X20090549Y27711878D01*
G37*
G36*
X14778312Y28574207D02*
G01*
X14787702Y28574207D01*
X14814752Y28566959D01*
X14882734Y28553437D01*
X14914827Y28540144D01*
X14937811Y28533985D01*
X14958417Y28522088D01*
X14990507Y28508796D01*
X15048130Y28470293D01*
X15072396Y28456283D01*
X15079039Y28449640D01*
X15087499Y28443987D01*
X15169986Y28361500D01*
X15175638Y28353041D01*
X15182283Y28346396D01*
X15196294Y28322128D01*
X15234795Y28264508D01*
X15248085Y28232422D01*
X15259985Y28211811D01*
X15266144Y28188824D01*
X15279436Y28156735D01*
X15292958Y28088756D01*
X15300207Y28061702D01*
X15300207Y28052313D01*
X15302193Y28042328D01*
X15302193Y27925673D01*
X15300207Y27915689D01*
X15300207Y27906298D01*
X15292957Y27879242D01*
X15279436Y27811266D01*
X15266145Y27779180D01*
X15259985Y27756189D01*
X15248084Y27735577D01*
X15234795Y27703493D01*
X15196298Y27645881D01*
X15182283Y27621604D01*
X15175636Y27614958D01*
X15169986Y27606501D01*
X15087499Y27524014D01*
X15079042Y27518364D01*
X15072396Y27511717D01*
X15048119Y27497702D01*
X14990507Y27459205D01*
X14958423Y27445916D01*
X14937811Y27434015D01*
X14914820Y27427855D01*
X14882734Y27414564D01*
X14814758Y27401043D01*
X14787702Y27393793D01*
X14778311Y27393793D01*
X14768327Y27391807D01*
X14651673Y27391807D01*
X14641689Y27393793D01*
X14632298Y27393793D01*
X14605243Y27401043D01*
X14537265Y27414564D01*
X14505176Y27427856D01*
X14482189Y27434015D01*
X14461578Y27445915D01*
X14429492Y27459205D01*
X14371872Y27497706D01*
X14347604Y27511717D01*
X14340959Y27518362D01*
X14332500Y27524014D01*
X14250013Y27606501D01*
X14244360Y27614961D01*
X14237717Y27621604D01*
X14223707Y27645870D01*
X14185204Y27703493D01*
X14171912Y27735583D01*
X14160015Y27756189D01*
X14153856Y27779173D01*
X14140563Y27811266D01*
X14127041Y27879248D01*
X14119793Y27906298D01*
X14119793Y27915689D01*
X14117807Y27925673D01*
X14117807Y28042328D01*
X14119793Y28052313D01*
X14119793Y28061702D01*
X14127040Y28088750D01*
X14140563Y28156735D01*
X14153857Y28188831D01*
X14160015Y28211811D01*
X14171910Y28232416D01*
X14185204Y28264508D01*
X14223711Y28322139D01*
X14237717Y28346396D01*
X14244358Y28353038D01*
X14250013Y28361500D01*
X14332500Y28443987D01*
X14340962Y28449642D01*
X14347604Y28456283D01*
X14371861Y28470289D01*
X14429492Y28508796D01*
X14461584Y28522090D01*
X14482189Y28533985D01*
X14505169Y28540143D01*
X14537265Y28553437D01*
X14605248Y28566960D01*
X14632298Y28574207D01*
X14641688Y28574207D01*
X14651673Y28576193D01*
X14768327Y28576193D01*
X14778312Y28574207D01*
G37*
G36*
X19858312Y29590207D02*
G01*
X19867702Y29590207D01*
X19894752Y29582959D01*
X19962734Y29569437D01*
X19994827Y29556144D01*
X20017811Y29549985D01*
X20038417Y29538088D01*
X20070507Y29524796D01*
X20128130Y29486293D01*
X20152396Y29472283D01*
X20159039Y29465640D01*
X20167499Y29459987D01*
X20249986Y29377500D01*
X20255638Y29369041D01*
X20262283Y29362396D01*
X20276294Y29338128D01*
X20314795Y29280508D01*
X20328085Y29248422D01*
X20339985Y29227811D01*
X20346144Y29204824D01*
X20359436Y29172735D01*
X20372958Y29104756D01*
X20380207Y29077702D01*
X20380207Y29068313D01*
X20382193Y29058328D01*
X20382193Y28941673D01*
X20380207Y28931689D01*
X20380207Y28922298D01*
X20372957Y28895242D01*
X20359436Y28827266D01*
X20346145Y28795180D01*
X20339985Y28772189D01*
X20328084Y28751577D01*
X20314795Y28719493D01*
X20276298Y28661881D01*
X20262283Y28637604D01*
X20255636Y28630958D01*
X20249986Y28622501D01*
X20167499Y28540014D01*
X20159042Y28534364D01*
X20152396Y28527717D01*
X20128119Y28513702D01*
X20070507Y28475205D01*
X20038423Y28461916D01*
X20017811Y28450015D01*
X19994820Y28443855D01*
X19962734Y28430564D01*
X19894758Y28417043D01*
X19867702Y28409793D01*
X19858311Y28409793D01*
X19848327Y28407807D01*
X19731673Y28407807D01*
X19721689Y28409793D01*
X19712298Y28409793D01*
X19685243Y28417043D01*
X19617265Y28430564D01*
X19585176Y28443856D01*
X19562189Y28450015D01*
X19541578Y28461915D01*
X19509492Y28475205D01*
X19451872Y28513706D01*
X19427604Y28527717D01*
X19420959Y28534362D01*
X19412500Y28540014D01*
X19330013Y28622501D01*
X19324360Y28630961D01*
X19317717Y28637604D01*
X19303707Y28661870D01*
X19265204Y28719493D01*
X19251912Y28751583D01*
X19240015Y28772189D01*
X19233856Y28795173D01*
X19220563Y28827266D01*
X19207041Y28895248D01*
X19199793Y28922298D01*
X19199793Y28931689D01*
X19197807Y28941673D01*
X19197807Y29058328D01*
X19199793Y29068313D01*
X19199793Y29077702D01*
X19207040Y29104750D01*
X19220563Y29172735D01*
X19233857Y29204831D01*
X19240015Y29227811D01*
X19251910Y29248416D01*
X19265204Y29280508D01*
X19303711Y29338139D01*
X19317717Y29362396D01*
X19324358Y29369038D01*
X19330013Y29377500D01*
X19412500Y29459987D01*
X19420962Y29465642D01*
X19427604Y29472283D01*
X19451861Y29486289D01*
X19509492Y29524796D01*
X19541584Y29538090D01*
X19562189Y29549985D01*
X19585169Y29556143D01*
X19617265Y29569437D01*
X19685248Y29582960D01*
X19712298Y29590207D01*
X19721688Y29590207D01*
X19731673Y29592193D01*
X19848327Y29592193D01*
X19858312Y29590207D01*
G37*
G36*
X14778312Y30606207D02*
G01*
X14787702Y30606207D01*
X14814752Y30598959D01*
X14882734Y30585437D01*
X14914827Y30572144D01*
X14937811Y30565985D01*
X14958417Y30554088D01*
X14990507Y30540796D01*
X15048130Y30502293D01*
X15072396Y30488283D01*
X15079039Y30481640D01*
X15087499Y30475987D01*
X15169986Y30393500D01*
X15175638Y30385041D01*
X15182283Y30378396D01*
X15196294Y30354128D01*
X15234795Y30296508D01*
X15248085Y30264422D01*
X15259985Y30243811D01*
X15266144Y30220824D01*
X15279436Y30188735D01*
X15292958Y30120756D01*
X15300207Y30093702D01*
X15300207Y30084313D01*
X15302193Y30074328D01*
X15302193Y29957673D01*
X15300207Y29947689D01*
X15300207Y29938298D01*
X15292957Y29911242D01*
X15279436Y29843266D01*
X15266145Y29811180D01*
X15259985Y29788189D01*
X15248084Y29767577D01*
X15234795Y29735493D01*
X15196298Y29677881D01*
X15182283Y29653604D01*
X15175636Y29646958D01*
X15169986Y29638501D01*
X15087499Y29556014D01*
X15079042Y29550364D01*
X15072396Y29543717D01*
X15048119Y29529702D01*
X14990507Y29491205D01*
X14958423Y29477916D01*
X14937811Y29466015D01*
X14914820Y29459855D01*
X14882734Y29446564D01*
X14814758Y29433043D01*
X14787702Y29425793D01*
X14778311Y29425793D01*
X14768327Y29423807D01*
X14651673Y29423807D01*
X14641689Y29425793D01*
X14632298Y29425793D01*
X14605243Y29433043D01*
X14537265Y29446564D01*
X14505176Y29459856D01*
X14482189Y29466015D01*
X14461578Y29477915D01*
X14429492Y29491205D01*
X14371872Y29529706D01*
X14347604Y29543717D01*
X14340959Y29550362D01*
X14332500Y29556014D01*
X14250013Y29638501D01*
X14244360Y29646961D01*
X14237717Y29653604D01*
X14223707Y29677870D01*
X14185204Y29735493D01*
X14171912Y29767583D01*
X14160015Y29788189D01*
X14153856Y29811173D01*
X14140563Y29843266D01*
X14127041Y29911248D01*
X14119793Y29938298D01*
X14119793Y29947689D01*
X14117807Y29957673D01*
X14117807Y30074328D01*
X14119793Y30084313D01*
X14119793Y30093702D01*
X14127040Y30120750D01*
X14140563Y30188735D01*
X14153857Y30220831D01*
X14160015Y30243811D01*
X14171910Y30264416D01*
X14185204Y30296508D01*
X14223711Y30354139D01*
X14237717Y30378396D01*
X14244358Y30385038D01*
X14250013Y30393500D01*
X14332500Y30475987D01*
X14340962Y30481642D01*
X14347604Y30488283D01*
X14371861Y30502289D01*
X14429492Y30540796D01*
X14461584Y30554090D01*
X14482189Y30565985D01*
X14505169Y30572143D01*
X14537265Y30585437D01*
X14605248Y30598960D01*
X14632298Y30606207D01*
X14641688Y30606207D01*
X14651673Y30608193D01*
X14768327Y30608193D01*
X14778312Y30606207D01*
G37*
G36*
X4484211Y36264282D02*
G01*
X4801835Y36201103D01*
X5111737Y36107095D01*
X5410932Y35983165D01*
X5696539Y35830504D01*
X5965808Y35650585D01*
X6216145Y35445139D01*
X6445139Y35216145D01*
X6650585Y34965808D01*
X6830504Y34696539D01*
X6983165Y34410932D01*
X7107095Y34111737D01*
X7201103Y33801835D01*
X7264282Y33484211D01*
X7296025Y33161923D01*
X7296025Y32838077D01*
X7264282Y32515789D01*
X7201103Y32198165D01*
X7107095Y31888263D01*
X6983165Y31589068D01*
X6830504Y31303461D01*
X6650585Y31034192D01*
X6445139Y30783855D01*
X6216145Y30554861D01*
X5965808Y30349415D01*
X5696539Y30169496D01*
X5410932Y30016835D01*
X5111737Y29892905D01*
X4801835Y29798897D01*
X4484211Y29735718D01*
X4161923Y29703975D01*
X3838077Y29703975D01*
X3515789Y29735718D01*
X3198165Y29798897D01*
X2888263Y29892905D01*
X2589068Y30016835D01*
X2303461Y30169496D01*
X2034192Y30349415D01*
X1783855Y30554861D01*
X1554861Y30783855D01*
X1349415Y31034192D01*
X1169496Y31303461D01*
X1016835Y31589068D01*
X892905Y31888263D01*
X798897Y32198165D01*
X735718Y32515789D01*
X703975Y32838077D01*
X703975Y33161923D01*
X735718Y33484211D01*
X798897Y33801835D01*
X892905Y34111737D01*
X1016835Y34410932D01*
X1169496Y34696539D01*
X1349415Y34965808D01*
X1554861Y35216145D01*
X1783855Y35445139D01*
X2034192Y35650585D01*
X2303461Y35830504D01*
X2589068Y35983165D01*
X2888263Y36107095D01*
X3198165Y36201103D01*
X3515789Y36264282D01*
X3838077Y36296025D01*
X4161923Y36296025D01*
X4484211Y36264282D01*
G37*
G36*
X51484211Y36264282D02*
G01*
X51801835Y36201103D01*
X52111737Y36107095D01*
X52410932Y35983165D01*
X52696539Y35830504D01*
X52965808Y35650585D01*
X53216145Y35445139D01*
X53445139Y35216145D01*
X53650585Y34965808D01*
X53830504Y34696539D01*
X53983165Y34410932D01*
X54107095Y34111737D01*
X54201103Y33801835D01*
X54264282Y33484211D01*
X54296025Y33161923D01*
X54296025Y32838077D01*
X54264282Y32515789D01*
X54201103Y32198165D01*
X54107095Y31888263D01*
X53983165Y31589068D01*
X53830504Y31303461D01*
X53650585Y31034192D01*
X53445139Y30783855D01*
X53216145Y30554861D01*
X52965808Y30349415D01*
X52696539Y30169496D01*
X52410932Y30016835D01*
X52111737Y29892905D01*
X51801835Y29798897D01*
X51484211Y29735718D01*
X51161923Y29703975D01*
X50838077Y29703975D01*
X50515789Y29735718D01*
X50198165Y29798897D01*
X49888263Y29892905D01*
X49589068Y30016835D01*
X49303461Y30169496D01*
X49034192Y30349415D01*
X48783855Y30554861D01*
X48554861Y30783855D01*
X48349415Y31034192D01*
X48169496Y31303461D01*
X48016835Y31589068D01*
X47892905Y31888263D01*
X47798897Y32198165D01*
X47735718Y32515789D01*
X47703975Y32838077D01*
X47703975Y33161923D01*
X47735718Y33484211D01*
X47798897Y33801835D01*
X47892905Y34111737D01*
X48016835Y34410932D01*
X48169496Y34696539D01*
X48349415Y34965808D01*
X48554861Y35216145D01*
X48783855Y35445139D01*
X49034192Y35650585D01*
X49303461Y35830504D01*
X49589068Y35983165D01*
X49888263Y36107095D01*
X50198165Y36201103D01*
X50515789Y36264282D01*
X50838077Y36296025D01*
X51161923Y36296025D01*
X51484211Y36264282D01*
G37*
G36*
X16915549Y32791878D02*
G01*
X17107686Y32729449D01*
X17287691Y32637732D01*
X17451132Y32518985D01*
X17593985Y32376132D01*
X17712732Y32212691D01*
X17804449Y32032686D01*
X17866878Y31840549D01*
X17898481Y31641012D01*
X17898481Y31438988D01*
X17866878Y31239451D01*
X17804449Y31047314D01*
X17712732Y30867309D01*
X17593985Y30703868D01*
X17451132Y30561015D01*
X17287691Y30442268D01*
X17107686Y30350551D01*
X16915549Y30288122D01*
X16716012Y30256519D01*
X16513988Y30256519D01*
X16314451Y30288122D01*
X16122314Y30350551D01*
X15942309Y30442268D01*
X15778868Y30561015D01*
X15636015Y30703868D01*
X15517268Y30867309D01*
X15425551Y31047314D01*
X15363122Y31239451D01*
X15331519Y31438988D01*
X15331519Y31641012D01*
X15363122Y31840549D01*
X15425551Y32032686D01*
X15517268Y32212691D01*
X15636015Y32376132D01*
X15778868Y32518985D01*
X15942309Y32637732D01*
X16122314Y32729449D01*
X16314451Y32791878D01*
X16513988Y32823481D01*
X16716012Y32823481D01*
X16915549Y32791878D01*
G37*
G36*
X20090549Y32791878D02*
G01*
X20282686Y32729449D01*
X20462691Y32637732D01*
X20626132Y32518985D01*
X20768985Y32376132D01*
X20887732Y32212691D01*
X20979449Y32032686D01*
X21041878Y31840549D01*
X21073481Y31641012D01*
X21073481Y31438988D01*
X21041878Y31239451D01*
X20979449Y31047314D01*
X20887732Y30867309D01*
X20768985Y30703868D01*
X20626132Y30561015D01*
X20462691Y30442268D01*
X20282686Y30350551D01*
X20090549Y30288122D01*
X19891012Y30256519D01*
X19688988Y30256519D01*
X19489451Y30288122D01*
X19297314Y30350551D01*
X19117309Y30442268D01*
X18953868Y30561015D01*
X18811015Y30703868D01*
X18692268Y30867309D01*
X18600551Y31047314D01*
X18538122Y31239451D01*
X18506519Y31438988D01*
X18506519Y31641012D01*
X18538122Y31840549D01*
X18600551Y32032686D01*
X18692268Y32212691D01*
X18811015Y32376132D01*
X18953868Y32518985D01*
X19117309Y32637732D01*
X19297314Y32729449D01*
X19489451Y32791878D01*
X19688988Y32823481D01*
X19891012Y32823481D01*
X20090549Y32791878D01*
G37*
M02*
